<?xml version="1.0" encoding="utf-8" standalone="no"?>
<!DOCTYPE svg PUBLIC "-//W3C//DTD SVG 1.1//EN"
  "http://www.w3.org/Graphics/SVG/1.1/DTD/svg11.dtd">
<svg xmlns:xlink="http://www.w3.org/1999/xlink" width="619.2pt" height="309.6pt" viewBox="0 0 619.2 309.6" xmlns="http://www.w3.org/2000/svg" version="1.1">
 <metadata>
  <rdf:RDF xmlns:dc="http://purl.org/dc/elements/1.1/" xmlns:cc="http://creativecommons.org/ns#" xmlns:rdf="http://www.w3.org/1999/02/22-rdf-syntax-ns#">
   <cc:Work>
    <dc:type rdf:resource="http://purl.org/dc/dcmitype/StillImage"/>
    <dc:date>2026-06-30T05:42:48.837010</dc:date>
    <dc:format>image/svg+xml</dc:format>
    <dc:creator>
     <cc:Agent>
      <dc:title>Matplotlib v3.10.3, https://matplotlib.org/</dc:title>
     </cc:Agent>
    </dc:creator>
   </cc:Work>
  </rdf:RDF>
 </metadata>
 <defs>
  <style type="text/css">*{stroke-linejoin: round; stroke-linecap: butt}</style>
 </defs>
 <g id="figure_1">
  <g id="patch_1">
   <path d="M 0 309.6 
L 619.2 309.6 
L 619.2 0 
L 0 0 
z
" style="fill: #ffffff"/>
  </g>
  <g id="axes_1">
   <g id="patch_2">
    <path d="M 54.43054 280.28 
L 608.4 280.28 
L 608.4 26.88 
L 54.43054 26.88 
z
" style="fill: #ffffff"/>
   </g>
   <g id="patch_3">
    <path d="M 79.61097 56821.25739 
L 130.507584 56821.25739 
L 130.507584 38.398182 
L 79.61097 38.398182 
z
" clip-path="url(#p8b9604a667)" style="fill: #2e6fb0"/>
   </g>
   <g id="patch_4">
    <path d="M 213.549427 56821.25739 
L 264.446041 56821.25739 
L 264.446041 105.807803 
L 213.549427 105.807803 
z
" clip-path="url(#p8b9604a667)" style="fill: #2e6fb0"/>
   </g>
   <g id="patch_5">
    <path d="M 347.487885 56821.25739 
L 398.384499 56821.25739 
L 398.384499 106.122641 
L 347.487885 106.122641 
z
" clip-path="url(#p8b9604a667)" style="fill: #2e6fb0"/>
   </g>
   <g id="patch_6">
    <path d="M 481.426342 56821.25739 
L 532.322956 56821.25739 
L 532.322956 105.566198 
L 481.426342 105.566198 
z
" clip-path="url(#p8b9604a667)" style="fill: #2e6fb0"/>
   </g>
   <g id="patch_7">
    <path d="M 130.507584 56821.25739 
L 181.404197 56821.25739 
L 181.404197 65.984217 
L 130.507584 65.984217 
z
" clip-path="url(#p8b9604a667)" style="fill: #2e9d5b"/>
   </g>
   <g id="patch_8">
    <path d="M 264.446041 56821.25739 
L 315.342655 56821.25739 
L 315.342655 198.9911 
L 264.446041 198.9911 
z
" clip-path="url(#p8b9604a667)" style="fill: #2e9d5b"/>
   </g>
   <g id="patch_9">
    <path d="M 398.384499 56821.25739 
L 449.281112 56821.25739 
L 449.281112 268.761818 
L 398.384499 268.761818 
z
" clip-path="url(#p8b9604a667)" style="fill: #2e9d5b"/>
   </g>
   <g id="patch_10">
    <path d="M 532.322956 56821.25739 
L 583.21957 56821.25739 
L 583.21957 268.761818 
L 532.322956 268.761818 
z
" clip-path="url(#p8b9604a667)" style="fill: #2e9d5b"/>
   </g>
   <g id="matplotlib.axis_1">
    <g id="xtick_1">
     <g id="line2d_1">
      <defs>
       <path id="mad2f24f94f" d="M 0 0 
L 0 3.5 
" style="stroke: #000000; stroke-width: 0.8"/>
      </defs>
      <g>
       <use xlink:href="#mad2f24f94f" x="130.507584" y="280.28" style="stroke: #000000; stroke-width: 0.8"/>
      </g>
     </g>
     <g id="text_1">
      <!-- 创建 50×100 文件 -->
      <g transform="translate(89.179459 295.27375) scale(0.1 -0.1)">
       <defs>
        <path id="MicrosoftYaHei-521b" d="M 2425 5247 
L 2344 5116 
Q 3138 4384 3869 3634 
L 3525 3247 
Q 2856 3991 2100 4716 
Q 1488 3747 838 3097 
L 3406 3097 
Q 3369 2228 3344 1878 
Q 3313 947 2494 947 
Q 2163 947 1681 966 
Q 1644 1241 1594 1466 
Q 2013 1397 2394 1391 
Q 2844 1384 2875 1959 
Q 2894 2259 2913 2659 
L 1256 2659 
L 1256 153 
Q 1256 -197 1631 -197 
L 2656 -197 
Q 3150 -197 3213 128 
Q 3288 428 3325 878 
Q 3569 778 3819 697 
Q 3756 284 3663 -66 
Q 3506 -647 2781 -647 
L 1538 -647 
Q 769 -647 769 116 
L 769 3022 
Q 569 2834 375 2678 
Q 188 2984 88 3128 
Q 1113 3909 1850 5247 
L 2425 5247 
z
M 5419 5203 
L 5919 5203 
L 5919 9 
Q 5919 -753 5163 -759 
Q 4900 -759 4181 -753 
Q 4150 -466 4081 -184 
Q 4744 -241 5013 -241 
Q 5419 -241 5419 159 
L 5419 5203 
z
M 4594 797 
L 4113 797 
L 4113 4647 
L 4594 4647 
L 4594 797 
z
" transform="scale(0.015625)"/>
        <path id="MicrosoftYaHei-5efa" d="M 2075 1009 
L 3675 1009 
L 3675 1553 
L 2288 1553 
L 2288 1928 
L 3675 1928 
L 3675 2472 
L 2375 2472 
L 2375 2847 
L 3675 2847 
L 3675 3391 
L 2050 3391 
L 2050 3778 
L 3675 3778 
L 3675 4322 
L 2375 4322 
L 2375 4697 
L 3675 4697 
L 3675 5309 
L 4138 5309 
L 4138 4697 
L 5588 4697 
L 5588 3778 
L 6244 3778 
L 6244 3391 
L 5588 3391 
L 5588 2303 
L 5138 2303 
L 5138 2472 
L 4138 2472 
L 4138 1928 
L 5713 1928 
L 5713 1553 
L 4138 1553 
L 4138 1009 
L 6000 1009 
L 6000 634 
L 4138 634 
L 4138 -9 
L 3675 -9 
L 3675 634 
L 2075 634 
L 2075 1009 
z
M 600 2066 
Q 788 1303 1125 813 
Q 1459 1500 1544 2397 
L 294 2397 
L 294 2853 
L 1444 4272 
L 169 4272 
L 169 4697 
L 2019 4697 
L 2019 4272 
L 844 2822 
L 2013 2822 
L 2013 2453 
Q 1897 1294 1447 444 
Q 2128 -147 3563 -153 
Q 4750 -178 6319 -122 
Q 6213 -378 6113 -616 
Q 4681 -609 3344 -603 
Q 1950 -603 1206 47 
Q 853 -466 350 -847 
Q 250 -666 94 -441 
Q 563 -84 881 391 
Q 463 922 188 1909 
L 600 2066 
z
M 4138 2847 
L 5138 2847 
L 5138 3391 
L 4138 3391 
L 4138 2847 
z
M 5138 4322 
L 4138 4322 
L 4138 3778 
L 5138 3778 
L 5138 4322 
z
" transform="scale(0.015625)"/>
        <path id="MicrosoftYaHei-20" transform="scale(0.015625)"/>
        <path id="MicrosoftYaHei-35" d="M 3294 1494 
Q 3294 784 2823 350 
Q 2353 -84 1559 -84 
Q 878 -84 544 119 
L 544 744 
Q 1034 425 1544 425 
Q 2050 425 2361 704 
Q 2672 984 2672 1447 
Q 2672 1909 2348 2167 
Q 2025 2425 1434 2425 
Q 978 2425 613 2384 
L 791 4841 
L 3053 4841 
L 3053 4303 
L 1306 4303 
L 1206 2931 
L 1647 2950 
Q 2416 2950 2855 2567 
Q 3294 2184 3294 1494 
z
" transform="scale(0.015625)"/>
        <path id="MicrosoftYaHei-30" d="M 284 2325 
Q 284 3606 709 4264 
Q 1134 4922 1941 4922 
Q 3478 4922 3478 2441 
Q 3478 1216 3045 567 
Q 2613 -81 1831 -81 
Q 1094 -81 689 534 
Q 284 1150 284 2325 
z
M 909 2353 
Q 909 425 1888 425 
Q 2850 425 2850 2384 
Q 2850 4413 1906 4413 
Q 909 4413 909 2353 
z
" transform="scale(0.015625)"/>
        <path id="MicrosoftYaHei-d7" d="M 3856 869 
L 3519 531 
L 2372 1678 
L 1231 531 
L 894 869 
L 2044 2009 
L 894 3156 
L 1231 3491 
L 2372 2344 
L 3522 3491 
L 3856 3153 
L 2709 2009 
L 3856 869 
z
" transform="scale(0.015625)"/>
        <path id="MicrosoftYaHei-31" d="M 1781 0 
L 1781 4141 
Q 1638 3997 1295 3819 
Q 953 3641 663 3569 
L 663 4169 
Q 1047 4275 1484 4508 
Q 1922 4741 2156 4947 
L 2388 4947 
L 2388 0 
L 1781 0 
z
" transform="scale(0.015625)"/>
        <path id="MicrosoftYaHei-6587" d="M 194 4241 
L 3194 4241 
Q 2878 4841 2700 5116 
L 3181 5341 
Q 3356 5072 3706 4466 
L 3256 4241 
L 6194 4241 
L 6194 3778 
L 5041 3778 
Q 4706 1994 3603 909 
Q 4434 303 6244 -178 
Q 5956 -503 5806 -722 
Q 4044 -113 3203 553 
Q 2359 -103 506 -772 
Q 344 -553 131 -284 
Q 1919 253 2822 913 
Q 1681 2131 1372 3778 
L 194 3778 
L 194 4241 
z
M 4506 3778 
L 1872 3778 
Q 2153 2241 3216 1238 
Q 4231 2181 4506 3778 
z
" transform="scale(0.015625)"/>
        <path id="MicrosoftYaHei-4ef6" d="M 1950 1816 
L 4119 1816 
L 4119 3397 
L 2928 3397 
Q 2675 2725 2375 2197 
Q 2194 2372 1963 2528 
Q 2556 3572 2838 4859 
L 3344 4716 
Q 3222 4250 3081 3834 
L 4119 3834 
L 4119 5284 
L 4619 5284 
L 4619 3834 
L 6113 3834 
L 6113 3397 
L 4619 3397 
L 4619 1816 
L 6319 1816 
L 6319 1378 
L 4619 1378 
L 4619 -809 
L 4119 -809 
L 4119 1378 
L 1950 1378 
L 1950 1816 
z
M 69 2191 
Q 931 3466 1456 5278 
L 1969 5128 
Q 1738 4400 1469 3763 
L 1469 -816 
L 975 -816 
L 975 2731 
Q 656 2141 294 1647 
Q 200 1916 69 2191 
z
" transform="scale(0.015625)"/>
       </defs>
       <use xlink:href="#MicrosoftYaHei-521b"/>
       <use xlink:href="#MicrosoftYaHei-5efa" transform="translate(100 0)"/>
       <use xlink:href="#MicrosoftYaHei-20" transform="translate(200 0)"/>
       <use xlink:href="#MicrosoftYaHei-35" transform="translate(229.589844 0)"/>
       <use xlink:href="#MicrosoftYaHei-30" transform="translate(288.232422 0)"/>
       <use xlink:href="#MicrosoftYaHei-d7" transform="translate(346.875 0)"/>
       <use xlink:href="#MicrosoftYaHei-31" transform="translate(421.044922 0)"/>
       <use xlink:href="#MicrosoftYaHei-30" transform="translate(479.6875 0)"/>
       <use xlink:href="#MicrosoftYaHei-30" transform="translate(538.330078 0)"/>
       <use xlink:href="#MicrosoftYaHei-20" transform="translate(596.972656 0)"/>
       <use xlink:href="#MicrosoftYaHei-6587" transform="translate(626.5625 0)"/>
       <use xlink:href="#MicrosoftYaHei-4ef6" transform="translate(726.5625 0)"/>
      </g>
     </g>
    </g>
    <g id="xtick_2">
     <g id="line2d_2">
      <g>
       <use xlink:href="#mad2f24f94f" x="264.446041" y="280.28" style="stroke: #000000; stroke-width: 0.8"/>
      </g>
     </g>
     <g id="text_2">
      <!-- tree 遍历 #1 -->
      <g transform="translate(235.987447 295.27375) scale(0.1 -0.1)">
       <defs>
        <path id="MicrosoftYaHei-74" d="M 2206 34 
Q 2006 -75 1666 -75 
Q 738 -75 738 953 
L 738 2950 
L 144 2950 
L 144 3456 
L 738 3456 
L 738 4288 
L 1347 4481 
L 1347 3456 
L 2206 3456 
L 2206 2950 
L 1347 2950 
L 1347 1063 
Q 1347 722 1462 575 
Q 1578 428 1847 428 
Q 2053 428 2206 544 
L 2206 34 
z
" transform="scale(0.015625)"/>
        <path id="MicrosoftYaHei-72" d="M 2400 2850 
Q 2247 2959 1978 2959 
Q 1622 2959 1390 2626 
Q 1159 2294 1159 1750 
L 1159 0 
L 547 0 
L 547 3456 
L 1159 3456 
L 1159 2753 
L 1172 2753 
Q 1434 3516 2078 3516 
Q 2288 3516 2400 3469 
L 2400 2850 
z
" transform="scale(0.015625)"/>
        <path id="MicrosoftYaHei-65" d="M 3363 1572 
L 944 1572 
Q 959 1019 1246 717 
Q 1534 416 2050 416 
Q 2631 416 3116 788 
L 3116 241 
Q 2659 -81 1906 -81 
Q 1156 -81 736 394 
Q 316 869 316 1713 
Q 316 2506 777 3022 
Q 1238 3538 1922 3538 
Q 2600 3538 2981 3102 
Q 3363 2666 3363 1881 
L 3363 1572 
z
M 2750 2063 
Q 2747 2531 2528 2787 
Q 2309 3044 1913 3044 
Q 1547 3044 1280 2772 
Q 1013 2500 944 2063 
L 2750 2063 
z
" transform="scale(0.015625)"/>
        <path id="MicrosoftYaHei-904d" d="M 2038 4747 
L 3900 4747 
Q 3769 4981 3644 5166 
L 4088 5378 
Q 4269 5094 4463 4747 
L 5956 4747 
L 5956 3116 
L 5519 3116 
L 5519 3316 
L 2475 3316 
Q 2450 1375 1750 416 
Q 1619 622 1431 803 
Q 2038 1666 2038 3472 
L 2038 4747 
z
M 3000 28 
L 2600 28 
L 2600 2766 
L 6050 2766 
L 6050 609 
Q 6050 34 5550 22 
Q 5356 9 5138 16 
Q 5106 191 5044 428 
Q 5250 409 5381 409 
Q 5631 409 5631 659 
L 5631 1247 
L 5000 1247 
L 5000 241 
L 4613 241 
L 4613 1247 
L 4000 1247 
L 4000 197 
L 3613 197 
L 3613 1247 
L 3000 1247 
L 3000 28 
z
M 2688 -228 
L 4200 -247 
L 6319 -197 
Q 6213 -441 6113 -678 
L 4031 -697 
L 2644 -672 
Q 1594 -666 1088 47 
Q 906 -97 356 -753 
L 88 -222 
Q 488 138 863 456 
L 863 2641 
L 150 2641 
L 150 3097 
L 1350 3097 
L 1350 363 
Q 1803 -200 2688 -228 
z
M 5519 4359 
L 2475 4359 
L 2475 3703 
L 5519 3703 
L 5519 4359 
z
M 731 5266 
Q 1125 4809 1600 4197 
L 1150 3897 
Q 719 4534 344 4984 
L 731 5266 
z
M 5631 2391 
L 5000 2391 
L 5000 1609 
L 5631 1609 
L 5631 2391 
z
M 4000 1609 
L 4613 1609 
L 4613 2391 
L 4000 2391 
L 4000 1609 
z
M 3000 1609 
L 3613 1609 
L 3613 2391 
L 3000 2391 
L 3000 1609 
z
" transform="scale(0.015625)"/>
        <path id="MicrosoftYaHei-5386" d="M 1669 3084 
L 3028 3084 
Q 3044 3650 3044 4222 
L 3569 4222 
Q 3563 3650 3547 3084 
L 5800 3084 
Q 5725 1422 5656 341 
Q 5556 -616 4688 -634 
Q 4219 -634 3588 -603 
Q 3556 -366 3494 -41 
Q 4113 -109 4588 -109 
Q 5088 -103 5156 466 
Q 5225 1366 5269 2603 
L 3531 2603 
Q 3478 1334 3138 691 
Q 2681 -166 1513 -847 
Q 1338 -641 1144 -422 
Q 2294 284 2644 947 
Q 2969 1528 3013 2603 
L 1669 2603 
L 1669 3084 
z
M 1325 2766 
Q 1319 1384 1144 647 
Q 963 -116 456 -841 
Q 300 -628 81 -416 
Q 506 197 650 816 
Q 794 1416 794 2653 
L 794 4916 
L 6244 4916 
L 6244 4434 
L 1325 4434 
L 1325 2766 
z
" transform="scale(0.015625)"/>
        <path id="MicrosoftYaHei-23" d="M 3928 3500 
L 3850 3109 
L 2994 3109 
L 2791 2119 
L 3694 2119 
L 3616 1734 
L 2706 1734 
L 2425 413 
L 1972 413 
L 2253 1734 
L 1422 1734 
L 1141 413 
L 688 413 
L 969 1734 
L 113 1734 
L 191 2119 
L 1053 2119 
L 1256 3109 
L 347 3109 
L 425 3500 
L 1334 3500 
L 1613 4838 
L 2066 4838 
L 1788 3500 
L 2619 3500 
L 2897 4838 
L 3350 4838 
L 3072 3500 
L 3928 3500 
z
M 2541 3109 
L 1709 3109 
L 1506 2119 
L 2338 2119 
L 2541 3109 
z
" transform="scale(0.015625)"/>
       </defs>
       <use xlink:href="#MicrosoftYaHei-74"/>
       <use xlink:href="#MicrosoftYaHei-72" transform="translate(37.255859 0)"/>
       <use xlink:href="#MicrosoftYaHei-65" transform="translate(74.064453 0)"/>
       <use xlink:href="#MicrosoftYaHei-65" transform="translate(130.802734 0)"/>
       <use xlink:href="#MicrosoftYaHei-20" transform="translate(187.541016 0)"/>
       <use xlink:href="#MicrosoftYaHei-904d" transform="translate(217.130859 0)"/>
       <use xlink:href="#MicrosoftYaHei-5386" transform="translate(317.130859 0)"/>
       <use xlink:href="#MicrosoftYaHei-20" transform="translate(417.130859 0)"/>
       <use xlink:href="#MicrosoftYaHei-23" transform="translate(446.720703 0)"/>
       <use xlink:href="#MicrosoftYaHei-31" transform="translate(510.539062 0)"/>
      </g>
     </g>
    </g>
    <g id="xtick_3">
     <g id="line2d_3">
      <g>
       <use xlink:href="#mad2f24f94f" x="398.384499" y="280.28" style="stroke: #000000; stroke-width: 0.8"/>
      </g>
     </g>
     <g id="text_3">
      <!-- tree 遍历 #2 -->
      <g transform="translate(369.925905 295.27375) scale(0.1 -0.1)">
       <defs>
        <path id="MicrosoftYaHei-32" d="M 2666 3572 
Q 2666 3963 2419 4186 
Q 2172 4409 1747 4409 
Q 1447 4409 1140 4256 
Q 834 4103 569 3819 
L 569 4413 
Q 806 4659 1107 4790 
Q 1409 4922 1816 4922 
Q 2472 4922 2872 4570 
Q 3272 4219 3272 3619 
Q 3272 3084 3026 2693 
Q 2781 2303 2188 1894 
Q 1581 1475 1376 1294 
Q 1172 1113 1090 947 
Q 1009 781 1009 544 
L 3416 544 
L 3416 0 
L 372 0 
L 372 241 
Q 372 659 486 951 
Q 600 1244 862 1520 
Q 1125 1797 1681 2184 
Q 2250 2584 2458 2886 
Q 2666 3188 2666 3572 
z
" transform="scale(0.015625)"/>
       </defs>
       <use xlink:href="#MicrosoftYaHei-74"/>
       <use xlink:href="#MicrosoftYaHei-72" transform="translate(37.255859 0)"/>
       <use xlink:href="#MicrosoftYaHei-65" transform="translate(74.064453 0)"/>
       <use xlink:href="#MicrosoftYaHei-65" transform="translate(130.802734 0)"/>
       <use xlink:href="#MicrosoftYaHei-20" transform="translate(187.541016 0)"/>
       <use xlink:href="#MicrosoftYaHei-904d" transform="translate(217.130859 0)"/>
       <use xlink:href="#MicrosoftYaHei-5386" transform="translate(317.130859 0)"/>
       <use xlink:href="#MicrosoftYaHei-20" transform="translate(417.130859 0)"/>
       <use xlink:href="#MicrosoftYaHei-23" transform="translate(446.720703 0)"/>
       <use xlink:href="#MicrosoftYaHei-32" transform="translate(510.539062 0)"/>
      </g>
     </g>
    </g>
    <g id="xtick_4">
     <g id="line2d_4">
      <g>
       <use xlink:href="#mad2f24f94f" x="532.322956" y="280.28" style="stroke: #000000; stroke-width: 0.8"/>
      </g>
     </g>
     <g id="text_4">
      <!-- tree 遍历 #3 -->
      <g transform="translate(503.864362 295.27375) scale(0.1 -0.1)">
       <defs>
        <path id="MicrosoftYaHei-33" d="M 447 809 
Q 944 425 1569 425 
Q 2069 425 2361 670 
Q 2653 916 2653 1328 
Q 2653 2247 1338 2247 
L 934 2247 
L 934 2753 
L 1319 2753 
Q 2484 2753 2484 3616 
Q 2484 4413 1594 4413 
Q 1084 4413 634 4069 
L 634 4647 
Q 1109 4922 1744 4922 
Q 2363 4922 2738 4598 
Q 3113 4275 3113 3759 
Q 3113 2809 2144 2538 
L 2144 2525 
Q 2669 2469 2973 2155 
Q 3278 1841 3278 1372 
Q 3278 719 2808 319 
Q 2338 -81 1556 -81 
Q 869 -81 447 175 
L 447 809 
z
" transform="scale(0.015625)"/>
       </defs>
       <use xlink:href="#MicrosoftYaHei-74"/>
       <use xlink:href="#MicrosoftYaHei-72" transform="translate(37.255859 0)"/>
       <use xlink:href="#MicrosoftYaHei-65" transform="translate(74.064453 0)"/>
       <use xlink:href="#MicrosoftYaHei-65" transform="translate(130.802734 0)"/>
       <use xlink:href="#MicrosoftYaHei-20" transform="translate(187.541016 0)"/>
       <use xlink:href="#MicrosoftYaHei-904d" transform="translate(217.130859 0)"/>
       <use xlink:href="#MicrosoftYaHei-5386" transform="translate(317.130859 0)"/>
       <use xlink:href="#MicrosoftYaHei-20" transform="translate(417.130859 0)"/>
       <use xlink:href="#MicrosoftYaHei-23" transform="translate(446.720703 0)"/>
       <use xlink:href="#MicrosoftYaHei-33" transform="translate(510.539062 0)"/>
      </g>
     </g>
    </g>
   </g>
   <g id="matplotlib.axis_2">
    <g id="ytick_1">
     <g id="line2d_5">
      <path d="M 54.43054 230.36721 
L 608.4 230.36721 
" clip-path="url(#p8b9604a667)" style="fill: none; stroke-dasharray: 2.96,1.28; stroke-dashoffset: 0; stroke: #b0b0b0; stroke-opacity: 0.4; stroke-width: 0.8"/>
     </g>
     <g id="line2d_6">
      <defs>
       <path id="mc062c610b3" d="M 0 0 
L -3.5 0 
" style="stroke: #000000; stroke-width: 0.8"/>
      </defs>
      <g>
       <use xlink:href="#mc062c610b3" x="54.43054" y="230.36721" style="stroke: #000000; stroke-width: 0.8"/>
      </g>
     </g>
     <g id="text_5">
      <!-- $\mathdefault{10^{-1}}$ -->
      <g transform="translate(26.03054 234.364085) scale(0.1 -0.1)">
       <defs>
        <path id="MicrosoftYaHei-2212" d="M 3972 1772 
L 788 1772 
L 788 2250 
L 3972 2250 
L 3972 1772 
z
" transform="scale(0.015625)"/>
       </defs>
       <use xlink:href="#MicrosoftYaHei-31" transform="translate(0 0.092188)"/>
       <use xlink:href="#MicrosoftYaHei-30" transform="translate(58.642578 0.092188)"/>
       <use xlink:href="#MicrosoftYaHei-2212" transform="translate(118.230156 37.892188) scale(0.7)"/>
       <use xlink:href="#MicrosoftYaHei-31" transform="translate(170.149102 37.892188) scale(0.7)"/>
      </g>
     </g>
    </g>
    <g id="ytick_2">
     <g id="line2d_7">
      <path d="M 54.43054 173.719672 
L 608.4 173.719672 
" clip-path="url(#p8b9604a667)" style="fill: none; stroke-dasharray: 2.96,1.28; stroke-dashoffset: 0; stroke: #b0b0b0; stroke-opacity: 0.4; stroke-width: 0.8"/>
     </g>
     <g id="line2d_8">
      <g>
       <use xlink:href="#mc062c610b3" x="54.43054" y="173.719672" style="stroke: #000000; stroke-width: 0.8"/>
      </g>
     </g>
     <g id="text_6">
      <!-- $\mathdefault{10^{0}}$ -->
      <g transform="translate(31.23054 177.716547) scale(0.1 -0.1)">
       <use xlink:href="#MicrosoftYaHei-31" transform="translate(0 0.365625)"/>
       <use xlink:href="#MicrosoftYaHei-30" transform="translate(58.642578 0.365625)"/>
       <use xlink:href="#MicrosoftYaHei-30" transform="translate(118.230156 38.165625) scale(0.7)"/>
      </g>
     </g>
    </g>
    <g id="ytick_3">
     <g id="line2d_9">
      <path d="M 54.43054 117.072135 
L 608.4 117.072135 
" clip-path="url(#p8b9604a667)" style="fill: none; stroke-dasharray: 2.96,1.28; stroke-dashoffset: 0; stroke: #b0b0b0; stroke-opacity: 0.4; stroke-width: 0.8"/>
     </g>
     <g id="line2d_10">
      <g>
       <use xlink:href="#mc062c610b3" x="54.43054" y="117.072135" style="stroke: #000000; stroke-width: 0.8"/>
      </g>
     </g>
     <g id="text_7">
      <!-- $\mathdefault{10^{1}}$ -->
      <g transform="translate(31.23054 121.06901) scale(0.1 -0.1)">
       <use xlink:href="#MicrosoftYaHei-31" transform="translate(0 0.092188)"/>
       <use xlink:href="#MicrosoftYaHei-30" transform="translate(58.642578 0.092188)"/>
       <use xlink:href="#MicrosoftYaHei-31" transform="translate(118.230156 37.892188) scale(0.7)"/>
      </g>
     </g>
    </g>
    <g id="ytick_4">
     <g id="line2d_11">
      <path d="M 54.43054 60.424597 
L 608.4 60.424597 
" clip-path="url(#p8b9604a667)" style="fill: none; stroke-dasharray: 2.96,1.28; stroke-dashoffset: 0; stroke: #b0b0b0; stroke-opacity: 0.4; stroke-width: 0.8"/>
     </g>
     <g id="line2d_12">
      <g>
       <use xlink:href="#mc062c610b3" x="54.43054" y="60.424597" style="stroke: #000000; stroke-width: 0.8"/>
      </g>
     </g>
     <g id="text_8">
      <!-- $\mathdefault{10^{2}}$ -->
      <g transform="translate(31.23054 64.421472) scale(0.1 -0.1)">
       <use xlink:href="#MicrosoftYaHei-31" transform="translate(0 0.365625)"/>
       <use xlink:href="#MicrosoftYaHei-30" transform="translate(58.642578 0.365625)"/>
       <use xlink:href="#MicrosoftYaHei-32" transform="translate(118.230156 38.165625) scale(0.7)"/>
      </g>
     </g>
    </g>
    <g id="ytick_5">
     <g id="line2d_13">
      <defs>
       <path id="m1a98403358" d="M 0 0 
L -2 0 
" style="stroke: #000000; stroke-width: 0.6"/>
      </defs>
      <g>
       <use xlink:href="#m1a98403358" x="54.43054" y="269.96214" style="stroke: #000000; stroke-width: 0.6"/>
      </g>
     </g>
    </g>
    <g id="ytick_6">
     <g id="line2d_14">
      <g>
       <use xlink:href="#m1a98403358" x="54.43054" y="259.987004" style="stroke: #000000; stroke-width: 0.6"/>
      </g>
     </g>
    </g>
    <g id="ytick_7">
     <g id="line2d_15">
      <g>
       <use xlink:href="#m1a98403358" x="54.43054" y="252.909532" style="stroke: #000000; stroke-width: 0.6"/>
      </g>
     </g>
    </g>
    <g id="ytick_8">
     <g id="line2d_16">
      <g>
       <use xlink:href="#m1a98403358" x="54.43054" y="247.419818" style="stroke: #000000; stroke-width: 0.6"/>
      </g>
     </g>
    </g>
    <g id="ytick_9">
     <g id="line2d_17">
      <g>
       <use xlink:href="#m1a98403358" x="54.43054" y="242.934396" style="stroke: #000000; stroke-width: 0.6"/>
      </g>
     </g>
    </g>
    <g id="ytick_10">
     <g id="line2d_18">
      <g>
       <use xlink:href="#m1a98403358" x="54.43054" y="239.142025" style="stroke: #000000; stroke-width: 0.6"/>
      </g>
     </g>
    </g>
    <g id="ytick_11">
     <g id="line2d_19">
      <g>
       <use xlink:href="#m1a98403358" x="54.43054" y="235.856924" style="stroke: #000000; stroke-width: 0.6"/>
      </g>
     </g>
    </g>
    <g id="ytick_12">
     <g id="line2d_20">
      <g>
       <use xlink:href="#m1a98403358" x="54.43054" y="232.959259" style="stroke: #000000; stroke-width: 0.6"/>
      </g>
     </g>
    </g>
    <g id="ytick_13">
     <g id="line2d_21">
      <g>
       <use xlink:href="#m1a98403358" x="54.43054" y="213.314602" style="stroke: #000000; stroke-width: 0.6"/>
      </g>
     </g>
    </g>
    <g id="ytick_14">
     <g id="line2d_22">
      <g>
       <use xlink:href="#m1a98403358" x="54.43054" y="203.339466" style="stroke: #000000; stroke-width: 0.6"/>
      </g>
     </g>
    </g>
    <g id="ytick_15">
     <g id="line2d_23">
      <g>
       <use xlink:href="#m1a98403358" x="54.43054" y="196.261994" style="stroke: #000000; stroke-width: 0.6"/>
      </g>
     </g>
    </g>
    <g id="ytick_16">
     <g id="line2d_24">
      <g>
       <use xlink:href="#m1a98403358" x="54.43054" y="190.77228" style="stroke: #000000; stroke-width: 0.6"/>
      </g>
     </g>
    </g>
    <g id="ytick_17">
     <g id="line2d_25">
      <g>
       <use xlink:href="#m1a98403358" x="54.43054" y="186.286858" style="stroke: #000000; stroke-width: 0.6"/>
      </g>
     </g>
    </g>
    <g id="ytick_18">
     <g id="line2d_26">
      <g>
       <use xlink:href="#m1a98403358" x="54.43054" y="182.494487" style="stroke: #000000; stroke-width: 0.6"/>
      </g>
     </g>
    </g>
    <g id="ytick_19">
     <g id="line2d_27">
      <g>
       <use xlink:href="#m1a98403358" x="54.43054" y="179.209386" style="stroke: #000000; stroke-width: 0.6"/>
      </g>
     </g>
    </g>
    <g id="ytick_20">
     <g id="line2d_28">
      <g>
       <use xlink:href="#m1a98403358" x="54.43054" y="176.311722" style="stroke: #000000; stroke-width: 0.6"/>
      </g>
     </g>
    </g>
    <g id="ytick_21">
     <g id="line2d_29">
      <g>
       <use xlink:href="#m1a98403358" x="54.43054" y="156.667064" style="stroke: #000000; stroke-width: 0.6"/>
      </g>
     </g>
    </g>
    <g id="ytick_22">
     <g id="line2d_30">
      <g>
       <use xlink:href="#m1a98403358" x="54.43054" y="146.691928" style="stroke: #000000; stroke-width: 0.6"/>
      </g>
     </g>
    </g>
    <g id="ytick_23">
     <g id="line2d_31">
      <g>
       <use xlink:href="#m1a98403358" x="54.43054" y="139.614456" style="stroke: #000000; stroke-width: 0.6"/>
      </g>
     </g>
    </g>
    <g id="ytick_24">
     <g id="line2d_32">
      <g>
       <use xlink:href="#m1a98403358" x="54.43054" y="134.124743" style="stroke: #000000; stroke-width: 0.6"/>
      </g>
     </g>
    </g>
    <g id="ytick_25">
     <g id="line2d_33">
      <g>
       <use xlink:href="#m1a98403358" x="54.43054" y="129.63932" style="stroke: #000000; stroke-width: 0.6"/>
      </g>
     </g>
    </g>
    <g id="ytick_26">
     <g id="line2d_34">
      <g>
       <use xlink:href="#m1a98403358" x="54.43054" y="125.846949" style="stroke: #000000; stroke-width: 0.6"/>
      </g>
     </g>
    </g>
    <g id="ytick_27">
     <g id="line2d_35">
      <g>
       <use xlink:href="#m1a98403358" x="54.43054" y="122.561848" style="stroke: #000000; stroke-width: 0.6"/>
      </g>
     </g>
    </g>
    <g id="ytick_28">
     <g id="line2d_36">
      <g>
       <use xlink:href="#m1a98403358" x="54.43054" y="119.664184" style="stroke: #000000; stroke-width: 0.6"/>
      </g>
     </g>
    </g>
    <g id="ytick_29">
     <g id="line2d_37">
      <g>
       <use xlink:href="#m1a98403358" x="54.43054" y="100.019527" style="stroke: #000000; stroke-width: 0.6"/>
      </g>
     </g>
    </g>
    <g id="ytick_30">
     <g id="line2d_38">
      <g>
       <use xlink:href="#m1a98403358" x="54.43054" y="90.04439" style="stroke: #000000; stroke-width: 0.6"/>
      </g>
     </g>
    </g>
    <g id="ytick_31">
     <g id="line2d_39">
      <g>
       <use xlink:href="#m1a98403358" x="54.43054" y="82.966919" style="stroke: #000000; stroke-width: 0.6"/>
      </g>
     </g>
    </g>
    <g id="ytick_32">
     <g id="line2d_40">
      <g>
       <use xlink:href="#m1a98403358" x="54.43054" y="77.477205" style="stroke: #000000; stroke-width: 0.6"/>
      </g>
     </g>
    </g>
    <g id="ytick_33">
     <g id="line2d_41">
      <g>
       <use xlink:href="#m1a98403358" x="54.43054" y="72.991782" style="stroke: #000000; stroke-width: 0.6"/>
      </g>
     </g>
    </g>
    <g id="ytick_34">
     <g id="line2d_42">
      <g>
       <use xlink:href="#m1a98403358" x="54.43054" y="69.199412" style="stroke: #000000; stroke-width: 0.6"/>
      </g>
     </g>
    </g>
    <g id="ytick_35">
     <g id="line2d_43">
      <g>
       <use xlink:href="#m1a98403358" x="54.43054" y="65.914311" style="stroke: #000000; stroke-width: 0.6"/>
      </g>
     </g>
    </g>
    <g id="ytick_36">
     <g id="line2d_44">
      <g>
       <use xlink:href="#m1a98403358" x="54.43054" y="63.016646" style="stroke: #000000; stroke-width: 0.6"/>
      </g>
     </g>
    </g>
    <g id="ytick_37">
     <g id="line2d_45">
      <g>
       <use xlink:href="#m1a98403358" x="54.43054" y="43.371989" style="stroke: #000000; stroke-width: 0.6"/>
      </g>
     </g>
    </g>
    <g id="ytick_38">
     <g id="line2d_46">
      <g>
       <use xlink:href="#m1a98403358" x="54.43054" y="33.396853" style="stroke: #000000; stroke-width: 0.6"/>
      </g>
     </g>
    </g>
    <g id="text_9">
     <!-- 耗时 (s，对数刻度) -->
     <g transform="translate(19.544602 195.715156) rotate(-90) scale(0.1 -0.1)">
      <defs>
       <path id="MicrosoftYaHei-8017" d="M 2506 1622 
L 3913 1753 
L 3913 2878 
L 2738 2772 
L 2706 3197 
L 3913 3303 
L 3913 4459 
Q 3381 4403 2794 4353 
Q 2769 4584 2700 4809 
Q 4225 4916 5706 5172 
L 5819 4697 
Q 5188 4603 4381 4509 
L 4381 3347 
L 5825 3478 
L 5850 3053 
L 4381 2916 
L 4381 1797 
L 6150 1966 
L 6175 1541 
L 4381 1366 
L 4381 128 
Q 4381 -241 4706 -241 
L 5400 -241 
Q 5688 -241 5750 147 
Q 5813 566 5844 991 
Q 6094 866 6319 791 
Q 6250 291 6194 -28 
Q 6094 -691 5456 -691 
L 4588 -691 
Q 3913 -691 3913 72 
L 3913 1322 
L 2538 1197 
L 2506 1622 
z
M 88 191 
Q 769 1072 1088 2022 
L 138 2022 
L 138 2422 
L 1250 2422 
L 1250 3028 
L 363 3028 
L 363 3428 
L 1250 3428 
L 1250 4016 
L 231 4016 
L 231 4416 
L 1250 4416 
L 1250 5303 
L 1675 5303 
L 1675 4416 
L 2631 4416 
L 2631 4016 
L 1675 4016 
L 1675 3428 
L 2519 3428 
L 2519 3028 
L 1675 3028 
L 1675 2422 
L 2700 2422 
L 2700 2022 
L 1675 2022 
L 1675 1334 
L 1894 1547 
Q 2381 1078 2806 622 
L 2463 316 
Q 2125 747 1675 1203 
L 1675 -841 
L 1250 -841 
L 1250 1491 
Q 869 434 281 -297 
Q 188 -16 88 191 
z
" transform="scale(0.015625)"/>
       <path id="MicrosoftYaHei-65f6" d="M 344 4728 
L 2500 4728 
L 2500 -366 
L 2006 -366 
L 2006 153 
L 838 153 
L 838 -441 
L 344 -441 
L 344 4728 
z
M 2706 3941 
L 4925 3941 
L 4925 5322 
L 5425 5322 
L 5425 3941 
L 6313 3941 
L 6313 3478 
L 5425 3478 
L 5425 116 
Q 5425 -722 4625 -722 
Q 4263 -722 3563 -703 
Q 3531 -478 3463 -178 
Q 4119 -228 4488 -228 
Q 4925 -228 4925 216 
L 4925 3478 
L 2706 3478 
L 2706 3941 
z
M 838 616 
L 2006 616 
L 2006 2234 
L 838 2234 
L 838 616 
z
M 2006 4266 
L 838 4266 
L 838 2684 
L 2006 2684 
L 2006 4266 
z
M 3406 2878 
Q 3906 1966 4163 1422 
Q 4000 1347 3663 1172 
Q 3419 1766 2963 2653 
L 3406 2878 
z
" transform="scale(0.015625)"/>
       <path id="MicrosoftYaHei-28" d="M 1531 -1100 
Q 478 100 478 1847 
Q 478 3594 1531 4841 
L 2072 4841 
Q 1016 3544 1016 1853 
Q 1016 166 2066 -1100 
L 1531 -1100 
z
" transform="scale(0.015625)"/>
       <path id="MicrosoftYaHei-73" d="M 353 747 
Q 816 413 1350 413 
Q 2066 413 2066 881 
Q 2066 1081 1909 1211 
Q 1753 1341 1275 1519 
Q 700 1750 528 1976 
Q 356 2203 356 2525 
Q 356 2984 745 3261 
Q 1134 3538 1703 3538 
Q 2144 3538 2522 3384 
L 2522 2794 
Q 2134 3044 1644 3044 
Q 1350 3044 1165 2916 
Q 981 2788 981 2578 
Q 981 2372 1114 2256 
Q 1247 2141 1703 1959 
Q 2281 1744 2484 1512 
Q 2688 1281 2688 941 
Q 2688 466 2298 192 
Q 1909 -81 1291 -81 
Q 753 -81 353 122 
L 353 747 
z
" transform="scale(0.015625)"/>
       <path id="MicrosoftYaHei-ff0c" d="M 1931 775 
L 1403 -891 
L 966 -891 
L 1350 775 
L 1931 775 
z
" transform="scale(0.015625)"/>
       <path id="MicrosoftYaHei-5bf9" d="M 694 3691 
Q 1234 2909 1741 2166 
Q 2113 3081 2213 4147 
L 250 4147 
L 250 4622 
L 2725 4622 
L 2725 4166 
Q 2553 2809 2059 1700 
Q 2569 953 3044 247 
L 2594 -53 
Q 2203 563 1803 1181 
Q 1247 163 388 -622 
Q 263 -428 81 -166 
Q 975 638 1500 1647 
Q 919 2538 319 3434 
L 694 3691 
z
M 2975 3941 
L 5056 3941 
L 5056 5278 
L 5563 5278 
L 5563 3941 
L 6325 3941 
L 6325 3466 
L 5563 3466 
L 5563 191 
Q 5563 -716 4669 -716 
Q 4388 -716 3744 -709 
Q 3713 -478 3644 -147 
Q 4263 -197 4588 -197 
Q 5056 -197 5056 278 
L 5056 3466 
L 2975 3466 
L 2975 3941 
z
M 3088 2684 
L 3494 2928 
Q 4000 2184 4388 1484 
L 3919 1216 
Q 3550 1922 3088 2684 
z
" transform="scale(0.015625)"/>
       <path id="MicrosoftYaHei-6570" d="M 4175 5303 
L 4675 5228 
Q 4544 4622 4369 4097 
L 6281 4097 
L 6281 3672 
L 5888 3672 
Q 5731 1834 5088 753 
Q 5594 66 6375 -372 
Q 6175 -647 6038 -866 
Q 5275 -372 4769 309 
Q 4194 -403 3400 -928 
Q 3263 -747 3044 -534 
Q 3919 41 4463 772 
Q 3956 1647 3794 2791 
Q 3663 2559 3519 2359 
Q 3394 2541 3206 2759 
Q 3931 3803 4175 5303 
z
M 150 1697 
L 1100 1697 
Q 1238 1934 1369 2184 
L 1819 2041 
Q 1719 1866 1619 1697 
L 3150 1697 
L 3150 1291 
Q 2913 678 2431 216 
Q 2775 53 3131 -109 
L 2856 -541 
Q 2469 -322 2050 -103 
Q 1344 -609 269 -903 
Q 169 -703 56 -466 
Q 969 -259 1600 128 
Q 1063 403 475 691 
Q 675 978 863 1284 
L 150 1284 
L 150 1697 
z
M 219 3847 
L 1656 3847 
L 1656 5247 
L 2119 5247 
L 2119 3847 
L 3319 3847 
L 3319 3434 
L 2119 3434 
L 2119 3053 
L 2306 3266 
Q 2888 2841 3281 2516 
L 2981 2166 
Q 2638 2491 2119 2897 
L 2119 2184 
L 1656 2184 
L 1656 3059 
Q 1088 2466 331 2016 
Q 213 2197 63 2397 
Q 850 2822 1506 3434 
L 219 3434 
L 219 3847 
z
M 5388 3672 
L 4219 3672 
Q 4188 3591 4150 3516 
Q 4263 2191 4775 1247 
Q 5275 2159 5388 3672 
z
M 1088 834 
Q 1531 634 2000 416 
Q 2431 784 2675 1284 
L 1375 1284 
Q 1231 1053 1088 834 
z
M 3038 5091 
L 3425 4834 
Q 3081 4384 2738 4003 
Q 2594 4128 2400 4266 
Q 2725 4647 3038 5091 
z
M 381 4816 
L 738 5059 
Q 1019 4716 1319 4322 
L 931 4047 
Q 656 4453 381 4816 
z
" transform="scale(0.015625)"/>
       <path id="MicrosoftYaHei-523b" d="M 3175 3478 
Q 2425 1747 413 272 
Q 256 491 75 672 
Q 1191 1394 1913 2294 
Q 1188 2256 569 2203 
L 438 2616 
Q 588 2741 694 2903 
Q 1053 3431 1350 4034 
L 275 4034 
L 275 4484 
L 2034 4484 
Q 1850 4800 1625 5134 
L 2056 5353 
Q 2325 4934 2488 4641 
L 2200 4484 
L 3900 4484 
L 3900 4034 
L 1903 4034 
Q 1422 3209 1050 2653 
Q 1303 2659 2206 2694 
Q 2516 3153 2731 3653 
L 3175 3478 
z
M 5475 5216 
L 5963 5216 
L 5963 28 
Q 5963 -722 5200 -728 
Q 4844 -734 4338 -722 
Q 4306 -478 4244 -209 
Q 4731 -266 5031 -266 
Q 5475 -266 5475 172 
L 5475 5216 
z
M 3750 2353 
Q 3359 1525 2806 850 
Q 3403 297 3994 -297 
L 3606 -666 
Q 3159 -141 2513 513 
Q 1756 -303 731 -878 
Q 581 -672 388 -478 
Q 2356 541 3306 2559 
L 3750 2353 
z
M 4269 4584 
L 4738 4584 
L 4738 634 
L 4269 634 
L 4269 4584 
z
" transform="scale(0.015625)"/>
       <path id="MicrosoftYaHei-5ea6" d="M 1550 1216 
L 1550 1628 
L 5469 1628 
L 5469 1222 
Q 4903 613 4147 163 
Q 5050 -200 6263 -309 
L 6019 -797 
Q 4625 -603 3644 -109 
Q 2600 -619 1250 -866 
Q 1150 -666 994 -416 
Q 2231 -222 3166 166 
Q 2497 600 2066 1216 
L 1550 1216 
z
M 1363 3541 
L 2294 3541 
L 2294 4066 
L 2769 4066 
L 2769 3541 
L 4538 3541 
L 4538 4072 
L 5013 4072 
L 5013 3541 
L 6150 3541 
L 6150 3128 
L 5013 3128 
L 5013 1928 
L 4538 1928 
L 4538 2147 
L 2769 2147 
L 2769 1922 
L 2294 1922 
L 2294 3128 
L 1363 3128 
L 1363 3541 
z
M 3025 5172 
L 3481 5391 
Q 3694 5056 3909 4634 
L 6213 4634 
L 6213 4197 
L 1225 4197 
L 1225 2316 
Q 1225 178 394 -872 
Q 238 -666 38 -447 
Q 725 397 738 2347 
L 738 4634 
L 3331 4634 
Q 3188 4909 3025 5172 
z
M 2769 2547 
L 4538 2547 
L 4538 3128 
L 2769 3128 
L 2769 2547 
z
M 4819 1216 
L 2588 1216 
Q 3031 728 3656 391 
Q 4334 741 4819 1216 
z
" transform="scale(0.015625)"/>
       <path id="MicrosoftYaHei-29" d="M 78 -1100 
Q 1131 163 1131 1853 
Q 1131 3547 72 4841 
L 616 4841 
Q 1672 3603 1672 1847 
Q 1672 91 616 -1100 
L 78 -1100 
z
" transform="scale(0.015625)"/>
      </defs>
      <use xlink:href="#MicrosoftYaHei-8017"/>
      <use xlink:href="#MicrosoftYaHei-65f6" transform="translate(100 0)"/>
      <use xlink:href="#MicrosoftYaHei-20" transform="translate(200 0)"/>
      <use xlink:href="#MicrosoftYaHei-28" transform="translate(229.589844 0)"/>
      <use xlink:href="#MicrosoftYaHei-73" transform="translate(262.988281 0)"/>
      <use xlink:href="#MicrosoftYaHei-ff0c" transform="translate(309.277344 0)"/>
      <use xlink:href="#MicrosoftYaHei-5bf9" transform="translate(409.277344 0)"/>
      <use xlink:href="#MicrosoftYaHei-6570" transform="translate(509.277344 0)"/>
      <use xlink:href="#MicrosoftYaHei-523b" transform="translate(609.277344 0)"/>
      <use xlink:href="#MicrosoftYaHei-5ea6" transform="translate(709.277344 0)"/>
      <use xlink:href="#MicrosoftYaHei-29" transform="translate(809.277344 0)"/>
     </g>
    </g>
   </g>
   <g id="patch_11">
    <path d="M 54.43054 280.28 
L 54.43054 26.88 
" style="fill: none; stroke: #000000; stroke-width: 0.8; stroke-linejoin: miter; stroke-linecap: square"/>
   </g>
   <g id="patch_12">
    <path d="M 608.4 280.28 
L 608.4 26.88 
" style="fill: none; stroke: #000000; stroke-width: 0.8; stroke-linejoin: miter; stroke-linecap: square"/>
   </g>
   <g id="patch_13">
    <path d="M 54.43054 280.28 
L 608.4 280.28 
" style="fill: none; stroke: #000000; stroke-width: 0.8; stroke-linejoin: miter; stroke-linecap: square"/>
   </g>
   <g id="patch_14">
    <path d="M 54.43054 26.88 
L 608.4 26.88 
" style="fill: none; stroke: #000000; stroke-width: 0.8; stroke-linejoin: miter; stroke-linecap: square"/>
   </g>
   <g id="text_10">
    <!-- 244.812 -->
    <g style="fill: #333333" transform="translate(90.022402 32.971049) scale(0.08 -0.08)">
     <defs>
      <path id="MicrosoftYaHei-34" d="M 2906 4841 
L 2906 1644 
L 3631 1644 
L 3631 1138 
L 2906 1138 
L 2906 0 
L 2313 0 
L 2313 1138 
L 53 1138 
L 53 1616 
Q 656 2294 1265 3178 
Q 1875 4063 2272 4841 
L 2906 4841 
z
M 741 1644 
L 2313 1644 
L 2313 3950 
Q 1988 3366 1616 2817 
Q 1244 2269 741 1644 
z
" transform="scale(0.015625)"/>
      <path id="MicrosoftYaHei-2e" d="M 372 322 
Q 372 491 487 606 
Q 603 722 775 722 
Q 950 722 1065 605 
Q 1181 488 1181 322 
Q 1181 159 1065 42 
Q 950 -75 772 -75 
Q 600 -75 486 42 
Q 372 159 372 322 
z
" transform="scale(0.015625)"/>
      <path id="MicrosoftYaHei-38" d="M 306 1350 
Q 306 1769 556 2122 
Q 806 2475 1200 2625 
Q 884 2803 700 3081 
Q 516 3359 516 3684 
Q 516 4028 692 4312 
Q 869 4597 1183 4759 
Q 1497 4922 1875 4922 
Q 2256 4922 2572 4761 
Q 2888 4600 3063 4315 
Q 3238 4031 3238 3684 
Q 3238 3366 3058 3086 
Q 2878 2806 2559 2625 
Q 2953 2472 3200 2119 
Q 3447 1766 3447 1350 
Q 3447 938 3250 611 
Q 3053 284 2690 103 
Q 2328 -78 1875 -78 
Q 1425 -78 1065 103 
Q 706 284 506 612 
Q 306 941 306 1350 
z
M 906 1378 
Q 906 947 1172 687 
Q 1438 428 1878 428 
Q 2309 428 2582 692 
Q 2856 956 2856 1378 
Q 2856 1778 2579 2051 
Q 2303 2325 1878 2325 
Q 1456 2325 1181 2058 
Q 906 1791 906 1378 
z
M 1081 3634 
Q 1081 3309 1312 3076 
Q 1544 2844 1878 2844 
Q 2206 2844 2445 3078 
Q 2684 3313 2684 3634 
Q 2684 3963 2454 4191 
Q 2225 4419 1878 4419 
Q 1534 4419 1307 4195 
Q 1081 3972 1081 3634 
z
" transform="scale(0.015625)"/>
     </defs>
     <use xlink:href="#MicrosoftYaHei-32"/>
     <use xlink:href="#MicrosoftYaHei-34" transform="translate(58.642578 0)"/>
     <use xlink:href="#MicrosoftYaHei-34" transform="translate(117.285156 0)"/>
     <use xlink:href="#MicrosoftYaHei-2e" transform="translate(175.927734 0)"/>
     <use xlink:href="#MicrosoftYaHei-38" transform="translate(200 0)"/>
     <use xlink:href="#MicrosoftYaHei-31" transform="translate(258.642578 0)"/>
     <use xlink:href="#MicrosoftYaHei-32" transform="translate(317.285156 0)"/>
    </g>
   </g>
   <g id="text_11">
    <!-- 15.807 -->
    <g style="fill: #333333" transform="translate(226.306484 100.38067) scale(0.08 -0.08)">
     <defs>
      <path id="MicrosoftYaHei-37" d="M 3422 4463 
Q 2659 3131 2223 1998 
Q 1788 866 1684 0 
L 1047 0 
Q 1163 853 1594 1947 
Q 2025 3041 2747 4300 
L 347 4300 
L 347 4841 
L 3422 4841 
L 3422 4463 
z
" transform="scale(0.015625)"/>
     </defs>
     <use xlink:href="#MicrosoftYaHei-31"/>
     <use xlink:href="#MicrosoftYaHei-35" transform="translate(58.642578 0)"/>
     <use xlink:href="#MicrosoftYaHei-2e" transform="translate(117.285156 0)"/>
     <use xlink:href="#MicrosoftYaHei-38" transform="translate(141.357422 0)"/>
     <use xlink:href="#MicrosoftYaHei-30" transform="translate(200 0)"/>
     <use xlink:href="#MicrosoftYaHei-37" transform="translate(258.642578 0)"/>
    </g>
   </g>
   <g id="text_12">
    <!-- 15.606 -->
    <g style="fill: #333333" transform="translate(360.244942 100.695508) scale(0.08 -0.08)">
     <defs>
      <path id="MicrosoftYaHei-36" d="M 3181 4219 
Q 2803 4413 2391 4413 
Q 1763 4413 1381 3866 
Q 1000 3319 994 2372 
L 1009 2372 
Q 1353 3038 2106 3038 
Q 2734 3038 3109 2628 
Q 3484 2219 3484 1541 
Q 3484 831 3051 375 
Q 2619 -81 1947 -81 
Q 1209 -81 789 495 
Q 369 1072 369 2131 
Q 369 3413 920 4167 
Q 1472 4922 2372 4922 
Q 2888 4922 3181 4781 
L 3181 4219 
z
M 1031 1584 
Q 1031 1106 1286 765 
Q 1541 425 1963 425 
Q 2363 425 2613 719 
Q 2863 1013 2863 1475 
Q 2863 1975 2627 2253 
Q 2391 2531 1956 2531 
Q 1544 2531 1287 2250 
Q 1031 1969 1031 1584 
z
" transform="scale(0.015625)"/>
     </defs>
     <use xlink:href="#MicrosoftYaHei-31"/>
     <use xlink:href="#MicrosoftYaHei-35" transform="translate(58.642578 0)"/>
     <use xlink:href="#MicrosoftYaHei-2e" transform="translate(117.285156 0)"/>
     <use xlink:href="#MicrosoftYaHei-36" transform="translate(141.357422 0)"/>
     <use xlink:href="#MicrosoftYaHei-30" transform="translate(200 0)"/>
     <use xlink:href="#MicrosoftYaHei-36" transform="translate(258.642578 0)"/>
    </g>
   </g>
   <g id="text_13">
    <!-- 15.963 -->
    <g style="fill: #333333" transform="translate(494.183399 100.139064) scale(0.08 -0.08)">
     <defs>
      <path id="MicrosoftYaHei-39" d="M 578 656 
Q 978 425 1441 425 
Q 2091 425 2448 937 
Q 2806 1450 2806 2394 
Q 2800 2388 2794 2394 
Q 2475 1788 1722 1788 
Q 1113 1788 713 2206 
Q 313 2625 313 3294 
Q 313 4006 750 4464 
Q 1188 4922 1884 4922 
Q 2606 4922 3012 4355 
Q 3419 3788 3419 2703 
Q 3419 1363 2894 641 
Q 2369 -81 1441 -81 
Q 931 -81 578 84 
L 578 656 
z
M 931 3372 
Q 931 2884 1181 2598 
Q 1431 2313 1872 2313 
Q 2253 2313 2512 2573 
Q 2772 2834 2772 3206 
Q 2772 3728 2514 4070 
Q 2256 4413 1834 4413 
Q 1444 4413 1187 4116 
Q 931 3819 931 3372 
z
" transform="scale(0.015625)"/>
     </defs>
     <use xlink:href="#MicrosoftYaHei-31"/>
     <use xlink:href="#MicrosoftYaHei-35" transform="translate(58.642578 0)"/>
     <use xlink:href="#MicrosoftYaHei-2e" transform="translate(117.285156 0)"/>
     <use xlink:href="#MicrosoftYaHei-39" transform="translate(141.357422 0)"/>
     <use xlink:href="#MicrosoftYaHei-36" transform="translate(200 0)"/>
     <use xlink:href="#MicrosoftYaHei-33" transform="translate(258.642578 0)"/>
    </g>
   </g>
   <g id="text_14">
    <!-- 79.773 -->
    <g style="fill: #333333" transform="translate(143.264641 60.557084) scale(0.08 -0.08)">
     <use xlink:href="#MicrosoftYaHei-37"/>
     <use xlink:href="#MicrosoftYaHei-39" transform="translate(58.642578 0)"/>
     <use xlink:href="#MicrosoftYaHei-2e" transform="translate(117.285156 0)"/>
     <use xlink:href="#MicrosoftYaHei-37" transform="translate(141.357422 0)"/>
     <use xlink:href="#MicrosoftYaHei-37" transform="translate(200 0)"/>
     <use xlink:href="#MicrosoftYaHei-33" transform="translate(258.642578 0)"/>
    </g>
   </g>
   <g id="text_15">
    <!-- 0.358 -->
    <g style="fill: #333333" transform="translate(279.548723 193.563967) scale(0.08 -0.08)">
     <use xlink:href="#MicrosoftYaHei-30"/>
     <use xlink:href="#MicrosoftYaHei-2e" transform="translate(58.642578 0)"/>
     <use xlink:href="#MicrosoftYaHei-33" transform="translate(82.714844 0)"/>
     <use xlink:href="#MicrosoftYaHei-35" transform="translate(141.357422 0)"/>
     <use xlink:href="#MicrosoftYaHei-38" transform="translate(200 0)"/>
    </g>
   </g>
   <g id="text_16">
    <!-- 0.021 -->
    <g style="fill: #333333" transform="translate(413.487181 263.334685) scale(0.08 -0.08)">
     <use xlink:href="#MicrosoftYaHei-30"/>
     <use xlink:href="#MicrosoftYaHei-2e" transform="translate(58.642578 0)"/>
     <use xlink:href="#MicrosoftYaHei-30" transform="translate(82.714844 0)"/>
     <use xlink:href="#MicrosoftYaHei-32" transform="translate(141.357422 0)"/>
     <use xlink:href="#MicrosoftYaHei-31" transform="translate(200 0)"/>
    </g>
   </g>
   <g id="text_17">
    <!-- 0.021 -->
    <g style="fill: #333333" transform="translate(547.425638 263.334685) scale(0.08 -0.08)">
     <use xlink:href="#MicrosoftYaHei-30"/>
     <use xlink:href="#MicrosoftYaHei-2e" transform="translate(58.642578 0)"/>
     <use xlink:href="#MicrosoftYaHei-30" transform="translate(82.714844 0)"/>
     <use xlink:href="#MicrosoftYaHei-32" transform="translate(141.357422 0)"/>
     <use xlink:href="#MicrosoftYaHei-31" transform="translate(200 0)"/>
    </g>
   </g>
   <g id="text_18">
    <!-- Block Cache 对目录树创建与遍历的影响 -->
    <g transform="translate(222.975582 20.88) scale(0.12 -0.12)">
     <defs>
      <path id="MicrosoftYaHei-42" d="M 625 0 
L 625 4841 
L 2047 4841 
Q 2684 4841 3065 4536 
Q 3447 4231 3447 3728 
Q 3447 3328 3220 3022 
Q 2994 2716 2597 2588 
L 2597 2575 
Q 3091 2519 3386 2201 
Q 3681 1884 3681 1397 
Q 3681 772 3232 386 
Q 2784 0 2084 0 
L 625 0 
z
M 1250 4294 
L 1250 2778 
L 1819 2778 
Q 2272 2778 2530 2998 
Q 2788 3219 2788 3609 
Q 2788 4294 1875 4294 
L 1250 4294 
z
M 1250 2234 
L 1250 547 
L 2000 547 
Q 2491 547 2758 773 
Q 3025 1000 3025 1403 
Q 3025 2234 1897 2234 
L 1250 2234 
z
" transform="scale(0.015625)"/>
      <path id="MicrosoftYaHei-6c" d="M 544 0 
L 544 5116 
L 1156 5116 
L 1156 0 
L 544 0 
z
" transform="scale(0.015625)"/>
      <path id="MicrosoftYaHei-6f" d="M 316 1691 
Q 316 2547 794 3042 
Q 1272 3538 2091 3538 
Q 2869 3538 3311 3061 
Q 3753 2584 3753 1744 
Q 3753 925 3281 422 
Q 2809 -81 2016 -81 
Q 1241 -81 778 406 
Q 316 894 316 1691 
z
M 941 1709 
Q 941 1113 1242 769 
Q 1544 425 2053 425 
Q 2578 425 2853 761 
Q 3128 1097 3128 1725 
Q 3128 2356 2853 2693 
Q 2578 3031 2053 3031 
Q 1538 3031 1239 2678 
Q 941 2325 941 1709 
z
" transform="scale(0.015625)"/>
      <path id="MicrosoftYaHei-63" d="M 2934 156 
Q 2538 -81 1978 -81 
Q 1228 -81 772 400 
Q 316 881 316 1647 
Q 316 2497 808 3017 
Q 1300 3538 2125 3538 
Q 2600 3538 2938 3369 
L 2938 2763 
Q 2572 3031 2125 3031 
Q 1600 3031 1270 2667 
Q 941 2303 941 1697 
Q 941 1100 1252 762 
Q 1563 425 2091 425 
Q 2538 425 2934 719 
L 2934 156 
z
" transform="scale(0.015625)"/>
      <path id="MicrosoftYaHei-6b" d="M 3484 0 
L 2650 0 
L 1172 1666 
L 1159 1666 
L 1159 0 
L 547 0 
L 547 5116 
L 1159 5116 
L 1159 1872 
L 1172 1872 
L 2575 3456 
L 3363 3456 
L 1800 1794 
L 3484 0 
z
" transform="scale(0.015625)"/>
      <path id="MicrosoftYaHei-43" d="M 3938 200 
Q 3403 -81 2597 -81 
Q 1556 -81 934 580 
Q 313 1241 313 2328 
Q 313 3497 1013 4209 
Q 1713 4922 2791 4922 
Q 3484 4922 3938 4725 
L 3938 4072 
Q 3419 4359 2797 4359 
Q 1988 4359 1478 3820 
Q 969 3281 969 2366 
Q 969 1497 1444 986 
Q 1919 475 2688 475 
Q 3406 475 3938 800 
L 3938 200 
z
" transform="scale(0.015625)"/>
      <path id="MicrosoftYaHei-61" d="M 628 3216 
Q 1144 3538 1819 3538 
Q 3069 3538 3069 2225 
L 3069 0 
L 2463 0 
L 2463 534 
L 2447 534 
Q 2088 -81 1388 -81 
Q 884 -81 587 191 
Q 291 463 291 925 
Q 291 1894 1438 2053 
L 2463 2197 
Q 2463 3044 1763 3044 
Q 1141 3044 628 2625 
L 628 3216 
z
M 1653 1625 
Q 1228 1569 1067 1412 
Q 906 1256 906 975 
Q 906 728 1081 572 
Q 1256 416 1544 416 
Q 1944 416 2203 697 
Q 2463 978 2463 1403 
L 2463 1734 
L 1653 1625 
z
" transform="scale(0.015625)"/>
      <path id="MicrosoftYaHei-68" d="M 3466 0 
L 2856 0 
L 2856 1988 
Q 2856 3031 2081 3031 
Q 1684 3031 1421 2726 
Q 1159 2422 1159 1959 
L 1159 0 
L 547 0 
L 547 5116 
L 1159 5116 
L 1159 2888 
L 1172 2888 
Q 1569 3538 2300 3538 
Q 3466 3538 3466 2128 
L 3466 0 
z
" transform="scale(0.015625)"/>
      <path id="MicrosoftYaHei-76ee" d="M 944 5016 
L 5469 5016 
L 5469 -772 
L 4938 -772 
L 4938 -303 
L 1475 -303 
L 1475 -772 
L 944 -772 
L 944 5016 
z
M 1475 1341 
L 1475 159 
L 4938 159 
L 4938 1341 
L 1475 1341 
z
M 1475 2947 
L 1475 1778 
L 4938 1778 
L 4938 2947 
L 1475 2947 
z
M 1475 4553 
L 1475 3384 
L 4938 3384 
L 4938 4553 
L 1475 4553 
z
" transform="scale(0.015625)"/>
      <path id="MicrosoftYaHei-5f55" d="M 5450 2172 
L 5813 1759 
Q 5281 1409 4494 934 
Q 5225 366 6319 116 
Q 6125 -153 5975 -397 
Q 4275 122 3475 1366 
L 3475 9 
Q 3475 -747 2700 -747 
Q 2331 -747 1825 -734 
Q 1788 -503 1738 -197 
Q 2188 -247 2544 -253 
Q 2988 -253 2988 147 
L 2988 2384 
L 175 2384 
L 175 2803 
L 4838 2803 
L 4838 3472 
L 963 3472 
L 963 3872 
L 4838 3872 
L 4838 4534 
L 844 4534 
L 844 4953 
L 5306 4953 
L 5306 2803 
L 6275 2803 
L 6275 2384 
L 3475 2384 
L 3475 2241 
Q 3731 1678 4138 1253 
Q 4863 1722 5450 2172 
z
M 88 241 
Q 1313 622 2744 1147 
Q 2794 872 2838 672 
Q 1594 241 281 -234 
L 88 241 
z
M 956 2216 
Q 1556 1853 2175 1428 
L 1869 1016 
Q 1300 1447 669 1853 
L 956 2216 
z
" transform="scale(0.015625)"/>
      <path id="MicrosoftYaHei-6811" d="M 2463 3466 
Q 2816 2872 3147 2309 
Q 3453 3178 3531 4216 
L 2056 4216 
L 2056 4666 
L 4013 4666 
L 4013 4253 
Q 3878 2888 3444 1803 
Q 3888 1041 4288 334 
L 3850 53 
Q 3528 672 3203 1272 
Q 2728 328 1994 -372 
Q 1881 -184 1700 66 
Q 2475 800 2928 1772 
Q 2513 2522 2088 3234 
L 2463 3466 
z
M 50 1359 
Q 619 2306 925 3616 
L 144 3616 
L 144 4041 
L 963 4041 
L 963 5316 
L 1413 5316 
L 1413 4041 
L 2088 4041 
L 2088 3616 
L 1413 3616 
L 1413 2625 
L 1644 2841 
Q 1975 2528 2275 2209 
L 1963 1909 
Q 1706 2231 1413 2528 
L 1413 -847 
L 963 -847 
L 963 2544 
Q 650 1441 244 816 
Q 169 1084 50 1359 
z
M 4125 4003 
L 5263 4003 
L 5263 5284 
L 5725 5284 
L 5725 4003 
L 6319 4003 
L 6319 3566 
L 5725 3566 
L 5725 53 
Q 5725 -722 4963 -722 
Q 4738 -722 4294 -716 
Q 4269 -497 4200 -203 
Q 4613 -247 4869 -247 
Q 5263 -247 5263 109 
L 5263 3566 
L 4125 3566 
L 4125 4003 
z
M 3950 2747 
L 4331 2934 
Q 4650 2309 4919 1672 
L 4513 1466 
Q 4231 2191 3950 2747 
z
" transform="scale(0.015625)"/>
      <path id="MicrosoftYaHei-4e0e" d="M 1163 2384 
L 1163 2859 
L 1413 5328 
L 1931 5328 
L 1834 4334 
L 6269 4334 
L 6269 3859 
L 1791 3859 
L 1694 2859 
L 5813 2859 
Q 5738 1547 5644 416 
Q 5556 -247 5263 -478 
Q 4981 -703 4322 -703 
Q 3706 -697 2900 -678 
Q 2863 -466 2794 -134 
Q 3744 -203 4213 -209 
Q 5050 -266 5125 447 
Q 5206 1278 5263 2384 
L 1163 2384 
z
M 106 1409 
L 4738 1409 
L 4738 934 
L 106 934 
L 106 1409 
z
" transform="scale(0.015625)"/>
      <path id="MicrosoftYaHei-7684" d="M 356 4284 
L 988 4284 
Q 1219 4853 1369 5322 
L 1894 5172 
Q 1697 4694 1513 4284 
L 2763 4284 
L 2763 -691 
L 2263 -691 
L 2263 -203 
L 856 -203 
L 856 -734 
L 356 -734 
L 356 4284 
z
M 2856 3003 
Q 3444 3934 3850 5322 
L 4375 5191 
Q 4216 4719 4050 4303 
L 6063 4303 
Q 5988 1091 5938 259 
Q 5894 -722 4906 -722 
Q 4338 -722 3750 -684 
Q 3713 -372 3650 -128 
L 3669 -128 
Q 4294 -216 4813 -216 
Q 5381 -216 5425 384 
Q 5494 1316 5525 3834 
L 3850 3834 
Q 3578 3231 3288 2772 
Q 3119 2891 2856 3003 
z
M 856 266 
L 2263 266 
L 2263 1847 
L 856 1847 
L 856 266 
z
M 2263 3816 
L 856 3816 
L 856 2297 
L 2263 2297 
L 2263 3816 
z
M 3406 2578 
L 3788 2859 
Q 4481 2041 4894 1441 
L 4431 1116 
Q 3988 1841 3406 2578 
z
" transform="scale(0.015625)"/>
      <path id="MicrosoftYaHei-5f71" d="M 119 2734 
L 1803 2734 
Q 1713 2903 1613 3053 
L 1897 3191 
L 875 3191 
L 875 3028 
L 450 3028 
L 450 5041 
L 3563 5041 
L 3563 3028 
L 3138 3028 
L 3138 3191 
L 2047 3191 
Q 2188 2972 2303 2734 
L 3969 2734 
L 3969 2372 
L 119 2372 
L 119 2734 
z
M 550 2016 
L 3475 2016 
L 3475 703 
L 3050 703 
L 3050 797 
L 2275 797 
L 2275 -72 
Q 2275 -791 1625 -791 
Q 1406 -791 1050 -784 
Q 1025 -559 969 -341 
Q 1288 -384 1513 -384 
Q 1844 -384 1844 -22 
L 1844 797 
L 975 797 
L 975 703 
L 550 703 
L 550 2016 
z
M 3600 -497 
Q 5038 378 5913 1734 
L 6300 1447 
Q 5319 -9 3931 -866 
Q 3763 -634 3600 -497 
z
M 3825 1784 
Q 4913 2522 5756 3634 
L 6144 3328 
Q 5200 2178 4150 1409 
Q 3981 1628 3825 1784 
z
M 3756 3616 
Q 4681 4203 5469 5222 
L 5856 4934 
Q 5075 3928 4088 3259 
Q 3906 3478 3756 3616 
z
M 3050 1678 
L 975 1678 
L 975 1134 
L 3050 1134 
L 3050 1678 
z
M 3138 4691 
L 875 4691 
L 875 4278 
L 3138 4278 
L 3138 4691 
z
M 875 3541 
L 3138 3541 
L 3138 3953 
L 875 3953 
L 875 3541 
z
M 81 -347 
Q 525 22 1019 609 
L 1381 359 
Q 838 -278 400 -634 
L 81 -347 
z
M 2575 372 
L 2869 641 
Q 3225 359 3675 -47 
L 3350 -366 
Q 3019 3 2575 372 
z
" transform="scale(0.015625)"/>
      <path id="MicrosoftYaHei-54cd" d="M 2425 4441 
L 3525 4441 
Q 3700 4884 3838 5316 
L 4344 5197 
Q 4181 4803 4019 4441 
L 5875 4441 
L 5875 -59 
Q 5875 -766 5225 -772 
Q 4900 -778 4444 -772 
Q 4413 -547 4356 -284 
Q 4781 -322 5100 -322 
Q 5438 -322 5438 72 
L 5438 4016 
L 2863 4016 
L 2863 -859 
L 2425 -859 
L 2425 4441 
z
M 413 4484 
L 1925 4484 
L 1925 166 
L 1488 166 
L 1488 641 
L 850 641 
L 850 72 
L 413 72 
L 413 4484 
z
M 3325 3191 
L 4975 3191 
L 4975 741 
L 3750 741 
L 3750 466 
L 3325 466 
L 3325 3191 
z
M 1488 4053 
L 850 4053 
L 850 1072 
L 1488 1072 
L 1488 4053 
z
M 4550 2803 
L 3750 2803 
L 3750 1128 
L 4550 1128 
L 4550 2803 
z
" transform="scale(0.015625)"/>
     </defs>
     <use xlink:href="#MicrosoftYaHei-42"/>
     <use xlink:href="#MicrosoftYaHei-6c" transform="translate(62.744141 0)"/>
     <use xlink:href="#MicrosoftYaHei-6f" transform="translate(89.355469 0)"/>
     <use xlink:href="#MicrosoftYaHei-63" transform="translate(152.929688 0)"/>
     <use xlink:href="#MicrosoftYaHei-6b" transform="translate(203.076172 0)"/>
     <use xlink:href="#MicrosoftYaHei-20" transform="translate(257.519531 0)"/>
     <use xlink:href="#MicrosoftYaHei-43" transform="translate(287.109375 0)"/>
     <use xlink:href="#MicrosoftYaHei-61" transform="translate(354.003906 0)"/>
     <use xlink:href="#MicrosoftYaHei-63" transform="translate(409.277344 0)"/>
     <use xlink:href="#MicrosoftYaHei-68" transform="translate(459.423828 0)"/>
     <use xlink:href="#MicrosoftYaHei-65" transform="translate(520.996094 0)"/>
     <use xlink:href="#MicrosoftYaHei-20" transform="translate(577.734375 0)"/>
     <use xlink:href="#MicrosoftYaHei-5bf9" transform="translate(607.324219 0)"/>
     <use xlink:href="#MicrosoftYaHei-76ee" transform="translate(707.324219 0)"/>
     <use xlink:href="#MicrosoftYaHei-5f55" transform="translate(807.324219 0)"/>
     <use xlink:href="#MicrosoftYaHei-6811" transform="translate(907.324219 0)"/>
     <use xlink:href="#MicrosoftYaHei-521b" transform="translate(1007.324219 0)"/>
     <use xlink:href="#MicrosoftYaHei-5efa" transform="translate(1107.324219 0)"/>
     <use xlink:href="#MicrosoftYaHei-4e0e" transform="translate(1207.324219 0)"/>
     <use xlink:href="#MicrosoftYaHei-904d" transform="translate(1307.324219 0)"/>
     <use xlink:href="#MicrosoftYaHei-5386" transform="translate(1407.324219 0)"/>
     <use xlink:href="#MicrosoftYaHei-7684" transform="translate(1507.324219 0)"/>
     <use xlink:href="#MicrosoftYaHei-5f71" transform="translate(1607.324219 0)"/>
     <use xlink:href="#MicrosoftYaHei-54cd" transform="translate(1707.324219 0)"/>
    </g>
   </g>
   <g id="legend_1">
    <g id="patch_15">
     <path d="M 488.667187 65.839375 
L 601.4 65.839375 
Q 603.4 65.839375 603.4 63.839375 
L 603.4 33.88 
Q 603.4 31.88 601.4 31.88 
L 488.667187 31.88 
Q 486.667187 31.88 486.667187 33.88 
L 486.667187 63.839375 
Q 486.667187 65.839375 488.667187 65.839375 
z
" style="fill: #ffffff; opacity: 0.9; stroke: #cccccc; stroke-linejoin: miter"/>
    </g>
    <g id="patch_16">
     <path d="M 490.667187 43.87375 
L 510.667187 43.87375 
L 510.667187 36.87375 
L 490.667187 36.87375 
z
" style="fill: #2e6fb0"/>
    </g>
    <g id="text_19">
     <!-- 关闭 Block Cache -->
     <g transform="translate(518.667187 43.87375) scale(0.1 -0.1)">
      <defs>
       <path id="MicrosoftYaHei-5173" d="M 131 -397 
Q 2372 400 2803 1897 
L 256 1897 
L 256 2372 
L 2894 2372 
Q 2906 2506 2906 3566 
L 625 3566 
L 625 4041 
L 2125 4041 
Q 1588 4631 1206 4991 
L 1569 5316 
Q 2106 4834 2550 4397 
L 2150 4041 
L 3641 4041 
Q 4125 4725 4494 5322 
L 5013 5034 
Q 4581 4484 4219 4041 
L 5800 4041 
L 5800 3566 
L 3438 3566 
Q 3438 2647 3428 2372 
L 6169 2372 
L 6169 1897 
L 3516 1897 
Q 4250 325 6281 -259 
Q 6025 -522 5819 -766 
Q 3894 -16 3203 1491 
Q 2694 28 494 -847 
Q 331 -634 131 -397 
z
" transform="scale(0.015625)"/>
       <path id="MicrosoftYaHei-95ed" d="M 1406 3253 
L 3563 3253 
L 3563 4172 
L 4025 4172 
L 4025 3253 
L 5138 3253 
L 5138 2803 
L 4025 2803 
L 4025 434 
Q 4025 -253 3319 -253 
Q 3063 -253 2500 -241 
Q 2463 47 2425 241 
Q 2894 209 3175 203 
Q 3556 203 3563 603 
L 3563 2278 
Q 2731 1172 1531 303 
Q 1388 491 1194 678 
Q 2541 1609 3416 2803 
L 1406 2803 
L 1406 3253 
z
M 2388 4478 
L 2388 4947 
L 6013 4947 
L 6013 116 
Q 6013 -791 5175 -791 
Q 4756 -791 4169 -778 
Q 4144 -591 4069 -272 
Q 4588 -309 5056 -309 
Q 5525 -309 5525 141 
L 5525 4478 
L 2388 4478 
z
M 419 4134 
L 906 4134 
L 906 -791 
L 419 -791 
L 419 4134 
z
M 744 5028 
L 1100 5341 
Q 1625 4853 2050 4391 
L 1644 4041 
Q 1206 4559 744 5028 
z
" transform="scale(0.015625)"/>
      </defs>
      <use xlink:href="#MicrosoftYaHei-5173"/>
      <use xlink:href="#MicrosoftYaHei-95ed" transform="translate(100 0)"/>
      <use xlink:href="#MicrosoftYaHei-20" transform="translate(200 0)"/>
      <use xlink:href="#MicrosoftYaHei-42" transform="translate(229.589844 0)"/>
      <use xlink:href="#MicrosoftYaHei-6c" transform="translate(292.333984 0)"/>
      <use xlink:href="#MicrosoftYaHei-6f" transform="translate(318.945312 0)"/>
      <use xlink:href="#MicrosoftYaHei-63" transform="translate(382.519531 0)"/>
      <use xlink:href="#MicrosoftYaHei-6b" transform="translate(432.666016 0)"/>
      <use xlink:href="#MicrosoftYaHei-20" transform="translate(487.109375 0)"/>
      <use xlink:href="#MicrosoftYaHei-43" transform="translate(516.699219 0)"/>
      <use xlink:href="#MicrosoftYaHei-61" transform="translate(583.59375 0)"/>
      <use xlink:href="#MicrosoftYaHei-63" transform="translate(638.867188 0)"/>
      <use xlink:href="#MicrosoftYaHei-68" transform="translate(689.013672 0)"/>
      <use xlink:href="#MicrosoftYaHei-65" transform="translate(750.585938 0)"/>
     </g>
    </g>
    <g id="patch_17">
     <path d="M 490.667187 59.353437 
L 510.667187 59.353437 
L 510.667187 52.353437 
L 490.667187 52.353437 
z
" style="fill: #2e9d5b"/>
    </g>
    <g id="text_20">
     <!-- 启用 Block Cache -->
     <g transform="translate(518.667187 59.353437) scale(0.1 -0.1)">
      <defs>
       <path id="MicrosoftYaHei-542f" d="M 2781 5166 
L 3225 5391 
Q 3469 5006 3691 4603 
L 5938 4603 
L 5938 2516 
L 5450 2516 
L 5450 2747 
L 1288 2747 
L 1288 2728 
Q 1288 209 413 -878 
Q 244 -678 50 -472 
Q 788 459 788 2728 
L 788 4603 
L 3119 4603 
Q 2966 4881 2781 5166 
z
M 5869 1822 
L 5869 -847 
L 5381 -847 
L 5381 -441 
L 2225 -441 
L 2225 -847 
L 1738 -847 
L 1738 1822 
L 5869 1822 
z
M 5381 1384 
L 2225 1384 
L 2225 -9 
L 5381 -9 
L 5381 1384 
z
M 1288 4166 
L 1288 3184 
L 5450 3184 
L 5450 4166 
L 1288 4166 
z
" transform="scale(0.015625)"/>
       <path id="MicrosoftYaHei-7528" d="M 3088 -734 
L 3088 1253 
L 1269 1253 
Q 1163 -47 513 -903 
Q 350 -697 144 -472 
Q 550 103 694 803 
Q 831 1478 831 2716 
L 831 4947 
L 5925 4947 
L 5925 -22 
Q 5925 -766 5219 -766 
Q 4788 -766 4250 -747 
Q 4219 -541 4156 -228 
Q 4700 -266 5038 -266 
Q 5425 -266 5425 103 
L 5425 1253 
L 3588 1253 
L 3588 -734 
L 3088 -734 
z
M 3588 1703 
L 5425 1703 
L 5425 2872 
L 3588 2872 
L 3588 1703 
z
M 5425 4484 
L 3588 4484 
L 3588 3322 
L 5425 3322 
L 5425 4484 
z
M 1303 1703 
L 3088 1703 
L 3088 2872 
L 1331 2872 
Q 1350 2266 1303 1703 
z
M 1331 4484 
L 1331 3322 
L 3088 3322 
L 3088 4484 
L 1331 4484 
z
" transform="scale(0.015625)"/>
      </defs>
      <use xlink:href="#MicrosoftYaHei-542f"/>
      <use xlink:href="#MicrosoftYaHei-7528" transform="translate(100 0)"/>
      <use xlink:href="#MicrosoftYaHei-20" transform="translate(200 0)"/>
      <use xlink:href="#MicrosoftYaHei-42" transform="translate(229.589844 0)"/>
      <use xlink:href="#MicrosoftYaHei-6c" transform="translate(292.333984 0)"/>
      <use xlink:href="#MicrosoftYaHei-6f" transform="translate(318.945312 0)"/>
      <use xlink:href="#MicrosoftYaHei-63" transform="translate(382.519531 0)"/>
      <use xlink:href="#MicrosoftYaHei-6b" transform="translate(432.666016 0)"/>
      <use xlink:href="#MicrosoftYaHei-20" transform="translate(487.109375 0)"/>
      <use xlink:href="#MicrosoftYaHei-43" transform="translate(516.699219 0)"/>
      <use xlink:href="#MicrosoftYaHei-61" transform="translate(583.59375 0)"/>
      <use xlink:href="#MicrosoftYaHei-63" transform="translate(638.867188 0)"/>
      <use xlink:href="#MicrosoftYaHei-68" transform="translate(689.013672 0)"/>
      <use xlink:href="#MicrosoftYaHei-65" transform="translate(750.585938 0)"/>
     </g>
    </g>
   </g>
  </g>
 </g>
 <defs>
  <clipPath id="p8b9604a667">
   <rect x="54.43054" y="26.88" width="553.96946" height="253.4"/>
  </clipPath>
 </defs>
</svg>
