<?xml version="1.0" encoding="utf-8" standalone="no"?>
<!DOCTYPE svg PUBLIC "-//W3C//DTD SVG 1.1//EN"
  "http://www.w3.org/Graphics/SVG/1.1/DTD/svg11.dtd">
<svg xmlns:xlink="http://www.w3.org/1999/xlink" width="662.4pt" height="309.6pt" viewBox="0 0 662.4 309.6" xmlns="http://www.w3.org/2000/svg" version="1.1">
 <metadata>
  <rdf:RDF xmlns:dc="http://purl.org/dc/elements/1.1/" xmlns:cc="http://creativecommons.org/ns#" xmlns:rdf="http://www.w3.org/1999/02/22-rdf-syntax-ns#">
   <cc:Work>
    <dc:type rdf:resource="http://purl.org/dc/dcmitype/StillImage"/>
    <dc:date>2026-06-30T05:42:48.091703</dc:date>
    <dc:format>image/svg+xml</dc:format>
    <dc:creator>
     <cc:Agent>
      <dc:title>Matplotlib v3.10.3, https://matplotlib.org/</dc:title>
     </cc:Agent>
    </dc:creator>
   </cc:Work>
  </rdf:RDF>
 </metadata>
 <defs>
  <style type="text/css">*{stroke-linejoin: round; stroke-linecap: butt}</style>
 </defs>
 <g id="figure_1">
  <g id="patch_1">
   <path d="M 0 309.6 
L 662.4 309.6 
L 662.4 0 
L 0 0 
z
" style="fill: #ffffff"/>
  </g>
  <g id="axes_1">
   <g id="patch_2">
    <path d="M 50.582587 280.28 
L 651.6 280.28 
L 651.6 27.11625 
L 50.582587 27.11625 
z
" style="fill: #ffffff"/>
   </g>
   <g id="patch_3">
    <path d="M 77.90156 140978.968576 
L 104.657256 140978.968576 
L 104.657256 228.653489 
L 77.90156 228.653489 
z
" clip-path="url(#p4eb2e3c9de)" style="fill: #2e6fb0"/>
   </g>
   <g id="patch_4">
    <path d="M 148.311285 140978.968576 
L 175.066981 140978.968576 
L 175.066981 228.407568 
L 148.311285 228.407568 
z
" clip-path="url(#p4eb2e3c9de)" style="fill: #2e6fb0"/>
   </g>
   <g id="patch_5">
    <path d="M 218.72101 140978.968576 
L 245.476706 140978.968576 
L 245.476706 268.772557 
L 218.72101 268.772557 
z
" clip-path="url(#p4eb2e3c9de)" style="fill: #2e6fb0"/>
   </g>
   <g id="patch_6">
    <path d="M 289.130736 140978.968576 
L 315.886431 140978.968576 
L 315.886431 193.023284 
L 289.130736 193.023284 
z
" clip-path="url(#p4eb2e3c9de)" style="fill: #2e6fb0"/>
   </g>
   <g id="patch_7">
    <path d="M 359.540461 140978.968576 
L 386.296156 140978.968576 
L 386.296156 232.41423 
L 359.540461 232.41423 
z
" clip-path="url(#p4eb2e3c9de)" style="fill: #2e6fb0"/>
   </g>
   <g id="patch_8">
    <path d="M 429.950186 140978.968576 
L 456.705881 140978.968576 
L 456.705881 227.09649 
L 429.950186 227.09649 
z
" clip-path="url(#p4eb2e3c9de)" style="fill: #2e6fb0"/>
   </g>
   <g id="patch_9">
    <path d="M 500.359911 140978.968576 
L 527.115606 140978.968576 
L 527.115606 222.740346 
L 500.359911 222.740346 
z
" clip-path="url(#p4eb2e3c9de)" style="fill: #2e6fb0"/>
   </g>
   <g id="patch_10">
    <path d="M 570.769636 140978.968576 
L 597.525331 140978.968576 
L 597.525331 182.520765 
L 570.769636 182.520765 
z
" clip-path="url(#p4eb2e3c9de)" style="fill: #2e6fb0"/>
   </g>
   <g id="patch_11">
    <path d="M 104.657256 140978.968576 
L 131.412951 140978.968576 
L 131.412951 38.949829 
L 104.657256 38.949829 
z
" clip-path="url(#p4eb2e3c9de)" style="fill: #2e9d5b"/>
   </g>
   <g id="patch_12">
    <path d="M 175.066981 140978.968576 
L 201.822676 140978.968576 
L 201.822676 38.623693 
L 175.066981 38.623693 
z
" clip-path="url(#p4eb2e3c9de)" style="fill: #2e9d5b"/>
   </g>
   <g id="patch_13">
    <path d="M 245.476706 140978.968576 
L 272.232402 140978.968576 
L 272.232402 53.175884 
L 245.476706 53.175884 
z
" clip-path="url(#p4eb2e3c9de)" style="fill: #2e9d5b"/>
   </g>
   <g id="patch_14">
    <path d="M 315.886431 140978.968576 
L 342.642127 140978.968576 
L 342.642127 46.355093 
L 315.886431 46.355093 
z
" clip-path="url(#p4eb2e3c9de)" style="fill: #2e9d5b"/>
   </g>
   <g id="patch_15">
    <path d="M 386.296156 140978.968576 
L 413.051852 140978.968576 
L 413.051852 58.409853 
L 386.296156 58.409853 
z
" clip-path="url(#p4eb2e3c9de)" style="fill: #2e9d5b"/>
   </g>
   <g id="patch_16">
    <path d="M 456.705881 140978.968576 
L 483.461577 140978.968576 
L 483.461577 58.298553 
L 456.705881 58.298553 
z
" clip-path="url(#p4eb2e3c9de)" style="fill: #2e9d5b"/>
   </g>
   <g id="patch_17">
    <path d="M 527.115606 140978.968576 
L 553.871302 140978.968576 
L 553.871302 154.775849 
L 527.115606 154.775849 
z
" clip-path="url(#p4eb2e3c9de)" style="fill: #2e9d5b"/>
   </g>
   <g id="patch_18">
    <path d="M 597.525331 140978.968576 
L 624.281027 140978.968576 
L 624.281027 134.695605 
L 597.525331 134.695605 
z
" clip-path="url(#p4eb2e3c9de)" style="fill: #2e9d5b"/>
   </g>
   <g id="matplotlib.axis_1">
    <g id="xtick_1">
     <g id="line2d_1">
      <defs>
       <path id="me19e0d79c2" d="M 0 0 
L 0 3.5 
" style="stroke: #000000; stroke-width: 0.8"/>
      </defs>
      <g>
       <use xlink:href="#me19e0d79c2" x="104.657256" y="280.28" style="stroke: #000000; stroke-width: 0.8"/>
      </g>
     </g>
     <g id="text_1">
      <!-- 顺序读 -->
      <g transform="translate(89.657256 295.27375) scale(0.1 -0.1)">
       <defs>
        <path id="MicrosoftYaHei-987a" d="M 3175 3728 
L 4131 3728 
L 4288 4516 
L 2963 4516 
L 2963 4941 
L 6281 4941 
L 6281 4516 
L 4788 4516 
L 4606 3728 
L 6006 3728 
L 6006 572 
L 5556 572 
L 5556 3303 
L 3625 3303 
L 3625 572 
L 3175 572 
L 3175 3728 
z
M 4388 2916 
L 4838 2916 
Q 4838 1434 4750 1066 
Q 4719 878 4663 709 
Q 5588 122 6344 -447 
L 6019 -853 
Q 5313 -272 4481 303 
Q 4056 -466 3038 -916 
Q 2913 -734 2731 -516 
Q 4119 72 4300 1153 
Q 4388 1497 4388 2916 
z
M 513 5116 
L 950 5116 
L 950 2728 
Q 950 191 406 -841 
Q 225 -659 44 -497 
Q 513 403 513 2441 
L 513 5116 
z
M 2225 5141 
L 2663 5141 
L 2663 -591 
L 2225 -591 
L 2225 5141 
z
M 1363 4928 
L 1800 4928 
L 1800 -303 
L 1363 -303 
L 1363 4928 
z
" transform="scale(0.015625)"/>
        <path id="MicrosoftYaHei-5e8f" d="M 1438 1966 
L 3634 1966 
Q 3053 2394 2525 2722 
L 2825 3041 
Q 3294 2756 3719 2478 
L 4850 3147 
L 1806 3147 
L 1806 3597 
L 5756 3597 
L 5756 3141 
L 4141 2191 
Q 4219 2138 4294 2084 
L 4128 1966 
L 6181 1966 
L 6181 1503 
L 5638 384 
Q 5450 484 5175 609 
L 5619 1509 
L 4119 1509 
L 4119 22 
Q 4119 -734 3400 -734 
Q 3019 -734 2463 -722 
Q 2438 -509 2388 -184 
Q 2881 -253 3250 -253 
Q 3606 -253 3606 103 
L 3606 1509 
L 1438 1509 
L 1438 1966 
z
M 2981 5147 
L 3431 5391 
Q 3675 5078 3881 4747 
L 3584 4572 
L 6244 4572 
L 6244 4116 
L 1263 4116 
L 1263 2416 
Q 1263 191 406 -872 
Q 256 -666 50 -447 
Q 738 353 738 2291 
L 738 4572 
L 3369 4572 
Q 3178 4884 2981 5147 
z
" transform="scale(0.015625)"/>
        <path id="MicrosoftYaHei-8bfb" d="M 1844 3516 
L 3750 3516 
L 3750 4141 
L 2075 4141 
L 2075 4578 
L 3750 4578 
L 3750 5303 
L 4225 5303 
L 4225 4578 
L 6013 4578 
L 6013 4141 
L 4225 4141 
L 4225 3516 
L 6138 3516 
L 6063 2291 
Q 5838 2316 5581 2322 
L 5650 3078 
L 1844 3078 
L 1844 3516 
z
M 1794 1291 
L 4063 1291 
Q 4188 1803 4156 2916 
L 4631 2916 
Q 4650 1741 4556 1291 
L 6219 1291 
L 6219 853 
L 4463 853 
Q 4419 734 4369 634 
Q 5300 134 6200 -391 
L 5888 -816 
Q 4950 -222 4125 247 
Q 3563 -434 2044 -884 
Q 1906 -666 1731 -434 
Q 3544 53 3950 853 
L 1794 853 
L 1794 1291 
z
M 2025 672 
Q 2038 384 2069 128 
Q 1381 -316 913 -691 
L 625 -278 
Q 838 -91 838 259 
L 838 2678 
L 88 2678 
L 88 3128 
L 1306 3128 
L 1306 166 
Q 1619 378 2025 672 
z
M 813 5147 
Q 1288 4672 1763 4141 
L 1331 3784 
Q 894 4334 431 4834 
L 813 5147 
z
M 2056 1997 
L 2281 2334 
Q 2869 2053 3425 1728 
L 3181 1353 
Q 2675 1678 2056 1997 
z
M 2513 2678 
L 2744 3022 
Q 3331 2734 3869 2434 
L 3619 2053 
Q 3088 2384 2513 2678 
z
" transform="scale(0.015625)"/>
       </defs>
       <use xlink:href="#MicrosoftYaHei-987a"/>
       <use xlink:href="#MicrosoftYaHei-5e8f" transform="translate(100 0)"/>
       <use xlink:href="#MicrosoftYaHei-8bfb" transform="translate(200 0)"/>
      </g>
     </g>
    </g>
    <g id="xtick_2">
     <g id="line2d_2">
      <g>
       <use xlink:href="#me19e0d79c2" x="175.066981" y="280.28" style="stroke: #000000; stroke-width: 0.8"/>
      </g>
     </g>
     <g id="text_2">
      <!-- 重读 -->
      <g transform="translate(165.066981 295.27375) scale(0.1 -0.1)">
       <defs>
        <path id="MicrosoftYaHei-91cd" d="M 113 -203 
L 2975 -203 
L 2975 259 
L 600 259 
L 600 628 
L 2975 628 
L 2975 1153 
L 1288 1153 
L 1288 928 
L 850 928 
L 850 3278 
L 2975 3278 
L 2975 3728 
L 163 3728 
L 163 4116 
L 2975 4116 
L 2975 4606 
Q 1841 4572 625 4547 
Q 588 4747 538 4972 
Q 3706 5009 5669 5141 
L 5744 4716 
Q 4631 4663 3425 4619 
L 3425 4116 
L 6263 4116 
L 6263 3728 
L 3425 3728 
L 3425 3278 
L 5569 3278 
L 5569 934 
L 5131 934 
L 5131 1153 
L 3425 1153 
L 3425 628 
L 5806 628 
L 5806 259 
L 3425 259 
L 3425 -203 
L 6263 -203 
L 6263 -591 
L 113 -591 
L 113 -203 
z
M 3425 1516 
L 5131 1516 
L 5131 2053 
L 3425 2053 
L 3425 1516 
z
M 1288 1516 
L 2975 1516 
L 2975 2053 
L 1288 2053 
L 1288 1516 
z
M 5131 2916 
L 3425 2916 
L 3425 2384 
L 5131 2384 
L 5131 2916 
z
M 1288 2384 
L 2975 2384 
L 2975 2916 
L 1288 2916 
L 1288 2384 
z
" transform="scale(0.015625)"/>
       </defs>
       <use xlink:href="#MicrosoftYaHei-91cd"/>
       <use xlink:href="#MicrosoftYaHei-8bfb" transform="translate(100 0)"/>
      </g>
     </g>
    </g>
    <g id="xtick_3">
     <g id="line2d_3">
      <g>
       <use xlink:href="#me19e0d79c2" x="245.476706" y="280.28" style="stroke: #000000; stroke-width: 0.8"/>
      </g>
     </g>
     <g id="text_3">
      <!-- 顺序写 -->
      <g transform="translate(230.476706 295.27375) scale(0.1 -0.1)">
       <defs>
        <path id="MicrosoftYaHei-5199" d="M 1125 1853 
L 1125 2303 
L 1550 4303 
L 2075 4303 
L 1922 3559 
L 5588 3559 
L 5588 3097 
L 1828 3097 
L 1669 2322 
L 5750 2322 
Q 5688 1016 5606 172 
Q 5500 -722 4550 -728 
Q 3956 -728 3194 -697 
Q 3163 -447 3106 -153 
Q 3781 -228 4456 -228 
Q 5019 -228 5100 272 
Q 5163 872 5206 1853 
L 1125 1853 
z
M 369 4959 
L 6038 4959 
L 6038 3784 
L 5525 3784 
L 5525 4491 
L 881 4491 
L 881 3784 
L 369 3784 
L 369 4959 
z
M 113 1072 
L 4725 1072 
L 4725 609 
L 113 609 
L 113 1072 
z
" transform="scale(0.015625)"/>
       </defs>
       <use xlink:href="#MicrosoftYaHei-987a"/>
       <use xlink:href="#MicrosoftYaHei-5e8f" transform="translate(100 0)"/>
       <use xlink:href="#MicrosoftYaHei-5199" transform="translate(200 0)"/>
      </g>
     </g>
    </g>
    <g id="xtick_4">
     <g id="line2d_4">
      <g>
       <use xlink:href="#me19e0d79c2" x="315.886431" y="280.28" style="stroke: #000000; stroke-width: 0.8"/>
      </g>
     </g>
     <g id="text_4">
      <!-- 重写 -->
      <g transform="translate(305.886431 295.27375) scale(0.1 -0.1)">
       <use xlink:href="#MicrosoftYaHei-91cd"/>
       <use xlink:href="#MicrosoftYaHei-5199" transform="translate(100 0)"/>
      </g>
     </g>
    </g>
    <g id="xtick_5">
     <g id="line2d_5">
      <g>
       <use xlink:href="#me19e0d79c2" x="386.296156" y="280.28" style="stroke: #000000; stroke-width: 0.8"/>
      </g>
     </g>
     <g id="text_5">
      <!-- fread -->
      <g transform="translate(373.922719 295.27375) scale(0.1 -0.1)">
       <defs>
        <path id="MicrosoftYaHei-66" d="M 2319 4594 
Q 2147 4684 1947 4684 
Q 1372 4684 1372 3972 
L 1372 3456 
L 2181 3456 
L 2181 2950 
L 1372 2950 
L 1372 0 
L 766 0 
L 766 2950 
L 175 2950 
L 175 3456 
L 766 3456 
L 766 4000 
Q 766 4556 1086 4873 
Q 1406 5191 1900 5191 
Q 2163 5191 2319 5131 
L 2319 4594 
z
" transform="scale(0.015625)"/>
        <path id="MicrosoftYaHei-72" d="M 2400 2850 
Q 2247 2959 1978 2959 
Q 1622 2959 1390 2626 
Q 1159 2294 1159 1750 
L 1159 0 
L 547 0 
L 547 3456 
L 1159 3456 
L 1159 2753 
L 1172 2753 
Q 1434 3516 2078 3516 
Q 2288 3516 2400 3469 
L 2400 2850 
z
" transform="scale(0.015625)"/>
        <path id="MicrosoftYaHei-65" d="M 3363 1572 
L 944 1572 
Q 959 1019 1246 717 
Q 1534 416 2050 416 
Q 2631 416 3116 788 
L 3116 241 
Q 2659 -81 1906 -81 
Q 1156 -81 736 394 
Q 316 869 316 1713 
Q 316 2506 777 3022 
Q 1238 3538 1922 3538 
Q 2600 3538 2981 3102 
Q 3363 2666 3363 1881 
L 3363 1572 
z
M 2750 2063 
Q 2747 2531 2528 2787 
Q 2309 3044 1913 3044 
Q 1547 3044 1280 2772 
Q 1013 2500 944 2063 
L 2750 2063 
z
" transform="scale(0.015625)"/>
        <path id="MicrosoftYaHei-61" d="M 628 3216 
Q 1144 3538 1819 3538 
Q 3069 3538 3069 2225 
L 3069 0 
L 2463 0 
L 2463 534 
L 2447 534 
Q 2088 -81 1388 -81 
Q 884 -81 587 191 
Q 291 463 291 925 
Q 291 1894 1438 2053 
L 2463 2197 
Q 2463 3044 1763 3044 
Q 1141 3044 628 2625 
L 628 3216 
z
M 1653 1625 
Q 1228 1569 1067 1412 
Q 906 1256 906 975 
Q 906 728 1081 572 
Q 1256 416 1544 416 
Q 1944 416 2203 697 
Q 2463 978 2463 1403 
L 2463 1734 
L 1653 1625 
z
" transform="scale(0.015625)"/>
        <path id="MicrosoftYaHei-64" d="M 3547 0 
L 2934 0 
L 2934 575 
L 2922 575 
Q 2544 -81 1747 -81 
Q 1091 -81 703 386 
Q 316 853 316 1647 
Q 316 2503 753 3020 
Q 1191 3538 1897 3538 
Q 2603 3538 2922 2988 
L 2934 2988 
L 2934 5116 
L 3547 5116 
L 3547 0 
z
M 2938 2056 
Q 2938 2472 2664 2751 
Q 2391 3031 1991 3031 
Q 1503 3031 1222 2667 
Q 941 2303 941 1675 
Q 941 1097 1211 761 
Q 1481 425 1931 425 
Q 2375 425 2656 754 
Q 2938 1084 2938 1575 
L 2938 2056 
z
" transform="scale(0.015625)"/>
       </defs>
       <use xlink:href="#MicrosoftYaHei-66"/>
       <use xlink:href="#MicrosoftYaHei-72" transform="translate(34.667969 0)"/>
       <use xlink:href="#MicrosoftYaHei-65" transform="translate(71.476562 0)"/>
       <use xlink:href="#MicrosoftYaHei-61" transform="translate(128.214844 0)"/>
       <use xlink:href="#MicrosoftYaHei-64" transform="translate(183.488281 0)"/>
      </g>
     </g>
    </g>
    <g id="xtick_6">
     <g id="line2d_6">
      <g>
       <use xlink:href="#me19e0d79c2" x="456.705881" y="280.28" style="stroke: #000000; stroke-width: 0.8"/>
      </g>
     </g>
     <g id="text_6">
      <!-- freread -->
      <g transform="translate(439.6551 295.27375) scale(0.1 -0.1)">
       <use xlink:href="#MicrosoftYaHei-66"/>
       <use xlink:href="#MicrosoftYaHei-72" transform="translate(34.667969 0)"/>
       <use xlink:href="#MicrosoftYaHei-65" transform="translate(71.476562 0)"/>
       <use xlink:href="#MicrosoftYaHei-72" transform="translate(128.214844 0)"/>
       <use xlink:href="#MicrosoftYaHei-65" transform="translate(165.023438 0)"/>
       <use xlink:href="#MicrosoftYaHei-61" transform="translate(221.761719 0)"/>
       <use xlink:href="#MicrosoftYaHei-64" transform="translate(277.035156 0)"/>
      </g>
     </g>
    </g>
    <g id="xtick_7">
     <g id="line2d_7">
      <g>
       <use xlink:href="#me19e0d79c2" x="527.115606" y="280.28" style="stroke: #000000; stroke-width: 0.8"/>
      </g>
     </g>
     <g id="text_7">
      <!-- 随机读 -->
      <g transform="translate(512.115606 295.27375) scale(0.1 -0.1)">
       <defs>
        <path id="MicrosoftYaHei-968f" d="M 3256 4641 
L 4128 4641 
Q 4247 4963 4331 5291 
L 4756 5172 
Q 4663 4897 4563 4641 
L 6181 4641 
L 6181 4228 
L 4397 4228 
Q 4266 3916 4122 3628 
L 5794 3628 
L 5794 791 
Q 5794 134 5156 134 
L 4569 134 
Q 4563 178 4481 597 
Q 4838 578 5056 578 
Q 5369 578 5369 891 
L 5369 1328 
L 4113 1328 
L 4113 122 
L 3688 122 
L 3688 2841 
Q 3459 2475 3213 2153 
Q 3119 2397 3019 2597 
Q 3600 3394 3963 4228 
L 3256 4228 
L 3256 4641 
z
M 2081 1809 
Q 2225 666 1531 509 
Q 1325 466 969 503 
Q 925 697 844 991 
Q 1163 916 1375 947 
Q 1756 1009 1625 1809 
Q 1531 2241 1075 2772 
Q 1325 3578 1563 4459 
L 831 4459 
L 831 -809 
L 388 -809 
L 388 4909 
L 2025 4909 
L 2025 4459 
Q 1788 3647 1550 2853 
Q 1975 2359 2081 1809 
z
M 3969 -172 
Q 4688 -203 6244 -153 
Q 6144 -409 6063 -647 
Q 4763 -672 3956 -622 
Q 3069 -584 2600 78 
Q 2275 -366 1988 -834 
L 1681 -447 
Q 1891 -131 2444 572 
L 2444 2709 
L 1938 2709 
L 1938 3134 
L 2881 3134 
L 2881 403 
Q 3263 -156 3969 -172 
z
M 4113 1716 
L 5369 1716 
L 5369 2278 
L 4113 2278 
L 4113 1716 
z
M 5369 3228 
L 4113 3228 
L 4113 2666 
L 5369 2666 
L 5369 3228 
z
M 2575 5253 
Q 2881 4491 3044 3959 
Q 2794 3878 2606 3797 
Q 2450 4378 2181 5116 
L 2575 5253 
z
" transform="scale(0.015625)"/>
        <path id="MicrosoftYaHei-673a" d="M 3375 4434 
L 3375 2366 
Q 3375 128 2256 -878 
Q 2081 -666 1888 -453 
Q 2875 416 2875 2253 
L 2875 4909 
L 5200 4909 
L 5200 209 
Q 5200 -103 5419 -103 
L 5563 -103 
Q 5763 -103 5819 247 
Q 5881 728 5906 1284 
Q 6125 1178 6381 1084 
Q 6325 466 6269 72 
Q 6169 -591 5631 -591 
L 5300 -591 
Q 4700 -591 4700 122 
L 4700 4434 
L 3375 4434 
z
M 81 1403 
Q 781 2447 1078 3653 
L 144 3653 
L 144 4078 
L 1119 4078 
L 1119 5309 
L 1569 5309 
L 1569 4078 
L 2444 4078 
L 2444 3653 
L 1569 3653 
L 1569 2616 
L 1819 2866 
Q 2300 2428 2575 2153 
L 2238 1809 
Q 1853 2234 1569 2516 
L 1569 -784 
L 1119 -784 
L 1119 2566 
Q 784 1506 288 853 
Q 188 1134 81 1403 
z
" transform="scale(0.015625)"/>
       </defs>
       <use xlink:href="#MicrosoftYaHei-968f"/>
       <use xlink:href="#MicrosoftYaHei-673a" transform="translate(100 0)"/>
       <use xlink:href="#MicrosoftYaHei-8bfb" transform="translate(200 0)"/>
      </g>
     </g>
    </g>
    <g id="xtick_8">
     <g id="line2d_8">
      <g>
       <use xlink:href="#me19e0d79c2" x="597.525331" y="280.28" style="stroke: #000000; stroke-width: 0.8"/>
      </g>
     </g>
     <g id="text_8">
      <!-- 随机写 -->
      <g transform="translate(582.525331 295.27375) scale(0.1 -0.1)">
       <use xlink:href="#MicrosoftYaHei-968f"/>
       <use xlink:href="#MicrosoftYaHei-673a" transform="translate(100 0)"/>
       <use xlink:href="#MicrosoftYaHei-5199" transform="translate(200 0)"/>
      </g>
     </g>
    </g>
   </g>
   <g id="matplotlib.axis_2">
    <g id="ytick_1">
     <g id="line2d_9">
      <path d="M 50.582587 185.741089 
L 651.6 185.741089 
" clip-path="url(#p4eb2e3c9de)" style="fill: none; stroke-dasharray: 2.96,1.28; stroke-dashoffset: 0; stroke: #b0b0b0; stroke-opacity: 0.4; stroke-width: 0.8"/>
     </g>
     <g id="line2d_10">
      <defs>
       <path id="ma246c08c83" d="M 0 0 
L -3.5 0 
" style="stroke: #000000; stroke-width: 0.8"/>
      </defs>
      <g>
       <use xlink:href="#ma246c08c83" x="50.582587" y="185.741089" style="stroke: #000000; stroke-width: 0.8"/>
      </g>
     </g>
     <g id="text_9">
      <!-- $\mathdefault{10^{4}}$ -->
      <g transform="translate(27.382587 189.737964) scale(0.1 -0.1)">
       <defs>
        <path id="MicrosoftYaHei-31" d="M 1781 0 
L 1781 4141 
Q 1638 3997 1295 3819 
Q 953 3641 663 3569 
L 663 4169 
Q 1047 4275 1484 4508 
Q 1922 4741 2156 4947 
L 2388 4947 
L 2388 0 
L 1781 0 
z
" transform="scale(0.015625)"/>
        <path id="MicrosoftYaHei-30" d="M 284 2325 
Q 284 3606 709 4264 
Q 1134 4922 1941 4922 
Q 3478 4922 3478 2441 
Q 3478 1216 3045 567 
Q 2613 -81 1831 -81 
Q 1094 -81 689 534 
Q 284 1150 284 2325 
z
M 909 2353 
Q 909 425 1888 425 
Q 2850 425 2850 2384 
Q 2850 4413 1906 4413 
Q 909 4413 909 2353 
z
" transform="scale(0.015625)"/>
        <path id="MicrosoftYaHei-34" d="M 2906 4841 
L 2906 1644 
L 3631 1644 
L 3631 1138 
L 2906 1138 
L 2906 0 
L 2313 0 
L 2313 1138 
L 53 1138 
L 53 1616 
Q 656 2294 1265 3178 
Q 1875 4063 2272 4841 
L 2906 4841 
z
M 741 1644 
L 2313 1644 
L 2313 3950 
Q 1988 3366 1616 2817 
Q 1244 2269 741 1644 
z
" transform="scale(0.015625)"/>
       </defs>
       <use xlink:href="#MicrosoftYaHei-31" transform="translate(0 0.251563)"/>
       <use xlink:href="#MicrosoftYaHei-30" transform="translate(58.642578 0.251563)"/>
       <use xlink:href="#MicrosoftYaHei-34" transform="translate(118.230156 38.051563) scale(0.7)"/>
      </g>
     </g>
    </g>
    <g id="ytick_2">
     <g id="line2d_11">
      <path d="M 50.582587 45.50879 
L 651.6 45.50879 
" clip-path="url(#p4eb2e3c9de)" style="fill: none; stroke-dasharray: 2.96,1.28; stroke-dashoffset: 0; stroke: #b0b0b0; stroke-opacity: 0.4; stroke-width: 0.8"/>
     </g>
     <g id="line2d_12">
      <g>
       <use xlink:href="#ma246c08c83" x="50.582587" y="45.50879" style="stroke: #000000; stroke-width: 0.8"/>
      </g>
     </g>
     <g id="text_10">
      <!-- $\mathdefault{10^{5}}$ -->
      <g transform="translate(27.382587 49.505665) scale(0.1 -0.1)">
       <defs>
        <path id="MicrosoftYaHei-35" d="M 3294 1494 
Q 3294 784 2823 350 
Q 2353 -84 1559 -84 
Q 878 -84 544 119 
L 544 744 
Q 1034 425 1544 425 
Q 2050 425 2361 704 
Q 2672 984 2672 1447 
Q 2672 1909 2348 2167 
Q 2025 2425 1434 2425 
Q 978 2425 613 2384 
L 791 4841 
L 3053 4841 
L 3053 4303 
L 1306 4303 
L 1206 2931 
L 1647 2950 
Q 2416 2950 2855 2567 
Q 3294 2184 3294 1494 
z
" transform="scale(0.015625)"/>
       </defs>
       <use xlink:href="#MicrosoftYaHei-31" transform="translate(0 0.251563)"/>
       <use xlink:href="#MicrosoftYaHei-30" transform="translate(58.642578 0.251563)"/>
       <use xlink:href="#MicrosoftYaHei-35" transform="translate(118.230156 38.051563) scale(0.7)"/>
      </g>
     </g>
    </g>
    <g id="ytick_3">
     <g id="line2d_13">
      <defs>
       <path id="m5832ef4d3c" d="M 0 0 
L -2 0 
" style="stroke: #000000; stroke-width: 0.6"/>
      </defs>
      <g>
       <use xlink:href="#m5832ef4d3c" x="50.582587" y="259.065577" style="stroke: #000000; stroke-width: 0.6"/>
      </g>
     </g>
    </g>
    <g id="ytick_4">
     <g id="line2d_14">
      <g>
       <use xlink:href="#m5832ef4d3c" x="50.582587" y="241.545131" style="stroke: #000000; stroke-width: 0.6"/>
      </g>
     </g>
    </g>
    <g id="ytick_5">
     <g id="line2d_15">
      <g>
       <use xlink:href="#m5832ef4d3c" x="50.582587" y="227.955217" style="stroke: #000000; stroke-width: 0.6"/>
      </g>
     </g>
    </g>
    <g id="ytick_6">
     <g id="line2d_16">
      <g>
       <use xlink:href="#m5832ef4d3c" x="50.582587" y="216.851449" style="stroke: #000000; stroke-width: 0.6"/>
      </g>
     </g>
    </g>
    <g id="ytick_7">
     <g id="line2d_17">
      <g>
       <use xlink:href="#m5832ef4d3c" x="50.582587" y="207.463347" style="stroke: #000000; stroke-width: 0.6"/>
      </g>
     </g>
    </g>
    <g id="ytick_8">
     <g id="line2d_18">
      <g>
       <use xlink:href="#m5832ef4d3c" x="50.582587" y="199.331003" style="stroke: #000000; stroke-width: 0.6"/>
      </g>
     </g>
    </g>
    <g id="ytick_9">
     <g id="line2d_19">
      <g>
       <use xlink:href="#m5832ef4d3c" x="50.582587" y="192.157767" style="stroke: #000000; stroke-width: 0.6"/>
      </g>
     </g>
    </g>
    <g id="ytick_10">
     <g id="line2d_20">
      <g>
       <use xlink:href="#m5832ef4d3c" x="50.582587" y="143.526961" style="stroke: #000000; stroke-width: 0.6"/>
      </g>
     </g>
    </g>
    <g id="ytick_11">
     <g id="line2d_21">
      <g>
       <use xlink:href="#m5832ef4d3c" x="50.582587" y="118.833279" style="stroke: #000000; stroke-width: 0.6"/>
      </g>
     </g>
    </g>
    <g id="ytick_12">
     <g id="line2d_22">
      <g>
       <use xlink:href="#m5832ef4d3c" x="50.582587" y="101.312832" style="stroke: #000000; stroke-width: 0.6"/>
      </g>
     </g>
    </g>
    <g id="ytick_13">
     <g id="line2d_23">
      <g>
       <use xlink:href="#m5832ef4d3c" x="50.582587" y="87.722919" style="stroke: #000000; stroke-width: 0.6"/>
      </g>
     </g>
    </g>
    <g id="ytick_14">
     <g id="line2d_24">
      <g>
       <use xlink:href="#m5832ef4d3c" x="50.582587" y="76.61915" style="stroke: #000000; stroke-width: 0.6"/>
      </g>
     </g>
    </g>
    <g id="ytick_15">
     <g id="line2d_25">
      <g>
       <use xlink:href="#m5832ef4d3c" x="50.582587" y="67.231048" style="stroke: #000000; stroke-width: 0.6"/>
      </g>
     </g>
    </g>
    <g id="ytick_16">
     <g id="line2d_26">
      <g>
       <use xlink:href="#m5832ef4d3c" x="50.582587" y="59.098704" style="stroke: #000000; stroke-width: 0.6"/>
      </g>
     </g>
    </g>
    <g id="ytick_17">
     <g id="line2d_27">
      <g>
       <use xlink:href="#m5832ef4d3c" x="50.582587" y="51.925469" style="stroke: #000000; stroke-width: 0.6"/>
      </g>
     </g>
    </g>
    <g id="text_11">
     <!-- 吞吐率 (KB/s，对数刻度) -->
     <g transform="translate(20.89665 209.280937) rotate(-90) scale(0.1 -0.1)">
      <defs>
       <path id="MicrosoftYaHei-541e" d="M 238 3522 
L 2547 3522 
Q 2781 3972 2925 4522 
L 706 4522 
L 706 4959 
L 5719 4959 
L 5719 4522 
L 3459 4522 
Q 3294 3963 3097 3522 
L 6169 3522 
L 6169 3084 
L 4028 3084 
Q 4844 2038 6331 1753 
Q 6150 1503 6006 1259 
Q 5569 1391 5194 1572 
L 5194 -841 
L 4706 -841 
L 4706 -428 
L 1750 -428 
L 1750 -853 
L 1263 -853 
L 1263 1594 
Q 875 1363 413 1147 
Q 256 1366 75 1572 
Q 1575 2166 2269 3084 
L 238 3084 
L 238 3522 
z
M 4706 1322 
L 1750 1322 
L 1750 -9 
L 4706 -9 
L 4706 1322 
z
M 1509 1747 
L 4869 1747 
Q 4006 2256 3522 3084 
L 2875 3084 
Q 2453 2363 1509 1747 
z
" transform="scale(0.015625)"/>
       <path id="MicrosoftYaHei-5410" d="M 519 4528 
L 2375 4528 
L 2375 503 
L 994 503 
L 994 59 
L 519 59 
L 519 4528 
z
M 2363 16 
L 4200 16 
L 4200 2878 
L 2838 2878 
L 2838 3353 
L 4200 3353 
L 4200 5247 
L 4731 5247 
L 4731 3353 
L 6069 3353 
L 6069 2878 
L 4731 2878 
L 4731 16 
L 6306 16 
L 6306 -453 
L 2363 -453 
L 2363 16 
z
M 1900 4072 
L 994 4072 
L 994 959 
L 1900 959 
L 1900 4072 
z
" transform="scale(0.015625)"/>
       <path id="MicrosoftYaHei-7387" d="M 2525 2009 
Q 2622 2016 3928 2081 
Q 3772 2300 3625 2491 
L 3963 2703 
Q 4413 2203 4794 1653 
L 4394 1403 
Q 4284 1569 4178 1725 
Q 2991 1659 2213 1597 
Q 2075 1584 1881 1541 
L 1725 1966 
Q 1913 2028 2006 2084 
Q 2534 2441 3050 2913 
Q 2597 2894 2275 2866 
Q 2144 2847 1988 2809 
L 1800 3191 
Q 1956 3247 2088 3366 
Q 2509 3722 2875 4228 
L 231 4228 
L 231 4666 
L 3031 4666 
Q 2878 4944 2744 5153 
L 3194 5372 
Q 3438 5000 3616 4666 
L 6175 4666 
L 6175 4228 
L 3053 4228 
L 3350 4072 
Q 2844 3553 2494 3247 
Q 2850 3256 3425 3269 
Q 3675 3519 3925 3797 
L 4356 3547 
Q 3363 2603 2525 2009 
z
M 144 991 
L 2994 991 
L 2994 1541 
L 3488 1541 
L 3488 991 
L 6275 991 
L 6275 553 
L 3488 553 
L 3488 -853 
L 2994 -853 
L 2994 553 
L 144 553 
L 144 991 
z
M 1719 2672 
L 1944 2303 
Q 1200 1866 425 1409 
L 163 1828 
Q 813 2134 1719 2672 
z
M 4856 2678 
Q 5750 2172 6250 1816 
L 5975 1409 
Q 5331 1909 4600 2341 
L 4856 2678 
z
M 5994 3591 
Q 5519 3178 4963 2809 
L 4644 3141 
Q 5244 3534 5638 3928 
L 5994 3591 
z
M 363 3634 
L 681 3941 
Q 1200 3528 1588 3159 
L 1238 2816 
Q 875 3197 363 3634 
z
" transform="scale(0.015625)"/>
       <path id="MicrosoftYaHei-20" transform="scale(0.015625)"/>
       <path id="MicrosoftYaHei-28" d="M 1531 -1100 
Q 478 100 478 1847 
Q 478 3594 1531 4841 
L 2072 4841 
Q 1016 3544 1016 1853 
Q 1016 166 2066 -1100 
L 1531 -1100 
z
" transform="scale(0.015625)"/>
       <path id="MicrosoftYaHei-4b" d="M 4069 0 
L 3213 0 
L 1394 2200 
Q 1300 2316 1266 2381 
L 1250 2381 
L 1250 0 
L 625 0 
L 625 4841 
L 1250 4841 
L 1250 2563 
L 1266 2563 
Q 1319 2647 1394 2741 
L 3150 4841 
L 3922 4841 
L 1891 2519 
L 4069 0 
z
" transform="scale(0.015625)"/>
       <path id="MicrosoftYaHei-42" d="M 625 0 
L 625 4841 
L 2047 4841 
Q 2684 4841 3065 4536 
Q 3447 4231 3447 3728 
Q 3447 3328 3220 3022 
Q 2994 2716 2597 2588 
L 2597 2575 
Q 3091 2519 3386 2201 
Q 3681 1884 3681 1397 
Q 3681 772 3232 386 
Q 2784 0 2084 0 
L 625 0 
z
M 1250 4294 
L 1250 2778 
L 1819 2778 
Q 2272 2778 2530 2998 
Q 2788 3219 2788 3609 
Q 2788 4294 1875 4294 
L 1250 4294 
z
M 1250 2234 
L 1250 547 
L 2000 547 
Q 2491 547 2758 773 
Q 3025 1000 3025 1403 
Q 3025 2234 1897 2234 
L 1250 2234 
z
" transform="scale(0.015625)"/>
       <path id="MicrosoftYaHei-2f" d="M 2791 4841 
L 469 -803 
L -103 -803 
L 2219 4841 
L 2791 4841 
z
" transform="scale(0.015625)"/>
       <path id="MicrosoftYaHei-73" d="M 353 747 
Q 816 413 1350 413 
Q 2066 413 2066 881 
Q 2066 1081 1909 1211 
Q 1753 1341 1275 1519 
Q 700 1750 528 1976 
Q 356 2203 356 2525 
Q 356 2984 745 3261 
Q 1134 3538 1703 3538 
Q 2144 3538 2522 3384 
L 2522 2794 
Q 2134 3044 1644 3044 
Q 1350 3044 1165 2916 
Q 981 2788 981 2578 
Q 981 2372 1114 2256 
Q 1247 2141 1703 1959 
Q 2281 1744 2484 1512 
Q 2688 1281 2688 941 
Q 2688 466 2298 192 
Q 1909 -81 1291 -81 
Q 753 -81 353 122 
L 353 747 
z
" transform="scale(0.015625)"/>
       <path id="MicrosoftYaHei-ff0c" d="M 1931 775 
L 1403 -891 
L 966 -891 
L 1350 775 
L 1931 775 
z
" transform="scale(0.015625)"/>
       <path id="MicrosoftYaHei-5bf9" d="M 694 3691 
Q 1234 2909 1741 2166 
Q 2113 3081 2213 4147 
L 250 4147 
L 250 4622 
L 2725 4622 
L 2725 4166 
Q 2553 2809 2059 1700 
Q 2569 953 3044 247 
L 2594 -53 
Q 2203 563 1803 1181 
Q 1247 163 388 -622 
Q 263 -428 81 -166 
Q 975 638 1500 1647 
Q 919 2538 319 3434 
L 694 3691 
z
M 2975 3941 
L 5056 3941 
L 5056 5278 
L 5563 5278 
L 5563 3941 
L 6325 3941 
L 6325 3466 
L 5563 3466 
L 5563 191 
Q 5563 -716 4669 -716 
Q 4388 -716 3744 -709 
Q 3713 -478 3644 -147 
Q 4263 -197 4588 -197 
Q 5056 -197 5056 278 
L 5056 3466 
L 2975 3466 
L 2975 3941 
z
M 3088 2684 
L 3494 2928 
Q 4000 2184 4388 1484 
L 3919 1216 
Q 3550 1922 3088 2684 
z
" transform="scale(0.015625)"/>
       <path id="MicrosoftYaHei-6570" d="M 4175 5303 
L 4675 5228 
Q 4544 4622 4369 4097 
L 6281 4097 
L 6281 3672 
L 5888 3672 
Q 5731 1834 5088 753 
Q 5594 66 6375 -372 
Q 6175 -647 6038 -866 
Q 5275 -372 4769 309 
Q 4194 -403 3400 -928 
Q 3263 -747 3044 -534 
Q 3919 41 4463 772 
Q 3956 1647 3794 2791 
Q 3663 2559 3519 2359 
Q 3394 2541 3206 2759 
Q 3931 3803 4175 5303 
z
M 150 1697 
L 1100 1697 
Q 1238 1934 1369 2184 
L 1819 2041 
Q 1719 1866 1619 1697 
L 3150 1697 
L 3150 1291 
Q 2913 678 2431 216 
Q 2775 53 3131 -109 
L 2856 -541 
Q 2469 -322 2050 -103 
Q 1344 -609 269 -903 
Q 169 -703 56 -466 
Q 969 -259 1600 128 
Q 1063 403 475 691 
Q 675 978 863 1284 
L 150 1284 
L 150 1697 
z
M 219 3847 
L 1656 3847 
L 1656 5247 
L 2119 5247 
L 2119 3847 
L 3319 3847 
L 3319 3434 
L 2119 3434 
L 2119 3053 
L 2306 3266 
Q 2888 2841 3281 2516 
L 2981 2166 
Q 2638 2491 2119 2897 
L 2119 2184 
L 1656 2184 
L 1656 3059 
Q 1088 2466 331 2016 
Q 213 2197 63 2397 
Q 850 2822 1506 3434 
L 219 3434 
L 219 3847 
z
M 5388 3672 
L 4219 3672 
Q 4188 3591 4150 3516 
Q 4263 2191 4775 1247 
Q 5275 2159 5388 3672 
z
M 1088 834 
Q 1531 634 2000 416 
Q 2431 784 2675 1284 
L 1375 1284 
Q 1231 1053 1088 834 
z
M 3038 5091 
L 3425 4834 
Q 3081 4384 2738 4003 
Q 2594 4128 2400 4266 
Q 2725 4647 3038 5091 
z
M 381 4816 
L 738 5059 
Q 1019 4716 1319 4322 
L 931 4047 
Q 656 4453 381 4816 
z
" transform="scale(0.015625)"/>
       <path id="MicrosoftYaHei-523b" d="M 3175 3478 
Q 2425 1747 413 272 
Q 256 491 75 672 
Q 1191 1394 1913 2294 
Q 1188 2256 569 2203 
L 438 2616 
Q 588 2741 694 2903 
Q 1053 3431 1350 4034 
L 275 4034 
L 275 4484 
L 2034 4484 
Q 1850 4800 1625 5134 
L 2056 5353 
Q 2325 4934 2488 4641 
L 2200 4484 
L 3900 4484 
L 3900 4034 
L 1903 4034 
Q 1422 3209 1050 2653 
Q 1303 2659 2206 2694 
Q 2516 3153 2731 3653 
L 3175 3478 
z
M 5475 5216 
L 5963 5216 
L 5963 28 
Q 5963 -722 5200 -728 
Q 4844 -734 4338 -722 
Q 4306 -478 4244 -209 
Q 4731 -266 5031 -266 
Q 5475 -266 5475 172 
L 5475 5216 
z
M 3750 2353 
Q 3359 1525 2806 850 
Q 3403 297 3994 -297 
L 3606 -666 
Q 3159 -141 2513 513 
Q 1756 -303 731 -878 
Q 581 -672 388 -478 
Q 2356 541 3306 2559 
L 3750 2353 
z
M 4269 4584 
L 4738 4584 
L 4738 634 
L 4269 634 
L 4269 4584 
z
" transform="scale(0.015625)"/>
       <path id="MicrosoftYaHei-5ea6" d="M 1550 1216 
L 1550 1628 
L 5469 1628 
L 5469 1222 
Q 4903 613 4147 163 
Q 5050 -200 6263 -309 
L 6019 -797 
Q 4625 -603 3644 -109 
Q 2600 -619 1250 -866 
Q 1150 -666 994 -416 
Q 2231 -222 3166 166 
Q 2497 600 2066 1216 
L 1550 1216 
z
M 1363 3541 
L 2294 3541 
L 2294 4066 
L 2769 4066 
L 2769 3541 
L 4538 3541 
L 4538 4072 
L 5013 4072 
L 5013 3541 
L 6150 3541 
L 6150 3128 
L 5013 3128 
L 5013 1928 
L 4538 1928 
L 4538 2147 
L 2769 2147 
L 2769 1922 
L 2294 1922 
L 2294 3128 
L 1363 3128 
L 1363 3541 
z
M 3025 5172 
L 3481 5391 
Q 3694 5056 3909 4634 
L 6213 4634 
L 6213 4197 
L 1225 4197 
L 1225 2316 
Q 1225 178 394 -872 
Q 238 -666 38 -447 
Q 725 397 738 2347 
L 738 4634 
L 3331 4634 
Q 3188 4909 3025 5172 
z
M 2769 2547 
L 4538 2547 
L 4538 3128 
L 2769 3128 
L 2769 2547 
z
M 4819 1216 
L 2588 1216 
Q 3031 728 3656 391 
Q 4334 741 4819 1216 
z
" transform="scale(0.015625)"/>
       <path id="MicrosoftYaHei-29" d="M 78 -1100 
Q 1131 163 1131 1853 
Q 1131 3547 72 4841 
L 616 4841 
Q 1672 3603 1672 1847 
Q 1672 91 616 -1100 
L 78 -1100 
z
" transform="scale(0.015625)"/>
      </defs>
      <use xlink:href="#MicrosoftYaHei-541e"/>
      <use xlink:href="#MicrosoftYaHei-5410" transform="translate(100 0)"/>
      <use xlink:href="#MicrosoftYaHei-7387" transform="translate(200 0)"/>
      <use xlink:href="#MicrosoftYaHei-20" transform="translate(300 0)"/>
      <use xlink:href="#MicrosoftYaHei-28" transform="translate(329.589844 0)"/>
      <use xlink:href="#MicrosoftYaHei-4b" transform="translate(362.988281 0)"/>
      <use xlink:href="#MicrosoftYaHei-42" transform="translate(426.464844 0)"/>
      <use xlink:href="#MicrosoftYaHei-2f" transform="translate(489.208984 0)"/>
      <use xlink:href="#MicrosoftYaHei-73" transform="translate(531.933594 0)"/>
      <use xlink:href="#MicrosoftYaHei-ff0c" transform="translate(578.222656 0)"/>
      <use xlink:href="#MicrosoftYaHei-5bf9" transform="translate(678.222656 0)"/>
      <use xlink:href="#MicrosoftYaHei-6570" transform="translate(778.222656 0)"/>
      <use xlink:href="#MicrosoftYaHei-523b" transform="translate(878.222656 0)"/>
      <use xlink:href="#MicrosoftYaHei-5ea6" transform="translate(978.222656 0)"/>
      <use xlink:href="#MicrosoftYaHei-29" transform="translate(1078.222656 0)"/>
     </g>
    </g>
   </g>
   <g id="patch_19">
    <path d="M 50.582587 280.28 
L 50.582587 27.11625 
" style="fill: none; stroke: #000000; stroke-width: 0.8; stroke-linejoin: miter; stroke-linecap: square"/>
   </g>
   <g id="patch_20">
    <path d="M 651.6 280.28 
L 651.6 27.11625 
" style="fill: none; stroke: #000000; stroke-width: 0.8; stroke-linejoin: miter; stroke-linecap: square"/>
   </g>
   <g id="patch_21">
    <path d="M 50.582587 280.28 
L 651.6 280.28 
" style="fill: none; stroke: #000000; stroke-width: 0.8; stroke-linejoin: miter; stroke-linecap: square"/>
   </g>
   <g id="patch_22">
    <path d="M 50.582587 27.11625 
L 651.6 27.11625 
" style="fill: none; stroke: #000000; stroke-width: 0.8; stroke-linejoin: miter; stroke-linecap: square"/>
   </g>
   <g id="text_12">
    <!-- 4943 -->
    <g style="fill: #333333" transform="translate(81.896908 218.152941) scale(0.08 -0.08)">
     <defs>
      <path id="MicrosoftYaHei-39" d="M 578 656 
Q 978 425 1441 425 
Q 2091 425 2448 937 
Q 2806 1450 2806 2394 
Q 2800 2388 2794 2394 
Q 2475 1788 1722 1788 
Q 1113 1788 713 2206 
Q 313 2625 313 3294 
Q 313 4006 750 4464 
Q 1188 4922 1884 4922 
Q 2606 4922 3012 4355 
Q 3419 3788 3419 2703 
Q 3419 1363 2894 641 
Q 2369 -81 1441 -81 
Q 931 -81 578 84 
L 578 656 
z
M 931 3372 
Q 931 2884 1181 2598 
Q 1431 2313 1872 2313 
Q 2253 2313 2512 2573 
Q 2772 2834 2772 3206 
Q 2772 3728 2514 4070 
Q 2256 4413 1834 4413 
Q 1444 4413 1187 4116 
Q 931 3819 931 3372 
z
" transform="scale(0.015625)"/>
      <path id="MicrosoftYaHei-33" d="M 447 809 
Q 944 425 1569 425 
Q 2069 425 2361 670 
Q 2653 916 2653 1328 
Q 2653 2247 1338 2247 
L 934 2247 
L 934 2753 
L 1319 2753 
Q 2484 2753 2484 3616 
Q 2484 4413 1594 4413 
Q 1084 4413 634 4069 
L 634 4647 
Q 1109 4922 1744 4922 
Q 2363 4922 2738 4598 
Q 3113 4275 3113 3759 
Q 3113 2809 2144 2538 
L 2144 2525 
Q 2669 2469 2973 2155 
Q 3278 1841 3278 1372 
Q 3278 719 2808 319 
Q 2338 -81 1556 -81 
Q 869 -81 447 175 
L 447 809 
z
" transform="scale(0.015625)"/>
     </defs>
     <use xlink:href="#MicrosoftYaHei-34"/>
     <use xlink:href="#MicrosoftYaHei-39" transform="translate(58.642578 0)"/>
     <use xlink:href="#MicrosoftYaHei-34" transform="translate(117.285156 0)"/>
     <use xlink:href="#MicrosoftYaHei-33" transform="translate(175.927734 0)"/>
    </g>
   </g>
   <g id="text_13">
    <!-- 4963 -->
    <g style="fill: #333333" transform="translate(152.306633 217.907021) scale(0.08 -0.08)">
     <defs>
      <path id="MicrosoftYaHei-36" d="M 3181 4219 
Q 2803 4413 2391 4413 
Q 1763 4413 1381 3866 
Q 1000 3319 994 2372 
L 1009 2372 
Q 1353 3038 2106 3038 
Q 2734 3038 3109 2628 
Q 3484 2219 3484 1541 
Q 3484 831 3051 375 
Q 2619 -81 1947 -81 
Q 1209 -81 789 495 
Q 369 1072 369 2131 
Q 369 3413 920 4167 
Q 1472 4922 2372 4922 
Q 2888 4922 3181 4781 
L 3181 4219 
z
M 1031 1584 
Q 1031 1106 1286 765 
Q 1541 425 1963 425 
Q 2363 425 2613 719 
Q 2863 1013 2863 1475 
Q 2863 1975 2627 2253 
Q 2391 2531 1956 2531 
Q 1544 2531 1287 2250 
Q 1031 1969 1031 1584 
z
" transform="scale(0.015625)"/>
     </defs>
     <use xlink:href="#MicrosoftYaHei-34"/>
     <use xlink:href="#MicrosoftYaHei-39" transform="translate(58.642578 0)"/>
     <use xlink:href="#MicrosoftYaHei-36" transform="translate(117.285156 0)"/>
     <use xlink:href="#MicrosoftYaHei-33" transform="translate(175.927734 0)"/>
    </g>
   </g>
   <g id="text_14">
    <!-- 2558 -->
    <g style="fill: #333333" transform="translate(222.716358 258.272009) scale(0.08 -0.08)">
     <defs>
      <path id="MicrosoftYaHei-32" d="M 2666 3572 
Q 2666 3963 2419 4186 
Q 2172 4409 1747 4409 
Q 1447 4409 1140 4256 
Q 834 4103 569 3819 
L 569 4413 
Q 806 4659 1107 4790 
Q 1409 4922 1816 4922 
Q 2472 4922 2872 4570 
Q 3272 4219 3272 3619 
Q 3272 3084 3026 2693 
Q 2781 2303 2188 1894 
Q 1581 1475 1376 1294 
Q 1172 1113 1090 947 
Q 1009 781 1009 544 
L 3416 544 
L 3416 0 
L 372 0 
L 372 241 
Q 372 659 486 951 
Q 600 1244 862 1520 
Q 1125 1797 1681 2184 
Q 2250 2584 2458 2886 
Q 2666 3188 2666 3572 
z
" transform="scale(0.015625)"/>
      <path id="MicrosoftYaHei-38" d="M 306 1350 
Q 306 1769 556 2122 
Q 806 2475 1200 2625 
Q 884 2803 700 3081 
Q 516 3359 516 3684 
Q 516 4028 692 4312 
Q 869 4597 1183 4759 
Q 1497 4922 1875 4922 
Q 2256 4922 2572 4761 
Q 2888 4600 3063 4315 
Q 3238 4031 3238 3684 
Q 3238 3366 3058 3086 
Q 2878 2806 2559 2625 
Q 2953 2472 3200 2119 
Q 3447 1766 3447 1350 
Q 3447 938 3250 611 
Q 3053 284 2690 103 
Q 2328 -78 1875 -78 
Q 1425 -78 1065 103 
Q 706 284 506 612 
Q 306 941 306 1350 
z
M 906 1378 
Q 906 947 1172 687 
Q 1438 428 1878 428 
Q 2309 428 2582 692 
Q 2856 956 2856 1378 
Q 2856 1778 2579 2051 
Q 2303 2325 1878 2325 
Q 1456 2325 1181 2058 
Q 906 1791 906 1378 
z
M 1081 3634 
Q 1081 3309 1312 3076 
Q 1544 2844 1878 2844 
Q 2206 2844 2445 3078 
Q 2684 3313 2684 3634 
Q 2684 3963 2454 4191 
Q 2225 4419 1878 4419 
Q 1534 4419 1307 4195 
Q 1081 3972 1081 3634 
z
" transform="scale(0.015625)"/>
     </defs>
     <use xlink:href="#MicrosoftYaHei-32"/>
     <use xlink:href="#MicrosoftYaHei-35" transform="translate(58.642578 0)"/>
     <use xlink:href="#MicrosoftYaHei-35" transform="translate(117.285156 0)"/>
     <use xlink:href="#MicrosoftYaHei-38" transform="translate(175.927734 0)"/>
    </g>
   </g>
   <g id="text_15">
    <!-- 8873 -->
    <g style="fill: #333333" transform="translate(293.126083 182.522737) scale(0.08 -0.08)">
     <defs>
      <path id="MicrosoftYaHei-37" d="M 3422 4463 
Q 2659 3131 2223 1998 
Q 1788 866 1684 0 
L 1047 0 
Q 1163 853 1594 1947 
Q 2025 3041 2747 4300 
L 347 4300 
L 347 4841 
L 3422 4841 
L 3422 4463 
z
" transform="scale(0.015625)"/>
     </defs>
     <use xlink:href="#MicrosoftYaHei-38"/>
     <use xlink:href="#MicrosoftYaHei-38" transform="translate(58.642578 0)"/>
     <use xlink:href="#MicrosoftYaHei-37" transform="translate(117.285156 0)"/>
     <use xlink:href="#MicrosoftYaHei-33" transform="translate(175.927734 0)"/>
    </g>
   </g>
   <g id="text_16">
    <!-- 4647 -->
    <g style="fill: #333333" transform="translate(363.535808 221.913682) scale(0.08 -0.08)">
     <use xlink:href="#MicrosoftYaHei-34"/>
     <use xlink:href="#MicrosoftYaHei-36" transform="translate(58.642578 0)"/>
     <use xlink:href="#MicrosoftYaHei-34" transform="translate(117.285156 0)"/>
     <use xlink:href="#MicrosoftYaHei-37" transform="translate(175.927734 0)"/>
    </g>
   </g>
   <g id="text_17">
    <!-- 5071 -->
    <g style="fill: #333333" transform="translate(433.945533 216.595942) scale(0.08 -0.08)">
     <use xlink:href="#MicrosoftYaHei-35"/>
     <use xlink:href="#MicrosoftYaHei-30" transform="translate(58.642578 0)"/>
     <use xlink:href="#MicrosoftYaHei-37" transform="translate(117.285156 0)"/>
     <use xlink:href="#MicrosoftYaHei-31" transform="translate(175.927734 0)"/>
    </g>
   </g>
   <g id="text_18">
    <!-- 5447 -->
    <g style="fill: #333333" transform="translate(504.355258 212.239799) scale(0.08 -0.08)">
     <use xlink:href="#MicrosoftYaHei-35"/>
     <use xlink:href="#MicrosoftYaHei-34" transform="translate(58.642578 0)"/>
     <use xlink:href="#MicrosoftYaHei-34" transform="translate(117.285156 0)"/>
     <use xlink:href="#MicrosoftYaHei-37" transform="translate(175.927734 0)"/>
    </g>
   </g>
   <g id="text_19">
    <!-- 10543 -->
    <g style="fill: #333333" transform="translate(572.419358 172.020218) scale(0.08 -0.08)">
     <use xlink:href="#MicrosoftYaHei-31"/>
     <use xlink:href="#MicrosoftYaHei-30" transform="translate(58.642578 0)"/>
     <use xlink:href="#MicrosoftYaHei-35" transform="translate(117.285156 0)"/>
     <use xlink:href="#MicrosoftYaHei-34" transform="translate(175.927734 0)"/>
     <use xlink:href="#MicrosoftYaHei-33" transform="translate(234.570312 0)"/>
    </g>
   </g>
   <g id="text_20">
    <!-- 111371 -->
    <g style="fill: #333333" transform="translate(103.961354 28.449281) scale(0.08 -0.08)">
     <use xlink:href="#MicrosoftYaHei-31"/>
     <use xlink:href="#MicrosoftYaHei-31" transform="translate(58.642578 0)"/>
     <use xlink:href="#MicrosoftYaHei-31" transform="translate(117.285156 0)"/>
     <use xlink:href="#MicrosoftYaHei-33" transform="translate(175.927734 0)"/>
     <use xlink:href="#MicrosoftYaHei-37" transform="translate(234.570312 0)"/>
     <use xlink:href="#MicrosoftYaHei-31" transform="translate(293.212891 0)"/>
    </g>
   </g>
   <g id="text_21">
    <!-- 111969 -->
    <g style="fill: #333333" transform="translate(174.371079 28.123146) scale(0.08 -0.08)">
     <use xlink:href="#MicrosoftYaHei-31"/>
     <use xlink:href="#MicrosoftYaHei-31" transform="translate(58.642578 0)"/>
     <use xlink:href="#MicrosoftYaHei-31" transform="translate(117.285156 0)"/>
     <use xlink:href="#MicrosoftYaHei-39" transform="translate(175.927734 0)"/>
     <use xlink:href="#MicrosoftYaHei-36" transform="translate(234.570312 0)"/>
     <use xlink:href="#MicrosoftYaHei-39" transform="translate(293.212891 0)"/>
    </g>
   </g>
   <g id="text_22">
    <!-- 88171 -->
    <g style="fill: #333333" transform="translate(247.126429 42.675336) scale(0.08 -0.08)">
     <use xlink:href="#MicrosoftYaHei-38"/>
     <use xlink:href="#MicrosoftYaHei-38" transform="translate(58.642578 0)"/>
     <use xlink:href="#MicrosoftYaHei-31" transform="translate(117.285156 0)"/>
     <use xlink:href="#MicrosoftYaHei-37" transform="translate(175.927734 0)"/>
     <use xlink:href="#MicrosoftYaHei-31" transform="translate(234.570312 0)"/>
    </g>
   </g>
   <g id="text_23">
    <!-- 98620 -->
    <g style="fill: #333333" transform="translate(317.536154 35.854545) scale(0.08 -0.08)">
     <use xlink:href="#MicrosoftYaHei-39"/>
     <use xlink:href="#MicrosoftYaHei-38" transform="translate(58.642578 0)"/>
     <use xlink:href="#MicrosoftYaHei-36" transform="translate(117.285156 0)"/>
     <use xlink:href="#MicrosoftYaHei-32" transform="translate(175.927734 0)"/>
     <use xlink:href="#MicrosoftYaHei-30" transform="translate(234.570312 0)"/>
    </g>
   </g>
   <g id="text_24">
    <!-- 80910 -->
    <g style="fill: #333333" transform="translate(387.945879 47.909306) scale(0.08 -0.08)">
     <use xlink:href="#MicrosoftYaHei-38"/>
     <use xlink:href="#MicrosoftYaHei-30" transform="translate(58.642578 0)"/>
     <use xlink:href="#MicrosoftYaHei-39" transform="translate(117.285156 0)"/>
     <use xlink:href="#MicrosoftYaHei-31" transform="translate(175.927734 0)"/>
     <use xlink:href="#MicrosoftYaHei-30" transform="translate(234.570312 0)"/>
    </g>
   </g>
   <g id="text_25">
    <!-- 81058 -->
    <g style="fill: #333333" transform="translate(458.355604 47.798006) scale(0.08 -0.08)">
     <use xlink:href="#MicrosoftYaHei-38"/>
     <use xlink:href="#MicrosoftYaHei-31" transform="translate(58.642578 0)"/>
     <use xlink:href="#MicrosoftYaHei-30" transform="translate(117.285156 0)"/>
     <use xlink:href="#MicrosoftYaHei-35" transform="translate(175.927734 0)"/>
     <use xlink:href="#MicrosoftYaHei-38" transform="translate(234.570312 0)"/>
    </g>
   </g>
   <g id="text_26">
    <!-- 16627 -->
    <g style="fill: #333333" transform="translate(528.765329 144.275301) scale(0.08 -0.08)">
     <use xlink:href="#MicrosoftYaHei-31"/>
     <use xlink:href="#MicrosoftYaHei-36" transform="translate(58.642578 0)"/>
     <use xlink:href="#MicrosoftYaHei-36" transform="translate(117.285156 0)"/>
     <use xlink:href="#MicrosoftYaHei-32" transform="translate(175.927734 0)"/>
     <use xlink:href="#MicrosoftYaHei-37" transform="translate(234.570312 0)"/>
    </g>
   </g>
   <g id="text_27">
    <!-- 23121 -->
    <g style="fill: #333333" transform="translate(599.175054 124.195057) scale(0.08 -0.08)">
     <use xlink:href="#MicrosoftYaHei-32"/>
     <use xlink:href="#MicrosoftYaHei-33" transform="translate(58.642578 0)"/>
     <use xlink:href="#MicrosoftYaHei-31" transform="translate(117.285156 0)"/>
     <use xlink:href="#MicrosoftYaHei-32" transform="translate(175.927734 0)"/>
     <use xlink:href="#MicrosoftYaHei-31" transform="translate(234.570312 0)"/>
    </g>
   </g>
   <g id="text_28">
    <!-- Page Cache 对 iozone 吞吐的影响（64 MB 文件，4 KB 记录） -->
    <g transform="translate(180.394106 21.11625) scale(0.12 -0.12)">
     <defs>
      <path id="MicrosoftYaHei-50" d="M 1250 1809 
L 1250 0 
L 625 0 
L 625 4841 
L 2000 4841 
Q 2784 4841 3217 4462 
Q 3650 4084 3650 3381 
Q 3650 2669 3144 2226 
Q 2638 1784 1878 1809 
L 1250 1809 
z
M 1250 4291 
L 1250 2359 
L 1828 2359 
Q 2400 2359 2697 2617 
Q 2994 2875 2994 3356 
Q 2994 4291 1888 4291 
L 1250 4291 
z
" transform="scale(0.015625)"/>
      <path id="MicrosoftYaHei-67" d="M 3547 291 
Q 3547 -1628 1684 -1628 
Q 1041 -1628 566 -1388 
L 566 -797 
Q 1144 -1119 1675 -1119 
Q 2934 -1119 2934 206 
L 2934 572 
L 2922 572 
Q 2528 -81 1747 -81 
Q 1097 -81 706 384 
Q 316 850 316 1619 
Q 316 2503 747 3020 
Q 1178 3538 1897 3538 
Q 2588 3538 2922 2988 
L 2934 2988 
L 2934 3456 
L 3547 3456 
L 3547 291 
z
M 2934 2056 
Q 2938 2456 2666 2743 
Q 2394 3031 1997 3031 
Q 1497 3031 1219 2664 
Q 941 2297 941 1656 
Q 941 1106 1209 765 
Q 1478 425 1922 425 
Q 2369 425 2653 750 
Q 2938 1075 2934 1575 
L 2934 2056 
z
" transform="scale(0.015625)"/>
      <path id="MicrosoftYaHei-43" d="M 3938 200 
Q 3403 -81 2597 -81 
Q 1556 -81 934 580 
Q 313 1241 313 2328 
Q 313 3497 1013 4209 
Q 1713 4922 2791 4922 
Q 3484 4922 3938 4725 
L 3938 4072 
Q 3419 4359 2797 4359 
Q 1988 4359 1478 3820 
Q 969 3281 969 2366 
Q 969 1497 1444 986 
Q 1919 475 2688 475 
Q 3406 475 3938 800 
L 3938 200 
z
" transform="scale(0.015625)"/>
      <path id="MicrosoftYaHei-63" d="M 2934 156 
Q 2538 -81 1978 -81 
Q 1228 -81 772 400 
Q 316 881 316 1647 
Q 316 2497 808 3017 
Q 1300 3538 2125 3538 
Q 2600 3538 2938 3369 
L 2938 2763 
Q 2572 3031 2125 3031 
Q 1600 3031 1270 2667 
Q 941 2303 941 1697 
Q 941 1100 1252 762 
Q 1563 425 2091 425 
Q 2538 425 2934 719 
L 2934 156 
z
" transform="scale(0.015625)"/>
      <path id="MicrosoftYaHei-68" d="M 3466 0 
L 2856 0 
L 2856 1988 
Q 2856 3031 2081 3031 
Q 1684 3031 1421 2726 
Q 1159 2422 1159 1959 
L 1159 0 
L 547 0 
L 547 5116 
L 1159 5116 
L 1159 2888 
L 1172 2888 
Q 1569 3538 2300 3538 
Q 3466 3538 3466 2128 
L 3466 0 
z
" transform="scale(0.015625)"/>
      <path id="MicrosoftYaHei-69" d="M 472 4675 
Q 472 4838 583 4948 
Q 694 5059 856 5059 
Q 1022 5059 1136 4950 
Q 1250 4841 1250 4675 
Q 1250 4513 1136 4405 
Q 1022 4297 856 4297 
Q 691 4297 581 4405 
Q 472 4513 472 4675 
z
M 544 0 
L 544 3456 
L 1156 3456 
L 1156 0 
L 544 0 
z
" transform="scale(0.015625)"/>
      <path id="MicrosoftYaHei-6f" d="M 316 1691 
Q 316 2547 794 3042 
Q 1272 3538 2091 3538 
Q 2869 3538 3311 3061 
Q 3753 2584 3753 1744 
Q 3753 925 3281 422 
Q 2809 -81 2016 -81 
Q 1241 -81 778 406 
Q 316 894 316 1691 
z
M 941 1709 
Q 941 1113 1242 769 
Q 1544 425 2053 425 
Q 2578 425 2853 761 
Q 3128 1097 3128 1725 
Q 3128 2356 2853 2693 
Q 2578 3031 2053 3031 
Q 1538 3031 1239 2678 
Q 941 2325 941 1709 
z
" transform="scale(0.015625)"/>
      <path id="MicrosoftYaHei-7a" d="M 2978 0 
L 109 0 
L 109 203 
L 2119 2950 
L 297 2950 
L 297 3456 
L 2991 3456 
L 2991 3256 
L 994 506 
L 2978 506 
L 2978 0 
z
" transform="scale(0.015625)"/>
      <path id="MicrosoftYaHei-6e" d="M 3469 0 
L 2859 0 
L 2859 1966 
Q 2859 3031 2081 3031 
Q 1678 3031 1418 2731 
Q 1159 2431 1159 1972 
L 1159 0 
L 547 0 
L 547 3456 
L 1159 3456 
L 1159 2884 
L 1172 2884 
Q 1563 3538 2306 3538 
Q 2875 3538 3172 3173 
Q 3469 2809 3469 2113 
L 3469 0 
z
" transform="scale(0.015625)"/>
      <path id="MicrosoftYaHei-7684" d="M 356 4284 
L 988 4284 
Q 1219 4853 1369 5322 
L 1894 5172 
Q 1697 4694 1513 4284 
L 2763 4284 
L 2763 -691 
L 2263 -691 
L 2263 -203 
L 856 -203 
L 856 -734 
L 356 -734 
L 356 4284 
z
M 2856 3003 
Q 3444 3934 3850 5322 
L 4375 5191 
Q 4216 4719 4050 4303 
L 6063 4303 
Q 5988 1091 5938 259 
Q 5894 -722 4906 -722 
Q 4338 -722 3750 -684 
Q 3713 -372 3650 -128 
L 3669 -128 
Q 4294 -216 4813 -216 
Q 5381 -216 5425 384 
Q 5494 1316 5525 3834 
L 3850 3834 
Q 3578 3231 3288 2772 
Q 3119 2891 2856 3003 
z
M 856 266 
L 2263 266 
L 2263 1847 
L 856 1847 
L 856 266 
z
M 2263 3816 
L 856 3816 
L 856 2297 
L 2263 2297 
L 2263 3816 
z
M 3406 2578 
L 3788 2859 
Q 4481 2041 4894 1441 
L 4431 1116 
Q 3988 1841 3406 2578 
z
" transform="scale(0.015625)"/>
      <path id="MicrosoftYaHei-5f71" d="M 119 2734 
L 1803 2734 
Q 1713 2903 1613 3053 
L 1897 3191 
L 875 3191 
L 875 3028 
L 450 3028 
L 450 5041 
L 3563 5041 
L 3563 3028 
L 3138 3028 
L 3138 3191 
L 2047 3191 
Q 2188 2972 2303 2734 
L 3969 2734 
L 3969 2372 
L 119 2372 
L 119 2734 
z
M 550 2016 
L 3475 2016 
L 3475 703 
L 3050 703 
L 3050 797 
L 2275 797 
L 2275 -72 
Q 2275 -791 1625 -791 
Q 1406 -791 1050 -784 
Q 1025 -559 969 -341 
Q 1288 -384 1513 -384 
Q 1844 -384 1844 -22 
L 1844 797 
L 975 797 
L 975 703 
L 550 703 
L 550 2016 
z
M 3600 -497 
Q 5038 378 5913 1734 
L 6300 1447 
Q 5319 -9 3931 -866 
Q 3763 -634 3600 -497 
z
M 3825 1784 
Q 4913 2522 5756 3634 
L 6144 3328 
Q 5200 2178 4150 1409 
Q 3981 1628 3825 1784 
z
M 3756 3616 
Q 4681 4203 5469 5222 
L 5856 4934 
Q 5075 3928 4088 3259 
Q 3906 3478 3756 3616 
z
M 3050 1678 
L 975 1678 
L 975 1134 
L 3050 1134 
L 3050 1678 
z
M 3138 4691 
L 875 4691 
L 875 4278 
L 3138 4278 
L 3138 4691 
z
M 875 3541 
L 3138 3541 
L 3138 3953 
L 875 3953 
L 875 3541 
z
M 81 -347 
Q 525 22 1019 609 
L 1381 359 
Q 838 -278 400 -634 
L 81 -347 
z
M 2575 372 
L 2869 641 
Q 3225 359 3675 -47 
L 3350 -366 
Q 3019 3 2575 372 
z
" transform="scale(0.015625)"/>
      <path id="MicrosoftYaHei-54cd" d="M 2425 4441 
L 3525 4441 
Q 3700 4884 3838 5316 
L 4344 5197 
Q 4181 4803 4019 4441 
L 5875 4441 
L 5875 -59 
Q 5875 -766 5225 -772 
Q 4900 -778 4444 -772 
Q 4413 -547 4356 -284 
Q 4781 -322 5100 -322 
Q 5438 -322 5438 72 
L 5438 4016 
L 2863 4016 
L 2863 -859 
L 2425 -859 
L 2425 4441 
z
M 413 4484 
L 1925 4484 
L 1925 166 
L 1488 166 
L 1488 641 
L 850 641 
L 850 72 
L 413 72 
L 413 4484 
z
M 3325 3191 
L 4975 3191 
L 4975 741 
L 3750 741 
L 3750 466 
L 3325 466 
L 3325 3191 
z
M 1488 4053 
L 850 4053 
L 850 1072 
L 1488 1072 
L 1488 4053 
z
M 4550 2803 
L 3750 2803 
L 3750 1128 
L 4550 1128 
L 4550 2803 
z
" transform="scale(0.015625)"/>
      <path id="MicrosoftYaHei-ff08" d="M 5288 -1100 
Q 4172 119 4172 1850 
Q 4172 3603 5288 4838 
L 5825 4838 
Q 4716 3572 4716 1856 
Q 4716 166 5819 -1100 
L 5288 -1100 
z
" transform="scale(0.015625)"/>
      <path id="MicrosoftYaHei-4d" d="M 5003 0 
L 5003 3206 
Q 5003 3603 5050 4159 
L 5034 4159 
Q 4953 3809 4891 3672 
L 3294 0 
L 2947 0 
L 1353 3644 
Q 1297 3769 1209 4159 
L 1191 4159 
Q 1222 3822 1222 3178 
L 1222 0 
L 625 0 
L 625 4841 
L 1472 4841 
L 2900 1522 
Q 3063 1141 3116 928 
L 3138 928 
Q 3300 1375 3366 1534 
L 4819 4841 
L 5625 4841 
L 5625 0 
L 5003 0 
z
" transform="scale(0.015625)"/>
      <path id="MicrosoftYaHei-6587" d="M 194 4241 
L 3194 4241 
Q 2878 4841 2700 5116 
L 3181 5341 
Q 3356 5072 3706 4466 
L 3256 4241 
L 6194 4241 
L 6194 3778 
L 5041 3778 
Q 4706 1994 3603 909 
Q 4434 303 6244 -178 
Q 5956 -503 5806 -722 
Q 4044 -113 3203 553 
Q 2359 -103 506 -772 
Q 344 -553 131 -284 
Q 1919 253 2822 913 
Q 1681 2131 1372 3778 
L 194 3778 
L 194 4241 
z
M 4506 3778 
L 1872 3778 
Q 2153 2241 3216 1238 
Q 4231 2181 4506 3778 
z
" transform="scale(0.015625)"/>
      <path id="MicrosoftYaHei-4ef6" d="M 1950 1816 
L 4119 1816 
L 4119 3397 
L 2928 3397 
Q 2675 2725 2375 2197 
Q 2194 2372 1963 2528 
Q 2556 3572 2838 4859 
L 3344 4716 
Q 3222 4250 3081 3834 
L 4119 3834 
L 4119 5284 
L 4619 5284 
L 4619 3834 
L 6113 3834 
L 6113 3397 
L 4619 3397 
L 4619 1816 
L 6319 1816 
L 6319 1378 
L 4619 1378 
L 4619 -809 
L 4119 -809 
L 4119 1378 
L 1950 1378 
L 1950 1816 
z
M 69 2191 
Q 931 3466 1456 5278 
L 1969 5128 
Q 1738 4400 1469 3763 
L 1469 -816 
L 975 -816 
L 975 2731 
Q 656 2141 294 1647 
Q 200 1916 69 2191 
z
" transform="scale(0.015625)"/>
      <path id="MicrosoftYaHei-8bb0" d="M 2975 2466 
L 2975 341 
Q 2975 -128 3425 -128 
L 5019 -128 
Q 5588 -128 5663 291 
Q 5731 628 5794 1266 
Q 6063 1159 6319 1084 
Q 6238 503 6138 72 
Q 6000 -603 5125 -603 
L 3250 -603 
Q 2488 -603 2488 197 
L 2488 2928 
L 5375 2928 
L 5375 4534 
L 2225 4534 
L 2225 4997 
L 5863 4997 
L 5863 2166 
L 5375 2166 
L 5375 2466 
L 2975 2466 
z
M 2206 716 
Q 2225 391 2250 178 
Q 1438 -366 994 -722 
L 700 -303 
Q 913 -141 913 259 
L 913 2703 
L 100 2703 
L 100 3166 
L 1400 3166 
L 1400 147 
Q 1775 403 2206 716 
z
M 806 5222 
Q 1488 4522 1794 4184 
L 1356 3816 
Q 963 4334 425 4891 
L 806 5222 
z
" transform="scale(0.015625)"/>
      <path id="MicrosoftYaHei-5f55" d="M 5450 2172 
L 5813 1759 
Q 5281 1409 4494 934 
Q 5225 366 6319 116 
Q 6125 -153 5975 -397 
Q 4275 122 3475 1366 
L 3475 9 
Q 3475 -747 2700 -747 
Q 2331 -747 1825 -734 
Q 1788 -503 1738 -197 
Q 2188 -247 2544 -253 
Q 2988 -253 2988 147 
L 2988 2384 
L 175 2384 
L 175 2803 
L 4838 2803 
L 4838 3472 
L 963 3472 
L 963 3872 
L 4838 3872 
L 4838 4534 
L 844 4534 
L 844 4953 
L 5306 4953 
L 5306 2803 
L 6275 2803 
L 6275 2384 
L 3475 2384 
L 3475 2241 
Q 3731 1678 4138 1253 
Q 4863 1722 5450 2172 
z
M 88 241 
Q 1313 622 2744 1147 
Q 2794 872 2838 672 
Q 1594 241 281 -234 
L 88 241 
z
M 956 2216 
Q 1556 1853 2175 1428 
L 1869 1016 
Q 1300 1447 669 1853 
L 956 2216 
z
" transform="scale(0.015625)"/>
      <path id="MicrosoftYaHei-ff09" d="M 1113 -1100 
L 575 -1100 
Q 1684 163 1684 1888 
Q 1684 3581 581 4838 
L 1113 4838 
Q 2222 3628 2222 1888 
Q 2222 128 1113 -1100 
z
" transform="scale(0.015625)"/>
     </defs>
     <use xlink:href="#MicrosoftYaHei-50"/>
     <use xlink:href="#MicrosoftYaHei-61" transform="translate(57.681641 0)"/>
     <use xlink:href="#MicrosoftYaHei-67" transform="translate(112.955078 0)"/>
     <use xlink:href="#MicrosoftYaHei-65" transform="translate(176.919922 0)"/>
     <use xlink:href="#MicrosoftYaHei-20" transform="translate(233.658203 0)"/>
     <use xlink:href="#MicrosoftYaHei-43" transform="translate(263.248047 0)"/>
     <use xlink:href="#MicrosoftYaHei-61" transform="translate(330.142578 0)"/>
     <use xlink:href="#MicrosoftYaHei-63" transform="translate(385.416016 0)"/>
     <use xlink:href="#MicrosoftYaHei-68" transform="translate(435.5625 0)"/>
     <use xlink:href="#MicrosoftYaHei-65" transform="translate(497.134766 0)"/>
     <use xlink:href="#MicrosoftYaHei-20" transform="translate(553.873047 0)"/>
     <use xlink:href="#MicrosoftYaHei-5bf9" transform="translate(583.462891 0)"/>
     <use xlink:href="#MicrosoftYaHei-20" transform="translate(683.462891 0)"/>
     <use xlink:href="#MicrosoftYaHei-69" transform="translate(713.052734 0)"/>
     <use xlink:href="#MicrosoftYaHei-6f" transform="translate(739.664062 0)"/>
     <use xlink:href="#MicrosoftYaHei-7a" transform="translate(803.238281 0)"/>
     <use xlink:href="#MicrosoftYaHei-6f" transform="translate(852.408203 0)"/>
     <use xlink:href="#MicrosoftYaHei-6e" transform="translate(915.982422 0)"/>
     <use xlink:href="#MicrosoftYaHei-65" transform="translate(977.603516 0)"/>
     <use xlink:href="#MicrosoftYaHei-20" transform="translate(1034.341797 0)"/>
     <use xlink:href="#MicrosoftYaHei-541e" transform="translate(1063.931641 0)"/>
     <use xlink:href="#MicrosoftYaHei-5410" transform="translate(1163.931641 0)"/>
     <use xlink:href="#MicrosoftYaHei-7684" transform="translate(1263.931641 0)"/>
     <use xlink:href="#MicrosoftYaHei-5f71" transform="translate(1363.931641 0)"/>
     <use xlink:href="#MicrosoftYaHei-54cd" transform="translate(1463.931641 0)"/>
     <use xlink:href="#MicrosoftYaHei-ff08" transform="translate(1563.931641 0)"/>
     <use xlink:href="#MicrosoftYaHei-36" transform="translate(1663.931641 0)"/>
     <use xlink:href="#MicrosoftYaHei-34" transform="translate(1722.574219 0)"/>
     <use xlink:href="#MicrosoftYaHei-20" transform="translate(1781.216797 0)"/>
     <use xlink:href="#MicrosoftYaHei-4d" transform="translate(1810.806641 0)"/>
     <use xlink:href="#MicrosoftYaHei-42" transform="translate(1908.511719 0)"/>
     <use xlink:href="#MicrosoftYaHei-20" transform="translate(1971.255859 0)"/>
     <use xlink:href="#MicrosoftYaHei-6587" transform="translate(2000.845703 0)"/>
     <use xlink:href="#MicrosoftYaHei-4ef6" transform="translate(2100.845703 0)"/>
     <use xlink:href="#MicrosoftYaHei-ff0c" transform="translate(2200.845703 0)"/>
     <use xlink:href="#MicrosoftYaHei-34" transform="translate(2300.845703 0)"/>
     <use xlink:href="#MicrosoftYaHei-20" transform="translate(2359.488281 0)"/>
     <use xlink:href="#MicrosoftYaHei-4b" transform="translate(2389.078125 0)"/>
     <use xlink:href="#MicrosoftYaHei-42" transform="translate(2452.554688 0)"/>
     <use xlink:href="#MicrosoftYaHei-20" transform="translate(2515.298828 0)"/>
     <use xlink:href="#MicrosoftYaHei-8bb0" transform="translate(2544.888672 0)"/>
     <use xlink:href="#MicrosoftYaHei-5f55" transform="translate(2644.888672 0)"/>
     <use xlink:href="#MicrosoftYaHei-ff09" transform="translate(2744.888672 0)"/>
    </g>
   </g>
   <g id="legend_1">
    <g id="patch_23">
     <path d="M 57.582587 66.9725 
L 167.931025 66.9725 
Q 169.931025 66.9725 169.931025 64.9725 
L 169.931025 34.11625 
Q 169.931025 32.11625 167.931025 32.11625 
L 57.582587 32.11625 
Q 55.582587 32.11625 55.582587 34.11625 
L 55.582587 64.9725 
Q 55.582587 66.9725 57.582587 66.9725 
z
" style="fill: #ffffff; opacity: 0.9; stroke: #cccccc; stroke-linejoin: miter"/>
    </g>
    <g id="patch_24">
     <path d="M 59.582587 44.461562 
L 79.582587 44.461562 
L 79.582587 37.461562 
L 59.582587 37.461562 
z
" style="fill: #2e6fb0"/>
    </g>
    <g id="text_29">
     <!-- 关闭 Page Cache -->
     <g transform="translate(87.582587 44.461562) scale(0.1 -0.1)">
      <defs>
       <path id="MicrosoftYaHei-5173" d="M 131 -397 
Q 2372 400 2803 1897 
L 256 1897 
L 256 2372 
L 2894 2372 
Q 2906 2506 2906 3566 
L 625 3566 
L 625 4041 
L 2125 4041 
Q 1588 4631 1206 4991 
L 1569 5316 
Q 2106 4834 2550 4397 
L 2150 4041 
L 3641 4041 
Q 4125 4725 4494 5322 
L 5013 5034 
Q 4581 4484 4219 4041 
L 5800 4041 
L 5800 3566 
L 3438 3566 
Q 3438 2647 3428 2372 
L 6169 2372 
L 6169 1897 
L 3516 1897 
Q 4250 325 6281 -259 
Q 6025 -522 5819 -766 
Q 3894 -16 3203 1491 
Q 2694 28 494 -847 
Q 331 -634 131 -397 
z
" transform="scale(0.015625)"/>
       <path id="MicrosoftYaHei-95ed" d="M 1406 3253 
L 3563 3253 
L 3563 4172 
L 4025 4172 
L 4025 3253 
L 5138 3253 
L 5138 2803 
L 4025 2803 
L 4025 434 
Q 4025 -253 3319 -253 
Q 3063 -253 2500 -241 
Q 2463 47 2425 241 
Q 2894 209 3175 203 
Q 3556 203 3563 603 
L 3563 2278 
Q 2731 1172 1531 303 
Q 1388 491 1194 678 
Q 2541 1609 3416 2803 
L 1406 2803 
L 1406 3253 
z
M 2388 4478 
L 2388 4947 
L 6013 4947 
L 6013 116 
Q 6013 -791 5175 -791 
Q 4756 -791 4169 -778 
Q 4144 -591 4069 -272 
Q 4588 -309 5056 -309 
Q 5525 -309 5525 141 
L 5525 4478 
L 2388 4478 
z
M 419 4134 
L 906 4134 
L 906 -791 
L 419 -791 
L 419 4134 
z
M 744 5028 
L 1100 5341 
Q 1625 4853 2050 4391 
L 1644 4041 
Q 1206 4559 744 5028 
z
" transform="scale(0.015625)"/>
      </defs>
      <use xlink:href="#MicrosoftYaHei-5173"/>
      <use xlink:href="#MicrosoftYaHei-95ed" transform="translate(100 0)"/>
      <use xlink:href="#MicrosoftYaHei-20" transform="translate(200 0)"/>
      <use xlink:href="#MicrosoftYaHei-50" transform="translate(229.589844 0)"/>
      <use xlink:href="#MicrosoftYaHei-61" transform="translate(287.271484 0)"/>
      <use xlink:href="#MicrosoftYaHei-67" transform="translate(342.544922 0)"/>
      <use xlink:href="#MicrosoftYaHei-65" transform="translate(406.509766 0)"/>
      <use xlink:href="#MicrosoftYaHei-20" transform="translate(463.248047 0)"/>
      <use xlink:href="#MicrosoftYaHei-43" transform="translate(492.837891 0)"/>
      <use xlink:href="#MicrosoftYaHei-61" transform="translate(559.732422 0)"/>
      <use xlink:href="#MicrosoftYaHei-63" transform="translate(615.005859 0)"/>
      <use xlink:href="#MicrosoftYaHei-68" transform="translate(665.152344 0)"/>
      <use xlink:href="#MicrosoftYaHei-65" transform="translate(726.724609 0)"/>
     </g>
    </g>
    <g id="patch_25">
     <path d="M 59.582587 60.42875 
L 79.582587 60.42875 
L 79.582587 53.42875 
L 59.582587 53.42875 
z
" style="fill: #2e9d5b"/>
    </g>
    <g id="text_30">
     <!-- 启用 Page Cache -->
     <g transform="translate(87.582587 60.42875) scale(0.1 -0.1)">
      <defs>
       <path id="MicrosoftYaHei-542f" d="M 2781 5166 
L 3225 5391 
Q 3469 5006 3691 4603 
L 5938 4603 
L 5938 2516 
L 5450 2516 
L 5450 2747 
L 1288 2747 
L 1288 2728 
Q 1288 209 413 -878 
Q 244 -678 50 -472 
Q 788 459 788 2728 
L 788 4603 
L 3119 4603 
Q 2966 4881 2781 5166 
z
M 5869 1822 
L 5869 -847 
L 5381 -847 
L 5381 -441 
L 2225 -441 
L 2225 -847 
L 1738 -847 
L 1738 1822 
L 5869 1822 
z
M 5381 1384 
L 2225 1384 
L 2225 -9 
L 5381 -9 
L 5381 1384 
z
M 1288 4166 
L 1288 3184 
L 5450 3184 
L 5450 4166 
L 1288 4166 
z
" transform="scale(0.015625)"/>
       <path id="MicrosoftYaHei-7528" d="M 3088 -734 
L 3088 1253 
L 1269 1253 
Q 1163 -47 513 -903 
Q 350 -697 144 -472 
Q 550 103 694 803 
Q 831 1478 831 2716 
L 831 4947 
L 5925 4947 
L 5925 -22 
Q 5925 -766 5219 -766 
Q 4788 -766 4250 -747 
Q 4219 -541 4156 -228 
Q 4700 -266 5038 -266 
Q 5425 -266 5425 103 
L 5425 1253 
L 3588 1253 
L 3588 -734 
L 3088 -734 
z
M 3588 1703 
L 5425 1703 
L 5425 2872 
L 3588 2872 
L 3588 1703 
z
M 5425 4484 
L 3588 4484 
L 3588 3322 
L 5425 3322 
L 5425 4484 
z
M 1303 1703 
L 3088 1703 
L 3088 2872 
L 1331 2872 
Q 1350 2266 1303 1703 
z
M 1331 4484 
L 1331 3322 
L 3088 3322 
L 3088 4484 
L 1331 4484 
z
" transform="scale(0.015625)"/>
      </defs>
      <use xlink:href="#MicrosoftYaHei-542f"/>
      <use xlink:href="#MicrosoftYaHei-7528" transform="translate(100 0)"/>
      <use xlink:href="#MicrosoftYaHei-20" transform="translate(200 0)"/>
      <use xlink:href="#MicrosoftYaHei-50" transform="translate(229.589844 0)"/>
      <use xlink:href="#MicrosoftYaHei-61" transform="translate(287.271484 0)"/>
      <use xlink:href="#MicrosoftYaHei-67" transform="translate(342.544922 0)"/>
      <use xlink:href="#MicrosoftYaHei-65" transform="translate(406.509766 0)"/>
      <use xlink:href="#MicrosoftYaHei-20" transform="translate(463.248047 0)"/>
      <use xlink:href="#MicrosoftYaHei-43" transform="translate(492.837891 0)"/>
      <use xlink:href="#MicrosoftYaHei-61" transform="translate(559.732422 0)"/>
      <use xlink:href="#MicrosoftYaHei-63" transform="translate(615.005859 0)"/>
      <use xlink:href="#MicrosoftYaHei-68" transform="translate(665.152344 0)"/>
      <use xlink:href="#MicrosoftYaHei-65" transform="translate(726.724609 0)"/>
     </g>
    </g>
   </g>
  </g>
 </g>
 <defs>
  <clipPath id="p4eb2e3c9de">
   <rect x="50.582587" y="27.11625" width="601.017413" height="253.16375"/>
  </clipPath>
 </defs>
</svg>
