<?xml version="1.0" encoding="utf-8" standalone="no"?>
<!DOCTYPE svg PUBLIC "-//W3C//DTD SVG 1.1//EN"
  "http://www.w3.org/Graphics/SVG/1.1/DTD/svg11.dtd">
<svg xmlns:xlink="http://www.w3.org/1999/xlink" width="547.2pt" height="302.4pt" viewBox="0 0 547.2 302.4" xmlns="http://www.w3.org/2000/svg" version="1.1">
 <metadata>
  <rdf:RDF xmlns:dc="http://purl.org/dc/elements/1.1/" xmlns:cc="http://creativecommons.org/ns#" xmlns:rdf="http://www.w3.org/1999/02/22-rdf-syntax-ns#">
   <cc:Work>
    <dc:type rdf:resource="http://purl.org/dc/dcmitype/StillImage"/>
    <dc:date>2026-06-30T05:42:50.289414</dc:date>
    <dc:format>image/svg+xml</dc:format>
    <dc:creator>
     <cc:Agent>
      <dc:title>Matplotlib v3.10.3, https://matplotlib.org/</dc:title>
     </cc:Agent>
    </dc:creator>
   </cc:Work>
  </rdf:RDF>
 </metadata>
 <defs>
  <style type="text/css">*{stroke-linejoin: round; stroke-linecap: butt}</style>
 </defs>
 <g id="figure_1">
  <g id="patch_1">
   <path d="M 0 302.4 
L 547.2 302.4 
L 547.2 0 
L 0 0 
z
" style="fill: #ffffff"/>
  </g>
  <g id="axes_1">
   <g id="patch_2">
    <path d="M 47.45 257.56 
L 536.4 257.56 
L 536.4 26.88 
L 47.45 26.88 
z
" style="fill: #ffffff"/>
   </g>
   <g id="matplotlib.axis_1">
    <g id="xtick_1">
     <g id="line2d_1">
      <defs>
       <path id="m1a93d17493" d="M 0 0 
L 0 3.5 
" style="stroke: #000000; stroke-width: 0.8"/>
      </defs>
      <g>
       <use xlink:href="#m1a93d17493" x="69.675" y="257.56" style="stroke: #000000; stroke-width: 0.8"/>
      </g>
     </g>
     <g id="text_1">
      <!-- 1 -->
      <g transform="translate(66.742969 272.55375) scale(0.1 -0.1)">
       <defs>
        <path id="MicrosoftYaHei-31" d="M 1781 0 
L 1781 4141 
Q 1638 3997 1295 3819 
Q 953 3641 663 3569 
L 663 4169 
Q 1047 4275 1484 4508 
Q 1922 4741 2156 4947 
L 2388 4947 
L 2388 0 
L 1781 0 
z
" transform="scale(0.015625)"/>
       </defs>
       <use xlink:href="#MicrosoftYaHei-31"/>
      </g>
     </g>
    </g>
    <g id="xtick_2">
     <g id="line2d_2">
      <g>
       <use xlink:href="#m1a93d17493" x="180.8" y="257.56" style="stroke: #000000; stroke-width: 0.8"/>
      </g>
     </g>
     <g id="text_2">
      <!-- 2 -->
      <g transform="translate(177.867969 272.55375) scale(0.1 -0.1)">
       <defs>
        <path id="MicrosoftYaHei-32" d="M 2666 3572 
Q 2666 3963 2419 4186 
Q 2172 4409 1747 4409 
Q 1447 4409 1140 4256 
Q 834 4103 569 3819 
L 569 4413 
Q 806 4659 1107 4790 
Q 1409 4922 1816 4922 
Q 2472 4922 2872 4570 
Q 3272 4219 3272 3619 
Q 3272 3084 3026 2693 
Q 2781 2303 2188 1894 
Q 1581 1475 1376 1294 
Q 1172 1113 1090 947 
Q 1009 781 1009 544 
L 3416 544 
L 3416 0 
L 372 0 
L 372 241 
Q 372 659 486 951 
Q 600 1244 862 1520 
Q 1125 1797 1681 2184 
Q 2250 2584 2458 2886 
Q 2666 3188 2666 3572 
z
" transform="scale(0.015625)"/>
       </defs>
       <use xlink:href="#MicrosoftYaHei-32"/>
      </g>
     </g>
    </g>
    <g id="xtick_3">
     <g id="line2d_3">
      <g>
       <use xlink:href="#m1a93d17493" x="291.925" y="257.56" style="stroke: #000000; stroke-width: 0.8"/>
      </g>
     </g>
     <g id="text_3">
      <!-- 3 -->
      <g transform="translate(288.992969 272.55375) scale(0.1 -0.1)">
       <defs>
        <path id="MicrosoftYaHei-33" d="M 447 809 
Q 944 425 1569 425 
Q 2069 425 2361 670 
Q 2653 916 2653 1328 
Q 2653 2247 1338 2247 
L 934 2247 
L 934 2753 
L 1319 2753 
Q 2484 2753 2484 3616 
Q 2484 4413 1594 4413 
Q 1084 4413 634 4069 
L 634 4647 
Q 1109 4922 1744 4922 
Q 2363 4922 2738 4598 
Q 3113 4275 3113 3759 
Q 3113 2809 2144 2538 
L 2144 2525 
Q 2669 2469 2973 2155 
Q 3278 1841 3278 1372 
Q 3278 719 2808 319 
Q 2338 -81 1556 -81 
Q 869 -81 447 175 
L 447 809 
z
" transform="scale(0.015625)"/>
       </defs>
       <use xlink:href="#MicrosoftYaHei-33"/>
      </g>
     </g>
    </g>
    <g id="xtick_4">
     <g id="line2d_4">
      <g>
       <use xlink:href="#m1a93d17493" x="403.05" y="257.56" style="stroke: #000000; stroke-width: 0.8"/>
      </g>
     </g>
     <g id="text_4">
      <!-- 4 -->
      <g transform="translate(400.117969 272.55375) scale(0.1 -0.1)">
       <defs>
        <path id="MicrosoftYaHei-34" d="M 2906 4841 
L 2906 1644 
L 3631 1644 
L 3631 1138 
L 2906 1138 
L 2906 0 
L 2313 0 
L 2313 1138 
L 53 1138 
L 53 1616 
Q 656 2294 1265 3178 
Q 1875 4063 2272 4841 
L 2906 4841 
z
M 741 1644 
L 2313 1644 
L 2313 3950 
Q 1988 3366 1616 2817 
Q 1244 2269 741 1644 
z
" transform="scale(0.015625)"/>
       </defs>
       <use xlink:href="#MicrosoftYaHei-34"/>
      </g>
     </g>
    </g>
    <g id="xtick_5">
     <g id="line2d_5">
      <g>
       <use xlink:href="#m1a93d17493" x="514.175" y="257.56" style="stroke: #000000; stroke-width: 0.8"/>
      </g>
     </g>
     <g id="text_5">
      <!-- 5 -->
      <g transform="translate(511.242969 272.55375) scale(0.1 -0.1)">
       <defs>
        <path id="MicrosoftYaHei-35" d="M 3294 1494 
Q 3294 784 2823 350 
Q 2353 -84 1559 -84 
Q 878 -84 544 119 
L 544 744 
Q 1034 425 1544 425 
Q 2050 425 2361 704 
Q 2672 984 2672 1447 
Q 2672 1909 2348 2167 
Q 2025 2425 1434 2425 
Q 978 2425 613 2384 
L 791 4841 
L 3053 4841 
L 3053 4303 
L 1306 4303 
L 1206 2931 
L 1647 2950 
Q 2416 2950 2855 2567 
Q 3294 2184 3294 1494 
z
" transform="scale(0.015625)"/>
       </defs>
       <use xlink:href="#MicrosoftYaHei-35"/>
      </g>
     </g>
    </g>
    <g id="text_6">
     <!-- 连续执行次数（第 1 次为冷启动） -->
     <g transform="translate(216.033594 287.033438) scale(0.1 -0.1)">
      <defs>
       <path id="MicrosoftYaHei-8fde" d="M 1850 1391 
L 3950 1391 
L 3950 2259 
L 2131 2259 
L 2131 2703 
Q 2513 3369 2825 4116 
L 1925 4116 
L 1925 4553 
L 3000 4553 
Q 3150 4947 3281 5359 
L 3806 5247 
Q 3672 4894 3531 4553 
L 6088 4553 
L 6088 4116 
L 3350 4116 
Q 3031 3372 2694 2697 
L 3950 2697 
L 3950 3778 
L 4450 3778 
L 4450 2697 
L 6050 2697 
L 6050 2259 
L 4450 2259 
L 4450 1391 
L 6225 1391 
L 6225 953 
L 4450 953 
L 4450 -78 
L 3950 -78 
L 3950 953 
L 1850 953 
L 1850 1391 
z
M 2650 -216 
L 3931 -247 
L 6319 -191 
Q 6213 -441 6113 -672 
L 3944 -697 
L 2594 -666 
Q 1588 -653 1088 47 
Q 906 -97 356 -753 
L 88 -222 
Q 478 131 863 459 
L 863 2641 
L 150 2641 
L 150 3097 
L 1350 3097 
L 1350 369 
Q 1806 -188 2650 -216 
z
M 856 5203 
Q 1288 4659 1688 4084 
L 1244 3772 
Q 875 4359 456 4934 
L 856 5203 
z
" transform="scale(0.015625)"/>
       <path id="MicrosoftYaHei-7eed" d="M 2263 3584 
L 3975 3584 
L 3975 4216 
L 2506 4216 
L 2506 4641 
L 3975 4641 
L 3975 5303 
L 4450 5303 
L 4450 4641 
L 5938 4641 
L 5938 4216 
L 4450 4216 
L 4450 3584 
L 6231 3584 
L 6231 3159 
Q 5944 2609 5644 2191 
Q 5400 2303 5194 2359 
Q 5494 2759 5719 3159 
L 2263 3159 
L 2263 3584 
z
M 2238 1141 
L 4119 1141 
Q 4263 1716 4250 2941 
L 4706 2941 
Q 4706 1753 4588 1141 
L 6238 1141 
L 6238 716 
L 4588 716 
Q 5444 147 6294 -478 
L 5944 -866 
Q 5206 -222 4306 391 
Q 3744 -491 2281 -903 
Q 2175 -691 2019 -466 
Q 3556 -47 3956 716 
L 2238 716 
L 2238 1141 
z
M 838 1672 
Q 1519 1734 2113 1822 
Q 2088 1553 2069 1397 
Q 1338 1309 294 1159 
L 194 1616 
Q 581 1947 1144 2903 
Q 569 2866 213 2834 
L 88 3247 
Q 563 3897 1131 5278 
L 1606 5103 
Q 1044 4003 606 3284 
Q 938 3284 1363 3297 
Q 1581 3697 1825 4184 
L 2263 3978 
Q 1469 2572 838 1672 
z
M 131 172 
Q 1113 334 2150 547 
Q 2125 209 2125 84 
Q 1213 -97 269 -303 
L 131 172 
z
M 2338 1953 
L 2588 2247 
Q 3200 1866 3531 1578 
L 3244 1234 
Q 2963 1503 2338 1953 
z
M 2775 2647 
L 3031 2947 
Q 3531 2666 3963 2316 
L 3681 1978 
Q 3281 2303 2775 2647 
z
" transform="scale(0.015625)"/>
       <path id="MicrosoftYaHei-6267" d="M 2225 2272 
L 2519 2647 
Q 2788 2472 3059 2294 
Q 3128 2856 3147 3622 
L 2406 3622 
L 2406 4097 
L 3156 4097 
Q 3169 4672 3175 5303 
L 3663 5303 
Q 3656 4653 3644 4097 
L 5363 4097 
Q 5350 3228 5344 2341 
Q 5319 616 5488 34 
Q 5531 -103 5618 -103 
Q 5706 -103 5744 59 
Q 5831 409 5913 1059 
Q 6156 934 6375 878 
Q 6288 253 6175 -159 
Q 6025 -691 5613 -691 
Q 5194 -691 5013 -103 
Q 4869 397 4875 1847 
Q 4869 2672 4869 3622 
L 3634 3622 
Q 3616 2709 3513 1988 
Q 3994 1663 4481 1322 
L 4163 891 
Q 3791 1172 3416 1444 
Q 3113 100 2088 -847 
Q 1931 -634 1713 -422 
Q 2725 506 2975 1756 
Q 2600 2019 2225 2272 
z
M 88 1966 
Q 525 2069 969 2181 
L 969 3647 
L 144 3647 
L 144 4097 
L 969 4097 
L 969 5303 
L 1431 5303 
L 1431 4097 
L 2163 4097 
L 2163 3647 
L 1431 3647 
L 1431 2303 
Q 1772 2394 2113 2491 
Q 2125 2216 2156 2016 
L 1431 1813 
L 1431 -78 
Q 1431 -759 875 -759 
Q 606 -759 219 -747 
Q 194 -516 138 -247 
Q 538 -291 694 -291 
Q 969 -291 969 3 
L 969 1678 
Q 559 1559 150 1441 
L 88 1966 
z
" transform="scale(0.015625)"/>
       <path id="MicrosoftYaHei-884c" d="M 2363 2978 
L 6319 2978 
L 6319 2509 
L 5106 2509 
L 5106 66 
Q 5106 -709 4325 -709 
Q 3800 -709 3256 -703 
Q 3219 -453 3163 -141 
Q 3650 -191 4144 -191 
Q 4575 -191 4575 234 
L 4575 2509 
L 2363 2509 
L 2363 2978 
z
M 100 1578 
Q 1069 2372 1863 3809 
L 2300 3541 
Q 1978 2984 1619 2500 
L 1619 -809 
L 1100 -809 
L 1100 1856 
Q 725 1431 319 1072 
Q 219 1334 100 1578 
z
M 2725 4866 
L 5969 4866 
L 5969 4397 
L 2725 4397 
L 2725 4866 
z
M 131 3559 
Q 1125 4328 1731 5347 
L 2181 5072 
Q 1456 3959 381 3078 
Q 269 3316 131 3559 
z
" transform="scale(0.015625)"/>
       <path id="MicrosoftYaHei-6b21" d="M 4119 3472 
Q 4113 3159 4091 2856 
Q 4509 728 6319 -284 
Q 6063 -559 5913 -772 
Q 4344 331 3900 1944 
Q 3491 200 1650 -866 
Q 1525 -672 1306 -422 
Q 3225 591 3525 2428 
Q 3613 2878 3619 3472 
L 4119 3472 
z
M 4944 2647 
Q 5225 3166 5450 3766 
L 2991 3766 
Q 2719 3144 2388 2572 
Q 2163 2734 1938 2841 
Q 2669 4034 3000 5309 
L 3506 5166 
Q 3356 4675 3175 4209 
L 5988 4209 
L 5988 3766 
Q 5731 3072 5425 2466 
Q 5213 2572 4944 2647 
z
M 1388 2622 
Q 1675 2403 1875 2284 
Q 1075 859 575 -178 
L 69 153 
Q 713 1128 1388 2622 
z
M 644 4916 
Q 1150 4409 1781 3672 
L 1375 3297 
Q 769 4097 281 4591 
L 644 4916 
z
" transform="scale(0.015625)"/>
       <path id="MicrosoftYaHei-6570" d="M 4175 5303 
L 4675 5228 
Q 4544 4622 4369 4097 
L 6281 4097 
L 6281 3672 
L 5888 3672 
Q 5731 1834 5088 753 
Q 5594 66 6375 -372 
Q 6175 -647 6038 -866 
Q 5275 -372 4769 309 
Q 4194 -403 3400 -928 
Q 3263 -747 3044 -534 
Q 3919 41 4463 772 
Q 3956 1647 3794 2791 
Q 3663 2559 3519 2359 
Q 3394 2541 3206 2759 
Q 3931 3803 4175 5303 
z
M 150 1697 
L 1100 1697 
Q 1238 1934 1369 2184 
L 1819 2041 
Q 1719 1866 1619 1697 
L 3150 1697 
L 3150 1291 
Q 2913 678 2431 216 
Q 2775 53 3131 -109 
L 2856 -541 
Q 2469 -322 2050 -103 
Q 1344 -609 269 -903 
Q 169 -703 56 -466 
Q 969 -259 1600 128 
Q 1063 403 475 691 
Q 675 978 863 1284 
L 150 1284 
L 150 1697 
z
M 219 3847 
L 1656 3847 
L 1656 5247 
L 2119 5247 
L 2119 3847 
L 3319 3847 
L 3319 3434 
L 2119 3434 
L 2119 3053 
L 2306 3266 
Q 2888 2841 3281 2516 
L 2981 2166 
Q 2638 2491 2119 2897 
L 2119 2184 
L 1656 2184 
L 1656 3059 
Q 1088 2466 331 2016 
Q 213 2197 63 2397 
Q 850 2822 1506 3434 
L 219 3434 
L 219 3847 
z
M 5388 3672 
L 4219 3672 
Q 4188 3591 4150 3516 
Q 4263 2191 4775 1247 
Q 5275 2159 5388 3672 
z
M 1088 834 
Q 1531 634 2000 416 
Q 2431 784 2675 1284 
L 1375 1284 
Q 1231 1053 1088 834 
z
M 3038 5091 
L 3425 4834 
Q 3081 4384 2738 4003 
Q 2594 4128 2400 4266 
Q 2725 4647 3038 5091 
z
M 381 4816 
L 738 5059 
Q 1019 4716 1319 4322 
L 931 4047 
Q 656 4453 381 4816 
z
" transform="scale(0.015625)"/>
       <path id="MicrosoftYaHei-ff08" d="M 5288 -1100 
Q 4172 119 4172 1850 
Q 4172 3603 5288 4838 
L 5825 4838 
Q 4716 3572 4716 1856 
Q 4716 166 5819 -1100 
L 5288 -1100 
z
" transform="scale(0.015625)"/>
       <path id="MicrosoftYaHei-7b2c" d="M 4006 5347 
L 4544 5347 
Q 4406 5038 4256 4759 
L 6225 4759 
L 6225 4372 
L 4650 4372 
Q 4922 4106 5163 3822 
L 4806 3553 
L 5613 3553 
L 5613 1884 
L 5131 1884 
L 5131 2109 
L 3431 2109 
L 3431 1484 
L 5944 1484 
Q 5919 922 5881 416 
Q 5838 -372 5081 -372 
Q 4700 -372 4138 -366 
Q 4094 -134 4031 128 
Q 4644 97 4988 97 
Q 5356 97 5388 466 
Q 5419 759 5431 1059 
L 3431 1059 
L 3431 -853 
L 2931 -853 
L 2931 909 
Q 2059 -147 306 -703 
Q 194 -522 44 -303 
Q 1566 144 2463 1059 
L 563 1059 
L 563 1484 
L 863 2534 
L 2931 2534 
L 2931 3128 
L 744 3128 
L 744 3553 
L 1972 3553 
Q 1713 3891 1456 4184 
L 1706 4372 
L 1247 4372 
Q 875 3875 388 3459 
Q 263 3609 75 3797 
Q 869 4441 1294 5347 
L 1831 5347 
Q 1688 5041 1513 4759 
L 3325 4759 
L 3325 4372 
L 1825 4372 
Q 2075 4119 2331 3828 
L 1981 3553 
L 4794 3553 
Q 4541 3894 4294 4178 
L 4559 4372 
L 4028 4372 
Q 3784 3984 3506 3672 
Q 3369 3809 3125 3978 
Q 3650 4516 4006 5347 
z
M 1075 1484 
L 2931 1484 
L 2931 2109 
L 1250 2109 
L 1075 1484 
z
M 5131 3128 
L 3431 3128 
L 3431 2534 
L 5131 2534 
L 5131 3128 
z
" transform="scale(0.015625)"/>
       <path id="MicrosoftYaHei-20" transform="scale(0.015625)"/>
       <path id="MicrosoftYaHei-4e3a" d="M 356 3684 
L 2703 3684 
Q 2794 4450 2794 5341 
L 3331 5341 
Q 3331 4413 3244 3684 
L 5900 3684 
Q 5863 1753 5788 497 
Q 5725 -672 4550 -672 
Q 4063 -672 3394 -641 
Q 3369 -397 3300 -59 
Q 3888 -141 4456 -141 
Q 5206 -141 5244 597 
Q 5331 1822 5356 3197 
L 3175 3197 
Q 2716 441 606 -903 
Q 431 -684 225 -441 
Q 2169 706 2628 3197 
L 356 3197 
L 356 3684 
z
M 3325 2072 
L 3669 2378 
Q 4269 1822 4756 1284 
L 4369 934 
Q 3888 1503 3325 2072 
z
M 800 4922 
L 1138 5234 
Q 1656 4784 2138 4309 
L 1756 3953 
Q 1294 4459 800 4922 
z
" transform="scale(0.015625)"/>
       <path id="MicrosoftYaHei-51b7" d="M 2156 509 
L 2425 916 
Q 3044 609 3744 241 
Q 4531 1009 5088 1597 
L 1856 1597 
L 1856 2066 
L 5769 2066 
L 5769 1597 
Q 4969 759 4213 -9 
Q 4638 -234 5100 -491 
L 4788 -934 
Q 3350 -78 2156 509 
z
M 4225 5297 
L 4144 5147 
Q 4994 3641 6388 3097 
Q 6175 2853 6013 2622 
Q 4681 3353 3869 4734 
Q 3200 3497 1725 2566 
Q 1575 2791 1381 3003 
Q 2925 3791 3656 5297 
L 4225 5297 
z
M 963 2278 
Q 1225 2147 1475 2072 
Q 1075 666 738 -616 
L 213 -409 
Q 650 922 963 2278 
z
M 513 4909 
Q 1050 4453 1569 3903 
L 1131 3528 
Q 663 4091 156 4584 
L 513 4909 
z
M 3231 3441 
L 3606 3703 
Q 4056 3184 4450 2659 
L 4031 2372 
Q 3631 2953 3231 3441 
z
" transform="scale(0.015625)"/>
       <path id="MicrosoftYaHei-542f" d="M 2781 5166 
L 3225 5391 
Q 3469 5006 3691 4603 
L 5938 4603 
L 5938 2516 
L 5450 2516 
L 5450 2747 
L 1288 2747 
L 1288 2728 
Q 1288 209 413 -878 
Q 244 -678 50 -472 
Q 788 459 788 2728 
L 788 4603 
L 3119 4603 
Q 2966 4881 2781 5166 
z
M 5869 1822 
L 5869 -847 
L 5381 -847 
L 5381 -441 
L 2225 -441 
L 2225 -847 
L 1738 -847 
L 1738 1822 
L 5869 1822 
z
M 5381 1384 
L 2225 1384 
L 2225 -9 
L 5381 -9 
L 5381 1384 
z
M 1288 4166 
L 1288 3184 
L 5450 3184 
L 5450 4166 
L 1288 4166 
z
" transform="scale(0.015625)"/>
       <path id="MicrosoftYaHei-52a8" d="M 2975 4022 
L 3906 4022 
Q 3916 4650 3913 5309 
L 4425 5309 
Q 4422 4656 4409 4022 
L 6094 4022 
Q 6050 1659 5969 216 
Q 5900 -666 5150 -678 
Q 4763 -678 4306 -659 
Q 4263 -397 4206 -109 
Q 4638 -166 4994 -172 
Q 5456 -172 5475 347 
Q 5569 1897 5588 3547 
L 4400 3547 
Q 4394 3278 4388 3016 
Q 4356 553 2900 -872 
Q 2725 -659 2525 -447 
Q 3831 716 3888 3028 
Q 3894 3284 3900 3547 
L 2975 3547 
L 2975 4022 
z
M 2338 1866 
Q 2731 1016 3063 178 
Q 2788 59 2594 -28 
Q 2550 91 2506 209 
Q 1316 97 338 -16 
L 119 491 
Q 394 647 563 997 
Q 869 1613 1200 2559 
L 144 2559 
L 144 3022 
L 3163 3022 
L 3163 2559 
L 1725 2559 
Q 1191 1228 800 491 
Q 1519 544 2347 631 
Q 2138 1163 1906 1672 
L 2338 1866 
z
M 406 4778 
L 2913 4778 
L 2913 4316 
L 406 4316 
L 406 4778 
z
" transform="scale(0.015625)"/>
       <path id="MicrosoftYaHei-ff09" d="M 1113 -1100 
L 575 -1100 
Q 1684 163 1684 1888 
Q 1684 3581 581 4838 
L 1113 4838 
Q 2222 3628 2222 1888 
Q 2222 128 1113 -1100 
z
" transform="scale(0.015625)"/>
      </defs>
      <use xlink:href="#MicrosoftYaHei-8fde"/>
      <use xlink:href="#MicrosoftYaHei-7eed" transform="translate(100 0)"/>
      <use xlink:href="#MicrosoftYaHei-6267" transform="translate(200 0)"/>
      <use xlink:href="#MicrosoftYaHei-884c" transform="translate(300 0)"/>
      <use xlink:href="#MicrosoftYaHei-6b21" transform="translate(400 0)"/>
      <use xlink:href="#MicrosoftYaHei-6570" transform="translate(500 0)"/>
      <use xlink:href="#MicrosoftYaHei-ff08" transform="translate(600 0)"/>
      <use xlink:href="#MicrosoftYaHei-7b2c" transform="translate(700 0)"/>
      <use xlink:href="#MicrosoftYaHei-20" transform="translate(800 0)"/>
      <use xlink:href="#MicrosoftYaHei-31" transform="translate(829.589844 0)"/>
      <use xlink:href="#MicrosoftYaHei-20" transform="translate(888.232422 0)"/>
      <use xlink:href="#MicrosoftYaHei-6b21" transform="translate(917.822266 0)"/>
      <use xlink:href="#MicrosoftYaHei-4e3a" transform="translate(1017.822266 0)"/>
      <use xlink:href="#MicrosoftYaHei-51b7" transform="translate(1117.822266 0)"/>
      <use xlink:href="#MicrosoftYaHei-542f" transform="translate(1217.822266 0)"/>
      <use xlink:href="#MicrosoftYaHei-52a8" transform="translate(1317.822266 0)"/>
      <use xlink:href="#MicrosoftYaHei-ff09" transform="translate(1417.822266 0)"/>
     </g>
    </g>
   </g>
   <g id="matplotlib.axis_2">
    <g id="ytick_1">
     <g id="line2d_6">
      <path d="M 47.45 257.56 
L 536.4 257.56 
" clip-path="url(#p9dbb098a21)" style="fill: none; stroke-dasharray: 2.96,1.28; stroke-dashoffset: 0; stroke: #b0b0b0; stroke-opacity: 0.4; stroke-width: 0.8"/>
     </g>
     <g id="line2d_7">
      <defs>
       <path id="m6746c5f6f7" d="M 0 0 
L -3.5 0 
" style="stroke: #000000; stroke-width: 0.8"/>
      </defs>
      <g>
       <use xlink:href="#m6746c5f6f7" x="47.45" y="257.56" style="stroke: #000000; stroke-width: 0.8"/>
      </g>
     </g>
     <g id="text_7">
      <!-- 0.0 -->
      <g transform="translate(26.314063 261.556875) scale(0.1 -0.1)">
       <defs>
        <path id="MicrosoftYaHei-30" d="M 284 2325 
Q 284 3606 709 4264 
Q 1134 4922 1941 4922 
Q 3478 4922 3478 2441 
Q 3478 1216 3045 567 
Q 2613 -81 1831 -81 
Q 1094 -81 689 534 
Q 284 1150 284 2325 
z
M 909 2353 
Q 909 425 1888 425 
Q 2850 425 2850 2384 
Q 2850 4413 1906 4413 
Q 909 4413 909 2353 
z
" transform="scale(0.015625)"/>
        <path id="MicrosoftYaHei-2e" d="M 372 322 
Q 372 491 487 606 
Q 603 722 775 722 
Q 950 722 1065 605 
Q 1181 488 1181 322 
Q 1181 159 1065 42 
Q 950 -75 772 -75 
Q 600 -75 486 42 
Q 372 159 372 322 
z
" transform="scale(0.015625)"/>
       </defs>
       <use xlink:href="#MicrosoftYaHei-30"/>
       <use xlink:href="#MicrosoftYaHei-2e" transform="translate(58.642578 0)"/>
       <use xlink:href="#MicrosoftYaHei-30" transform="translate(82.714844 0)"/>
      </g>
     </g>
    </g>
    <g id="ytick_2">
     <g id="line2d_8">
      <path d="M 47.45 228.228938 
L 536.4 228.228938 
" clip-path="url(#p9dbb098a21)" style="fill: none; stroke-dasharray: 2.96,1.28; stroke-dashoffset: 0; stroke: #b0b0b0; stroke-opacity: 0.4; stroke-width: 0.8"/>
     </g>
     <g id="line2d_9">
      <g>
       <use xlink:href="#m6746c5f6f7" x="47.45" y="228.228938" style="stroke: #000000; stroke-width: 0.8"/>
      </g>
     </g>
     <g id="text_8">
      <!-- 0.2 -->
      <g transform="translate(26.314063 232.225813) scale(0.1 -0.1)">
       <use xlink:href="#MicrosoftYaHei-30"/>
       <use xlink:href="#MicrosoftYaHei-2e" transform="translate(58.642578 0)"/>
       <use xlink:href="#MicrosoftYaHei-32" transform="translate(82.714844 0)"/>
      </g>
     </g>
    </g>
    <g id="ytick_3">
     <g id="line2d_10">
      <path d="M 47.45 198.897877 
L 536.4 198.897877 
" clip-path="url(#p9dbb098a21)" style="fill: none; stroke-dasharray: 2.96,1.28; stroke-dashoffset: 0; stroke: #b0b0b0; stroke-opacity: 0.4; stroke-width: 0.8"/>
     </g>
     <g id="line2d_11">
      <g>
       <use xlink:href="#m6746c5f6f7" x="47.45" y="198.897877" style="stroke: #000000; stroke-width: 0.8"/>
      </g>
     </g>
     <g id="text_9">
      <!-- 0.4 -->
      <g transform="translate(26.314063 202.894752) scale(0.1 -0.1)">
       <use xlink:href="#MicrosoftYaHei-30"/>
       <use xlink:href="#MicrosoftYaHei-2e" transform="translate(58.642578 0)"/>
       <use xlink:href="#MicrosoftYaHei-34" transform="translate(82.714844 0)"/>
      </g>
     </g>
    </g>
    <g id="ytick_4">
     <g id="line2d_12">
      <path d="M 47.45 169.566815 
L 536.4 169.566815 
" clip-path="url(#p9dbb098a21)" style="fill: none; stroke-dasharray: 2.96,1.28; stroke-dashoffset: 0; stroke: #b0b0b0; stroke-opacity: 0.4; stroke-width: 0.8"/>
     </g>
     <g id="line2d_13">
      <g>
       <use xlink:href="#m6746c5f6f7" x="47.45" y="169.566815" style="stroke: #000000; stroke-width: 0.8"/>
      </g>
     </g>
     <g id="text_10">
      <!-- 0.6 -->
      <g transform="translate(26.314063 173.56369) scale(0.1 -0.1)">
       <defs>
        <path id="MicrosoftYaHei-36" d="M 3181 4219 
Q 2803 4413 2391 4413 
Q 1763 4413 1381 3866 
Q 1000 3319 994 2372 
L 1009 2372 
Q 1353 3038 2106 3038 
Q 2734 3038 3109 2628 
Q 3484 2219 3484 1541 
Q 3484 831 3051 375 
Q 2619 -81 1947 -81 
Q 1209 -81 789 495 
Q 369 1072 369 2131 
Q 369 3413 920 4167 
Q 1472 4922 2372 4922 
Q 2888 4922 3181 4781 
L 3181 4219 
z
M 1031 1584 
Q 1031 1106 1286 765 
Q 1541 425 1963 425 
Q 2363 425 2613 719 
Q 2863 1013 2863 1475 
Q 2863 1975 2627 2253 
Q 2391 2531 1956 2531 
Q 1544 2531 1287 2250 
Q 1031 1969 1031 1584 
z
" transform="scale(0.015625)"/>
       </defs>
       <use xlink:href="#MicrosoftYaHei-30"/>
       <use xlink:href="#MicrosoftYaHei-2e" transform="translate(58.642578 0)"/>
       <use xlink:href="#MicrosoftYaHei-36" transform="translate(82.714844 0)"/>
      </g>
     </g>
    </g>
    <g id="ytick_5">
     <g id="line2d_14">
      <path d="M 47.45 140.235754 
L 536.4 140.235754 
" clip-path="url(#p9dbb098a21)" style="fill: none; stroke-dasharray: 2.96,1.28; stroke-dashoffset: 0; stroke: #b0b0b0; stroke-opacity: 0.4; stroke-width: 0.8"/>
     </g>
     <g id="line2d_15">
      <g>
       <use xlink:href="#m6746c5f6f7" x="47.45" y="140.235754" style="stroke: #000000; stroke-width: 0.8"/>
      </g>
     </g>
     <g id="text_11">
      <!-- 0.8 -->
      <g transform="translate(26.314063 144.232629) scale(0.1 -0.1)">
       <defs>
        <path id="MicrosoftYaHei-38" d="M 306 1350 
Q 306 1769 556 2122 
Q 806 2475 1200 2625 
Q 884 2803 700 3081 
Q 516 3359 516 3684 
Q 516 4028 692 4312 
Q 869 4597 1183 4759 
Q 1497 4922 1875 4922 
Q 2256 4922 2572 4761 
Q 2888 4600 3063 4315 
Q 3238 4031 3238 3684 
Q 3238 3366 3058 3086 
Q 2878 2806 2559 2625 
Q 2953 2472 3200 2119 
Q 3447 1766 3447 1350 
Q 3447 938 3250 611 
Q 3053 284 2690 103 
Q 2328 -78 1875 -78 
Q 1425 -78 1065 103 
Q 706 284 506 612 
Q 306 941 306 1350 
z
M 906 1378 
Q 906 947 1172 687 
Q 1438 428 1878 428 
Q 2309 428 2582 692 
Q 2856 956 2856 1378 
Q 2856 1778 2579 2051 
Q 2303 2325 1878 2325 
Q 1456 2325 1181 2058 
Q 906 1791 906 1378 
z
M 1081 3634 
Q 1081 3309 1312 3076 
Q 1544 2844 1878 2844 
Q 2206 2844 2445 3078 
Q 2684 3313 2684 3634 
Q 2684 3963 2454 4191 
Q 2225 4419 1878 4419 
Q 1534 4419 1307 4195 
Q 1081 3972 1081 3634 
z
" transform="scale(0.015625)"/>
       </defs>
       <use xlink:href="#MicrosoftYaHei-30"/>
       <use xlink:href="#MicrosoftYaHei-2e" transform="translate(58.642578 0)"/>
       <use xlink:href="#MicrosoftYaHei-38" transform="translate(82.714844 0)"/>
      </g>
     </g>
    </g>
    <g id="ytick_6">
     <g id="line2d_16">
      <path d="M 47.45 110.904692 
L 536.4 110.904692 
" clip-path="url(#p9dbb098a21)" style="fill: none; stroke-dasharray: 2.96,1.28; stroke-dashoffset: 0; stroke: #b0b0b0; stroke-opacity: 0.4; stroke-width: 0.8"/>
     </g>
     <g id="line2d_17">
      <g>
       <use xlink:href="#m6746c5f6f7" x="47.45" y="110.904692" style="stroke: #000000; stroke-width: 0.8"/>
      </g>
     </g>
     <g id="text_12">
      <!-- 1.0 -->
      <g transform="translate(26.314063 114.901567) scale(0.1 -0.1)">
       <use xlink:href="#MicrosoftYaHei-31"/>
       <use xlink:href="#MicrosoftYaHei-2e" transform="translate(58.642578 0)"/>
       <use xlink:href="#MicrosoftYaHei-30" transform="translate(82.714844 0)"/>
      </g>
     </g>
    </g>
    <g id="ytick_7">
     <g id="line2d_18">
      <path d="M 47.45 81.573631 
L 536.4 81.573631 
" clip-path="url(#p9dbb098a21)" style="fill: none; stroke-dasharray: 2.96,1.28; stroke-dashoffset: 0; stroke: #b0b0b0; stroke-opacity: 0.4; stroke-width: 0.8"/>
     </g>
     <g id="line2d_19">
      <g>
       <use xlink:href="#m6746c5f6f7" x="47.45" y="81.573631" style="stroke: #000000; stroke-width: 0.8"/>
      </g>
     </g>
     <g id="text_13">
      <!-- 1.2 -->
      <g transform="translate(26.314063 85.570506) scale(0.1 -0.1)">
       <use xlink:href="#MicrosoftYaHei-31"/>
       <use xlink:href="#MicrosoftYaHei-2e" transform="translate(58.642578 0)"/>
       <use xlink:href="#MicrosoftYaHei-32" transform="translate(82.714844 0)"/>
      </g>
     </g>
    </g>
    <g id="ytick_8">
     <g id="line2d_20">
      <path d="M 47.45 52.242569 
L 536.4 52.242569 
" clip-path="url(#p9dbb098a21)" style="fill: none; stroke-dasharray: 2.96,1.28; stroke-dashoffset: 0; stroke: #b0b0b0; stroke-opacity: 0.4; stroke-width: 0.8"/>
     </g>
     <g id="line2d_21">
      <g>
       <use xlink:href="#m6746c5f6f7" x="47.45" y="52.242569" style="stroke: #000000; stroke-width: 0.8"/>
      </g>
     </g>
     <g id="text_14">
      <!-- 1.4 -->
      <g transform="translate(26.314063 56.239444) scale(0.1 -0.1)">
       <use xlink:href="#MicrosoftYaHei-31"/>
       <use xlink:href="#MicrosoftYaHei-2e" transform="translate(58.642578 0)"/>
       <use xlink:href="#MicrosoftYaHei-34" transform="translate(82.714844 0)"/>
      </g>
     </g>
    </g>
    <g id="text_15">
     <!-- 耗时 (s) -->
     <g transform="translate(19.828125 159.355156) rotate(-90) scale(0.1 -0.1)">
      <defs>
       <path id="MicrosoftYaHei-8017" d="M 2506 1622 
L 3913 1753 
L 3913 2878 
L 2738 2772 
L 2706 3197 
L 3913 3303 
L 3913 4459 
Q 3381 4403 2794 4353 
Q 2769 4584 2700 4809 
Q 4225 4916 5706 5172 
L 5819 4697 
Q 5188 4603 4381 4509 
L 4381 3347 
L 5825 3478 
L 5850 3053 
L 4381 2916 
L 4381 1797 
L 6150 1966 
L 6175 1541 
L 4381 1366 
L 4381 128 
Q 4381 -241 4706 -241 
L 5400 -241 
Q 5688 -241 5750 147 
Q 5813 566 5844 991 
Q 6094 866 6319 791 
Q 6250 291 6194 -28 
Q 6094 -691 5456 -691 
L 4588 -691 
Q 3913 -691 3913 72 
L 3913 1322 
L 2538 1197 
L 2506 1622 
z
M 88 191 
Q 769 1072 1088 2022 
L 138 2022 
L 138 2422 
L 1250 2422 
L 1250 3028 
L 363 3028 
L 363 3428 
L 1250 3428 
L 1250 4016 
L 231 4016 
L 231 4416 
L 1250 4416 
L 1250 5303 
L 1675 5303 
L 1675 4416 
L 2631 4416 
L 2631 4016 
L 1675 4016 
L 1675 3428 
L 2519 3428 
L 2519 3028 
L 1675 3028 
L 1675 2422 
L 2700 2422 
L 2700 2022 
L 1675 2022 
L 1675 1334 
L 1894 1547 
Q 2381 1078 2806 622 
L 2463 316 
Q 2125 747 1675 1203 
L 1675 -841 
L 1250 -841 
L 1250 1491 
Q 869 434 281 -297 
Q 188 -16 88 191 
z
" transform="scale(0.015625)"/>
       <path id="MicrosoftYaHei-65f6" d="M 344 4728 
L 2500 4728 
L 2500 -366 
L 2006 -366 
L 2006 153 
L 838 153 
L 838 -441 
L 344 -441 
L 344 4728 
z
M 2706 3941 
L 4925 3941 
L 4925 5322 
L 5425 5322 
L 5425 3941 
L 6313 3941 
L 6313 3478 
L 5425 3478 
L 5425 116 
Q 5425 -722 4625 -722 
Q 4263 -722 3563 -703 
Q 3531 -478 3463 -178 
Q 4119 -228 4488 -228 
Q 4925 -228 4925 216 
L 4925 3478 
L 2706 3478 
L 2706 3941 
z
M 838 616 
L 2006 616 
L 2006 2234 
L 838 2234 
L 838 616 
z
M 2006 4266 
L 838 4266 
L 838 2684 
L 2006 2684 
L 2006 4266 
z
M 3406 2878 
Q 3906 1966 4163 1422 
Q 4000 1347 3663 1172 
Q 3419 1766 2963 2653 
L 3406 2878 
z
" transform="scale(0.015625)"/>
       <path id="MicrosoftYaHei-28" d="M 1531 -1100 
Q 478 100 478 1847 
Q 478 3594 1531 4841 
L 2072 4841 
Q 1016 3544 1016 1853 
Q 1016 166 2066 -1100 
L 1531 -1100 
z
" transform="scale(0.015625)"/>
       <path id="MicrosoftYaHei-73" d="M 353 747 
Q 816 413 1350 413 
Q 2066 413 2066 881 
Q 2066 1081 1909 1211 
Q 1753 1341 1275 1519 
Q 700 1750 528 1976 
Q 356 2203 356 2525 
Q 356 2984 745 3261 
Q 1134 3538 1703 3538 
Q 2144 3538 2522 3384 
L 2522 2794 
Q 2134 3044 1644 3044 
Q 1350 3044 1165 2916 
Q 981 2788 981 2578 
Q 981 2372 1114 2256 
Q 1247 2141 1703 1959 
Q 2281 1744 2484 1512 
Q 2688 1281 2688 941 
Q 2688 466 2298 192 
Q 1909 -81 1291 -81 
Q 753 -81 353 122 
L 353 747 
z
" transform="scale(0.015625)"/>
       <path id="MicrosoftYaHei-29" d="M 78 -1100 
Q 1131 163 1131 1853 
Q 1131 3547 72 4841 
L 616 4841 
Q 1672 3603 1672 1847 
Q 1672 91 616 -1100 
L 78 -1100 
z
" transform="scale(0.015625)"/>
      </defs>
      <use xlink:href="#MicrosoftYaHei-8017"/>
      <use xlink:href="#MicrosoftYaHei-65f6" transform="translate(100 0)"/>
      <use xlink:href="#MicrosoftYaHei-20" transform="translate(200 0)"/>
      <use xlink:href="#MicrosoftYaHei-28" transform="translate(229.589844 0)"/>
      <use xlink:href="#MicrosoftYaHei-73" transform="translate(262.988281 0)"/>
      <use xlink:href="#MicrosoftYaHei-29" transform="translate(309.277344 0)"/>
     </g>
    </g>
   </g>
   <g id="line2d_22">
    <path d="M 69.675 62.068475 
L 180.8 188.192039 
L 291.925 187.165452 
L 403.05 188.925316 
L 514.175 188.192039 
" clip-path="url(#p9dbb098a21)" style="fill: none; stroke: #2e6fb0; stroke-width: 1.5; stroke-linecap: square"/>
    <defs>
     <path id="m1af57ffb1a" d="M 0 3 
C 0.795609 3 1.55874 2.683901 2.12132 2.12132 
C 2.683901 1.55874 3 0.795609 3 0 
C 3 -0.795609 2.683901 -1.55874 2.12132 -2.12132 
C 1.55874 -2.683901 0.795609 -3 0 -3 
C -0.795609 -3 -1.55874 -2.683901 -2.12132 -2.12132 
C -2.683901 -1.55874 -3 -0.795609 -3 0 
C -3 0.795609 -2.683901 1.55874 -2.12132 2.12132 
C -1.55874 2.683901 -0.795609 3 0 3 
z
" style="stroke: #2e6fb0"/>
    </defs>
    <g clip-path="url(#p9dbb098a21)">
     <use xlink:href="#m1af57ffb1a" x="69.675" y="62.068475" style="fill: #2e6fb0; stroke: #2e6fb0"/>
     <use xlink:href="#m1af57ffb1a" x="180.8" y="188.192039" style="fill: #2e6fb0; stroke: #2e6fb0"/>
     <use xlink:href="#m1af57ffb1a" x="291.925" y="187.165452" style="fill: #2e6fb0; stroke: #2e6fb0"/>
     <use xlink:href="#m1af57ffb1a" x="403.05" y="188.925316" style="fill: #2e6fb0; stroke: #2e6fb0"/>
     <use xlink:href="#m1af57ffb1a" x="514.175" y="188.192039" style="fill: #2e6fb0; stroke: #2e6fb0"/>
    </g>
   </g>
   <g id="line2d_23">
    <path d="M 69.675 61.335198 
L 180.8 195.084839 
L 291.925 194.498218 
L 403.05 195.67146 
L 514.175 195.378149 
" clip-path="url(#p9dbb098a21)" style="fill: none; stroke: #2e9d5b; stroke-width: 1.5; stroke-linecap: square"/>
    <defs>
     <path id="m2e377146f8" d="M 0 3 
C 0.795609 3 1.55874 2.683901 2.12132 2.12132 
C 2.683901 1.55874 3 0.795609 3 0 
C 3 -0.795609 2.683901 -1.55874 2.12132 -2.12132 
C 1.55874 -2.683901 0.795609 -3 0 -3 
C -0.795609 -3 -1.55874 -2.683901 -2.12132 -2.12132 
C -2.683901 -1.55874 -3 -0.795609 -3 0 
C -3 0.795609 -2.683901 1.55874 -2.12132 2.12132 
C -1.55874 2.683901 -0.795609 3 0 3 
z
" style="stroke: #2e9d5b"/>
    </defs>
    <g clip-path="url(#p9dbb098a21)">
     <use xlink:href="#m2e377146f8" x="69.675" y="61.335198" style="fill: #2e9d5b; stroke: #2e9d5b"/>
     <use xlink:href="#m2e377146f8" x="180.8" y="195.084839" style="fill: #2e9d5b; stroke: #2e9d5b"/>
     <use xlink:href="#m2e377146f8" x="291.925" y="194.498218" style="fill: #2e9d5b; stroke: #2e9d5b"/>
     <use xlink:href="#m2e377146f8" x="403.05" y="195.67146" style="fill: #2e9d5b; stroke: #2e9d5b"/>
     <use xlink:href="#m2e377146f8" x="514.175" y="195.378149" style="fill: #2e9d5b; stroke: #2e9d5b"/>
    </g>
   </g>
   <g id="patch_3">
    <path d="M 47.45 257.56 
L 47.45 26.88 
" style="fill: none; stroke: #000000; stroke-width: 0.8; stroke-linejoin: miter; stroke-linecap: square"/>
   </g>
   <g id="patch_4">
    <path d="M 536.4 257.56 
L 536.4 26.88 
" style="fill: none; stroke: #000000; stroke-width: 0.8; stroke-linejoin: miter; stroke-linecap: square"/>
   </g>
   <g id="patch_5">
    <path d="M 47.45 257.56 
L 536.4 257.56 
" style="fill: none; stroke: #000000; stroke-width: 0.8; stroke-linejoin: miter; stroke-linecap: square"/>
   </g>
   <g id="patch_6">
    <path d="M 47.45 26.88 
L 536.4 26.88 
" style="fill: none; stroke: #000000; stroke-width: 0.8; stroke-linejoin: miter; stroke-linecap: square"/>
   </g>
   <g id="text_16">
    <!-- 1.33 -->
    <g style="fill: #2e6fb0" transform="translate(61.675 56.068475) scale(0.08 -0.08)">
     <use xlink:href="#MicrosoftYaHei-31"/>
     <use xlink:href="#MicrosoftYaHei-2e" transform="translate(58.642578 0)"/>
     <use xlink:href="#MicrosoftYaHei-33" transform="translate(82.714844 0)"/>
     <use xlink:href="#MicrosoftYaHei-33" transform="translate(141.357422 0)"/>
    </g>
   </g>
   <g id="text_17">
    <!-- 0.47 -->
    <g style="fill: #2e6fb0" transform="translate(172.8 182.192039) scale(0.08 -0.08)">
     <defs>
      <path id="MicrosoftYaHei-37" d="M 3422 4463 
Q 2659 3131 2223 1998 
Q 1788 866 1684 0 
L 1047 0 
Q 1163 853 1594 1947 
Q 2025 3041 2747 4300 
L 347 4300 
L 347 4841 
L 3422 4841 
L 3422 4463 
z
" transform="scale(0.015625)"/>
     </defs>
     <use xlink:href="#MicrosoftYaHei-30"/>
     <use xlink:href="#MicrosoftYaHei-2e" transform="translate(58.642578 0)"/>
     <use xlink:href="#MicrosoftYaHei-34" transform="translate(82.714844 0)"/>
     <use xlink:href="#MicrosoftYaHei-37" transform="translate(141.357422 0)"/>
    </g>
   </g>
   <g id="text_18">
    <!-- 0.48 -->
    <g style="fill: #2e6fb0" transform="translate(283.925 181.165452) scale(0.08 -0.08)">
     <use xlink:href="#MicrosoftYaHei-30"/>
     <use xlink:href="#MicrosoftYaHei-2e" transform="translate(58.642578 0)"/>
     <use xlink:href="#MicrosoftYaHei-34" transform="translate(82.714844 0)"/>
     <use xlink:href="#MicrosoftYaHei-38" transform="translate(141.357422 0)"/>
    </g>
   </g>
   <g id="text_19">
    <!-- 0.47 -->
    <g style="fill: #2e6fb0" transform="translate(395.05 182.925316) scale(0.08 -0.08)">
     <use xlink:href="#MicrosoftYaHei-30"/>
     <use xlink:href="#MicrosoftYaHei-2e" transform="translate(58.642578 0)"/>
     <use xlink:href="#MicrosoftYaHei-34" transform="translate(82.714844 0)"/>
     <use xlink:href="#MicrosoftYaHei-37" transform="translate(141.357422 0)"/>
    </g>
   </g>
   <g id="text_20">
    <!-- 0.47 -->
    <g style="fill: #2e6fb0" transform="translate(506.175 182.192039) scale(0.08 -0.08)">
     <use xlink:href="#MicrosoftYaHei-30"/>
     <use xlink:href="#MicrosoftYaHei-2e" transform="translate(58.642578 0)"/>
     <use xlink:href="#MicrosoftYaHei-34" transform="translate(82.714844 0)"/>
     <use xlink:href="#MicrosoftYaHei-37" transform="translate(141.357422 0)"/>
    </g>
   </g>
   <g id="text_21">
    <!-- 1.34 -->
    <g style="fill: #2e9d5b" transform="translate(61.675 73.335198) scale(0.08 -0.08)">
     <use xlink:href="#MicrosoftYaHei-31"/>
     <use xlink:href="#MicrosoftYaHei-2e" transform="translate(58.642578 0)"/>
     <use xlink:href="#MicrosoftYaHei-33" transform="translate(82.714844 0)"/>
     <use xlink:href="#MicrosoftYaHei-34" transform="translate(141.357422 0)"/>
    </g>
   </g>
   <g id="text_22">
    <!-- 0.43 -->
    <g style="fill: #2e9d5b" transform="translate(172.8 207.084839) scale(0.08 -0.08)">
     <use xlink:href="#MicrosoftYaHei-30"/>
     <use xlink:href="#MicrosoftYaHei-2e" transform="translate(58.642578 0)"/>
     <use xlink:href="#MicrosoftYaHei-34" transform="translate(82.714844 0)"/>
     <use xlink:href="#MicrosoftYaHei-33" transform="translate(141.357422 0)"/>
    </g>
   </g>
   <g id="text_23">
    <!-- 0.43 -->
    <g style="fill: #2e9d5b" transform="translate(283.925 206.498218) scale(0.08 -0.08)">
     <use xlink:href="#MicrosoftYaHei-30"/>
     <use xlink:href="#MicrosoftYaHei-2e" transform="translate(58.642578 0)"/>
     <use xlink:href="#MicrosoftYaHei-34" transform="translate(82.714844 0)"/>
     <use xlink:href="#MicrosoftYaHei-33" transform="translate(141.357422 0)"/>
    </g>
   </g>
   <g id="text_24">
    <!-- 0.42 -->
    <g style="fill: #2e9d5b" transform="translate(395.05 207.67146) scale(0.08 -0.08)">
     <use xlink:href="#MicrosoftYaHei-30"/>
     <use xlink:href="#MicrosoftYaHei-2e" transform="translate(58.642578 0)"/>
     <use xlink:href="#MicrosoftYaHei-34" transform="translate(82.714844 0)"/>
     <use xlink:href="#MicrosoftYaHei-32" transform="translate(141.357422 0)"/>
    </g>
   </g>
   <g id="text_25">
    <!-- 0.42 -->
    <g style="fill: #2e9d5b" transform="translate(506.175 207.378149) scale(0.08 -0.08)">
     <use xlink:href="#MicrosoftYaHei-30"/>
     <use xlink:href="#MicrosoftYaHei-2e" transform="translate(58.642578 0)"/>
     <use xlink:href="#MicrosoftYaHei-34" transform="translate(82.714844 0)"/>
     <use xlink:href="#MicrosoftYaHei-32" transform="translate(141.357422 0)"/>
    </g>
   </g>
   <g id="text_26">
    <!-- Stat Cache 对重复列目录 (ls -al) 的影响 -->
    <g transform="translate(184.676875 20.88) scale(0.12 -0.12)">
     <defs>
      <path id="MicrosoftYaHei-53" d="M 400 909 
Q 622 716 994 591 
Q 1366 466 1700 466 
Q 2719 466 2719 1191 
Q 2719 1394 2609 1556 
Q 2500 1719 2309 1844 
Q 2119 1969 1594 2228 
Q 866 2591 634 2902 
Q 403 3213 403 3613 
Q 403 4216 887 4569 
Q 1372 4922 2109 4922 
Q 2831 4922 3169 4747 
L 3169 4066 
Q 2731 4369 2063 4369 
Q 1619 4369 1339 4183 
Q 1059 3997 1059 3666 
Q 1059 3372 1253 3187 
Q 1447 3003 2094 2684 
Q 2806 2344 3090 2003 
Q 3375 1663 3375 1238 
Q 3375 600 2912 259 
Q 2450 -81 1628 -81 
Q 1341 -81 958 -1 
Q 575 78 400 197 
L 400 909 
z
" transform="scale(0.015625)"/>
      <path id="MicrosoftYaHei-74" d="M 2206 34 
Q 2006 -75 1666 -75 
Q 738 -75 738 953 
L 738 2950 
L 144 2950 
L 144 3456 
L 738 3456 
L 738 4288 
L 1347 4481 
L 1347 3456 
L 2206 3456 
L 2206 2950 
L 1347 2950 
L 1347 1063 
Q 1347 722 1462 575 
Q 1578 428 1847 428 
Q 2053 428 2206 544 
L 2206 34 
z
" transform="scale(0.015625)"/>
      <path id="MicrosoftYaHei-61" d="M 628 3216 
Q 1144 3538 1819 3538 
Q 3069 3538 3069 2225 
L 3069 0 
L 2463 0 
L 2463 534 
L 2447 534 
Q 2088 -81 1388 -81 
Q 884 -81 587 191 
Q 291 463 291 925 
Q 291 1894 1438 2053 
L 2463 2197 
Q 2463 3044 1763 3044 
Q 1141 3044 628 2625 
L 628 3216 
z
M 1653 1625 
Q 1228 1569 1067 1412 
Q 906 1256 906 975 
Q 906 728 1081 572 
Q 1256 416 1544 416 
Q 1944 416 2203 697 
Q 2463 978 2463 1403 
L 2463 1734 
L 1653 1625 
z
" transform="scale(0.015625)"/>
      <path id="MicrosoftYaHei-43" d="M 3938 200 
Q 3403 -81 2597 -81 
Q 1556 -81 934 580 
Q 313 1241 313 2328 
Q 313 3497 1013 4209 
Q 1713 4922 2791 4922 
Q 3484 4922 3938 4725 
L 3938 4072 
Q 3419 4359 2797 4359 
Q 1988 4359 1478 3820 
Q 969 3281 969 2366 
Q 969 1497 1444 986 
Q 1919 475 2688 475 
Q 3406 475 3938 800 
L 3938 200 
z
" transform="scale(0.015625)"/>
      <path id="MicrosoftYaHei-63" d="M 2934 156 
Q 2538 -81 1978 -81 
Q 1228 -81 772 400 
Q 316 881 316 1647 
Q 316 2497 808 3017 
Q 1300 3538 2125 3538 
Q 2600 3538 2938 3369 
L 2938 2763 
Q 2572 3031 2125 3031 
Q 1600 3031 1270 2667 
Q 941 2303 941 1697 
Q 941 1100 1252 762 
Q 1563 425 2091 425 
Q 2538 425 2934 719 
L 2934 156 
z
" transform="scale(0.015625)"/>
      <path id="MicrosoftYaHei-68" d="M 3466 0 
L 2856 0 
L 2856 1988 
Q 2856 3031 2081 3031 
Q 1684 3031 1421 2726 
Q 1159 2422 1159 1959 
L 1159 0 
L 547 0 
L 547 5116 
L 1159 5116 
L 1159 2888 
L 1172 2888 
Q 1569 3538 2300 3538 
Q 3466 3538 3466 2128 
L 3466 0 
z
" transform="scale(0.015625)"/>
      <path id="MicrosoftYaHei-65" d="M 3363 1572 
L 944 1572 
Q 959 1019 1246 717 
Q 1534 416 2050 416 
Q 2631 416 3116 788 
L 3116 241 
Q 2659 -81 1906 -81 
Q 1156 -81 736 394 
Q 316 869 316 1713 
Q 316 2506 777 3022 
Q 1238 3538 1922 3538 
Q 2600 3538 2981 3102 
Q 3363 2666 3363 1881 
L 3363 1572 
z
M 2750 2063 
Q 2747 2531 2528 2787 
Q 2309 3044 1913 3044 
Q 1547 3044 1280 2772 
Q 1013 2500 944 2063 
L 2750 2063 
z
" transform="scale(0.015625)"/>
      <path id="MicrosoftYaHei-5bf9" d="M 694 3691 
Q 1234 2909 1741 2166 
Q 2113 3081 2213 4147 
L 250 4147 
L 250 4622 
L 2725 4622 
L 2725 4166 
Q 2553 2809 2059 1700 
Q 2569 953 3044 247 
L 2594 -53 
Q 2203 563 1803 1181 
Q 1247 163 388 -622 
Q 263 -428 81 -166 
Q 975 638 1500 1647 
Q 919 2538 319 3434 
L 694 3691 
z
M 2975 3941 
L 5056 3941 
L 5056 5278 
L 5563 5278 
L 5563 3941 
L 6325 3941 
L 6325 3466 
L 5563 3466 
L 5563 191 
Q 5563 -716 4669 -716 
Q 4388 -716 3744 -709 
Q 3713 -478 3644 -147 
Q 4263 -197 4588 -197 
Q 5056 -197 5056 278 
L 5056 3466 
L 2975 3466 
L 2975 3941 
z
M 3088 2684 
L 3494 2928 
Q 4000 2184 4388 1484 
L 3919 1216 
Q 3550 1922 3088 2684 
z
" transform="scale(0.015625)"/>
      <path id="MicrosoftYaHei-91cd" d="M 113 -203 
L 2975 -203 
L 2975 259 
L 600 259 
L 600 628 
L 2975 628 
L 2975 1153 
L 1288 1153 
L 1288 928 
L 850 928 
L 850 3278 
L 2975 3278 
L 2975 3728 
L 163 3728 
L 163 4116 
L 2975 4116 
L 2975 4606 
Q 1841 4572 625 4547 
Q 588 4747 538 4972 
Q 3706 5009 5669 5141 
L 5744 4716 
Q 4631 4663 3425 4619 
L 3425 4116 
L 6263 4116 
L 6263 3728 
L 3425 3728 
L 3425 3278 
L 5569 3278 
L 5569 934 
L 5131 934 
L 5131 1153 
L 3425 1153 
L 3425 628 
L 5806 628 
L 5806 259 
L 3425 259 
L 3425 -203 
L 6263 -203 
L 6263 -591 
L 113 -591 
L 113 -203 
z
M 3425 1516 
L 5131 1516 
L 5131 2053 
L 3425 2053 
L 3425 1516 
z
M 1288 1516 
L 2975 1516 
L 2975 2053 
L 1288 2053 
L 1288 1516 
z
M 5131 2916 
L 3425 2916 
L 3425 2384 
L 5131 2384 
L 5131 2916 
z
M 1288 2384 
L 2975 2384 
L 2975 2916 
L 1288 2916 
L 1288 2384 
z
" transform="scale(0.015625)"/>
      <path id="MicrosoftYaHei-590d" d="M 81 3559 
Q 975 4259 1563 5347 
L 2113 5347 
Q 1963 5084 1803 4841 
L 6200 4841 
L 6200 4441 
L 1525 4441 
Q 1356 4209 1175 3997 
L 5575 3997 
L 5575 1697 
L 5138 1697 
L 5138 1859 
L 1463 1859 
L 1463 1634 
L 1031 1634 
L 1031 3828 
Q 716 3475 369 3166 
Q 263 3347 81 3559 
z
M 81 291 
Q 1231 853 1931 1709 
L 2488 1709 
Q 2350 1534 2206 1372 
L 5588 1372 
L 5588 1034 
Q 4981 494 4038 69 
Q 5016 -188 6319 -284 
Q 6150 -566 6025 -797 
Q 4503 -584 3416 -175 
Q 2303 -563 725 -872 
Q 606 -666 438 -447 
Q 1988 -191 2856 59 
Q 2153 397 1678 838 
Q 1084 303 388 -53 
Q 250 128 81 291 
z
M 1463 2247 
L 5138 2247 
L 5138 2747 
L 1463 2747 
L 1463 2247 
z
M 5138 3609 
L 1463 3609 
L 1463 3116 
L 5138 3116 
L 5138 3609 
z
M 4869 1009 
L 2025 1009 
Q 2572 553 3428 253 
Q 4297 591 4869 1009 
z
" transform="scale(0.015625)"/>
      <path id="MicrosoftYaHei-5217" d="M 1163 1953 
L 1469 2303 
Q 1944 1913 2334 1538 
Q 2753 2263 2925 3109 
L 1519 3109 
Q 1028 1984 313 1084 
Q 175 1403 63 1584 
Q 1006 2853 1516 4553 
L 269 4553 
L 269 5003 
L 3775 5003 
L 3775 4553 
L 2031 4553 
Q 1884 4038 1703 3559 
L 3438 3559 
L 3438 3103 
Q 2925 541 744 -853 
Q 581 -666 356 -472 
Q 1425 219 2069 1125 
Q 1713 1475 1163 1953 
z
M 5419 5228 
L 5919 5228 
L 5919 66 
Q 5919 -728 5200 -734 
Q 4856 -741 4181 -728 
Q 4150 -441 4081 -166 
Q 4725 -222 5031 -222 
Q 5419 -222 5419 197 
L 5419 5228 
z
M 4519 709 
L 4038 709 
L 4038 4534 
L 4519 4534 
L 4519 709 
z
" transform="scale(0.015625)"/>
      <path id="MicrosoftYaHei-76ee" d="M 944 5016 
L 5469 5016 
L 5469 -772 
L 4938 -772 
L 4938 -303 
L 1475 -303 
L 1475 -772 
L 944 -772 
L 944 5016 
z
M 1475 1341 
L 1475 159 
L 4938 159 
L 4938 1341 
L 1475 1341 
z
M 1475 2947 
L 1475 1778 
L 4938 1778 
L 4938 2947 
L 1475 2947 
z
M 1475 4553 
L 1475 3384 
L 4938 3384 
L 4938 4553 
L 1475 4553 
z
" transform="scale(0.015625)"/>
      <path id="MicrosoftYaHei-5f55" d="M 5450 2172 
L 5813 1759 
Q 5281 1409 4494 934 
Q 5225 366 6319 116 
Q 6125 -153 5975 -397 
Q 4275 122 3475 1366 
L 3475 9 
Q 3475 -747 2700 -747 
Q 2331 -747 1825 -734 
Q 1788 -503 1738 -197 
Q 2188 -247 2544 -253 
Q 2988 -253 2988 147 
L 2988 2384 
L 175 2384 
L 175 2803 
L 4838 2803 
L 4838 3472 
L 963 3472 
L 963 3872 
L 4838 3872 
L 4838 4534 
L 844 4534 
L 844 4953 
L 5306 4953 
L 5306 2803 
L 6275 2803 
L 6275 2384 
L 3475 2384 
L 3475 2241 
Q 3731 1678 4138 1253 
Q 4863 1722 5450 2172 
z
M 88 241 
Q 1313 622 2744 1147 
Q 2794 872 2838 672 
Q 1594 241 281 -234 
L 88 241 
z
M 956 2216 
Q 1556 1853 2175 1428 
L 1869 1016 
Q 1300 1447 669 1853 
L 956 2216 
z
" transform="scale(0.015625)"/>
      <path id="MicrosoftYaHei-6c" d="M 544 0 
L 544 5116 
L 1156 5116 
L 1156 0 
L 544 0 
z
" transform="scale(0.015625)"/>
      <path id="MicrosoftYaHei-2d" d="M 2328 1681 
L 488 1681 
L 488 2153 
L 2328 2153 
L 2328 1681 
z
" transform="scale(0.015625)"/>
      <path id="MicrosoftYaHei-7684" d="M 356 4284 
L 988 4284 
Q 1219 4853 1369 5322 
L 1894 5172 
Q 1697 4694 1513 4284 
L 2763 4284 
L 2763 -691 
L 2263 -691 
L 2263 -203 
L 856 -203 
L 856 -734 
L 356 -734 
L 356 4284 
z
M 2856 3003 
Q 3444 3934 3850 5322 
L 4375 5191 
Q 4216 4719 4050 4303 
L 6063 4303 
Q 5988 1091 5938 259 
Q 5894 -722 4906 -722 
Q 4338 -722 3750 -684 
Q 3713 -372 3650 -128 
L 3669 -128 
Q 4294 -216 4813 -216 
Q 5381 -216 5425 384 
Q 5494 1316 5525 3834 
L 3850 3834 
Q 3578 3231 3288 2772 
Q 3119 2891 2856 3003 
z
M 856 266 
L 2263 266 
L 2263 1847 
L 856 1847 
L 856 266 
z
M 2263 3816 
L 856 3816 
L 856 2297 
L 2263 2297 
L 2263 3816 
z
M 3406 2578 
L 3788 2859 
Q 4481 2041 4894 1441 
L 4431 1116 
Q 3988 1841 3406 2578 
z
" transform="scale(0.015625)"/>
      <path id="MicrosoftYaHei-5f71" d="M 119 2734 
L 1803 2734 
Q 1713 2903 1613 3053 
L 1897 3191 
L 875 3191 
L 875 3028 
L 450 3028 
L 450 5041 
L 3563 5041 
L 3563 3028 
L 3138 3028 
L 3138 3191 
L 2047 3191 
Q 2188 2972 2303 2734 
L 3969 2734 
L 3969 2372 
L 119 2372 
L 119 2734 
z
M 550 2016 
L 3475 2016 
L 3475 703 
L 3050 703 
L 3050 797 
L 2275 797 
L 2275 -72 
Q 2275 -791 1625 -791 
Q 1406 -791 1050 -784 
Q 1025 -559 969 -341 
Q 1288 -384 1513 -384 
Q 1844 -384 1844 -22 
L 1844 797 
L 975 797 
L 975 703 
L 550 703 
L 550 2016 
z
M 3600 -497 
Q 5038 378 5913 1734 
L 6300 1447 
Q 5319 -9 3931 -866 
Q 3763 -634 3600 -497 
z
M 3825 1784 
Q 4913 2522 5756 3634 
L 6144 3328 
Q 5200 2178 4150 1409 
Q 3981 1628 3825 1784 
z
M 3756 3616 
Q 4681 4203 5469 5222 
L 5856 4934 
Q 5075 3928 4088 3259 
Q 3906 3478 3756 3616 
z
M 3050 1678 
L 975 1678 
L 975 1134 
L 3050 1134 
L 3050 1678 
z
M 3138 4691 
L 875 4691 
L 875 4278 
L 3138 4278 
L 3138 4691 
z
M 875 3541 
L 3138 3541 
L 3138 3953 
L 875 3953 
L 875 3541 
z
M 81 -347 
Q 525 22 1019 609 
L 1381 359 
Q 838 -278 400 -634 
L 81 -347 
z
M 2575 372 
L 2869 641 
Q 3225 359 3675 -47 
L 3350 -366 
Q 3019 3 2575 372 
z
" transform="scale(0.015625)"/>
      <path id="MicrosoftYaHei-54cd" d="M 2425 4441 
L 3525 4441 
Q 3700 4884 3838 5316 
L 4344 5197 
Q 4181 4803 4019 4441 
L 5875 4441 
L 5875 -59 
Q 5875 -766 5225 -772 
Q 4900 -778 4444 -772 
Q 4413 -547 4356 -284 
Q 4781 -322 5100 -322 
Q 5438 -322 5438 72 
L 5438 4016 
L 2863 4016 
L 2863 -859 
L 2425 -859 
L 2425 4441 
z
M 413 4484 
L 1925 4484 
L 1925 166 
L 1488 166 
L 1488 641 
L 850 641 
L 850 72 
L 413 72 
L 413 4484 
z
M 3325 3191 
L 4975 3191 
L 4975 741 
L 3750 741 
L 3750 466 
L 3325 466 
L 3325 3191 
z
M 1488 4053 
L 850 4053 
L 850 1072 
L 1488 1072 
L 1488 4053 
z
M 4550 2803 
L 3750 2803 
L 3750 1128 
L 4550 1128 
L 4550 2803 
z
" transform="scale(0.015625)"/>
     </defs>
     <use xlink:href="#MicrosoftYaHei-53"/>
     <use xlink:href="#MicrosoftYaHei-74" transform="translate(54.214844 0)"/>
     <use xlink:href="#MicrosoftYaHei-61" transform="translate(91.470703 0)"/>
     <use xlink:href="#MicrosoftYaHei-74" transform="translate(146.744141 0)"/>
     <use xlink:href="#MicrosoftYaHei-20" transform="translate(184 0)"/>
     <use xlink:href="#MicrosoftYaHei-43" transform="translate(213.589844 0)"/>
     <use xlink:href="#MicrosoftYaHei-61" transform="translate(280.484375 0)"/>
     <use xlink:href="#MicrosoftYaHei-63" transform="translate(335.757812 0)"/>
     <use xlink:href="#MicrosoftYaHei-68" transform="translate(385.904297 0)"/>
     <use xlink:href="#MicrosoftYaHei-65" transform="translate(447.476562 0)"/>
     <use xlink:href="#MicrosoftYaHei-20" transform="translate(504.214844 0)"/>
     <use xlink:href="#MicrosoftYaHei-5bf9" transform="translate(533.804688 0)"/>
     <use xlink:href="#MicrosoftYaHei-91cd" transform="translate(633.804688 0)"/>
     <use xlink:href="#MicrosoftYaHei-590d" transform="translate(733.804688 0)"/>
     <use xlink:href="#MicrosoftYaHei-5217" transform="translate(833.804688 0)"/>
     <use xlink:href="#MicrosoftYaHei-76ee" transform="translate(933.804688 0)"/>
     <use xlink:href="#MicrosoftYaHei-5f55" transform="translate(1033.804688 0)"/>
     <use xlink:href="#MicrosoftYaHei-20" transform="translate(1133.804688 0)"/>
     <use xlink:href="#MicrosoftYaHei-28" transform="translate(1163.394531 0)"/>
     <use xlink:href="#MicrosoftYaHei-6c" transform="translate(1196.792969 0)"/>
     <use xlink:href="#MicrosoftYaHei-73" transform="translate(1223.404297 0)"/>
     <use xlink:href="#MicrosoftYaHei-20" transform="translate(1269.693359 0)"/>
     <use xlink:href="#MicrosoftYaHei-2d" transform="translate(1299.283203 0)"/>
     <use xlink:href="#MicrosoftYaHei-61" transform="translate(1342.544922 0)"/>
     <use xlink:href="#MicrosoftYaHei-6c" transform="translate(1397.818359 0)"/>
     <use xlink:href="#MicrosoftYaHei-29" transform="translate(1424.429688 0)"/>
     <use xlink:href="#MicrosoftYaHei-20" transform="translate(1457.828125 0)"/>
     <use xlink:href="#MicrosoftYaHei-7684" transform="translate(1487.417969 0)"/>
     <use xlink:href="#MicrosoftYaHei-5f71" transform="translate(1587.417969 0)"/>
     <use xlink:href="#MicrosoftYaHei-54cd" transform="translate(1687.417969 0)"/>
    </g>
   </g>
   <g id="legend_1">
    <g id="patch_7">
     <path d="M 424.01875 65.839375 
L 529.4 65.839375 
Q 531.4 65.839375 531.4 63.839375 
L 531.4 33.88 
Q 531.4 31.88 529.4 31.88 
L 424.01875 31.88 
Q 422.01875 31.88 422.01875 33.88 
L 422.01875 63.839375 
Q 422.01875 65.839375 424.01875 65.839375 
z
" style="fill: #ffffff; opacity: 0.9; stroke: #cccccc; stroke-linejoin: miter"/>
    </g>
    <g id="line2d_24">
     <path d="M 426.01875 40.37375 
L 436.01875 40.37375 
L 446.01875 40.37375 
" style="fill: none; stroke: #2e6fb0; stroke-width: 1.5; stroke-linecap: square"/>
     <g>
      <use xlink:href="#m1af57ffb1a" x="436.01875" y="40.37375" style="fill: #2e6fb0; stroke: #2e6fb0"/>
     </g>
    </g>
    <g id="text_27">
     <!-- 关闭 Stat Cache -->
     <g transform="translate(454.01875 43.87375) scale(0.1 -0.1)">
      <defs>
       <path id="MicrosoftYaHei-5173" d="M 131 -397 
Q 2372 400 2803 1897 
L 256 1897 
L 256 2372 
L 2894 2372 
Q 2906 2506 2906 3566 
L 625 3566 
L 625 4041 
L 2125 4041 
Q 1588 4631 1206 4991 
L 1569 5316 
Q 2106 4834 2550 4397 
L 2150 4041 
L 3641 4041 
Q 4125 4725 4494 5322 
L 5013 5034 
Q 4581 4484 4219 4041 
L 5800 4041 
L 5800 3566 
L 3438 3566 
Q 3438 2647 3428 2372 
L 6169 2372 
L 6169 1897 
L 3516 1897 
Q 4250 325 6281 -259 
Q 6025 -522 5819 -766 
Q 3894 -16 3203 1491 
Q 2694 28 494 -847 
Q 331 -634 131 -397 
z
" transform="scale(0.015625)"/>
       <path id="MicrosoftYaHei-95ed" d="M 1406 3253 
L 3563 3253 
L 3563 4172 
L 4025 4172 
L 4025 3253 
L 5138 3253 
L 5138 2803 
L 4025 2803 
L 4025 434 
Q 4025 -253 3319 -253 
Q 3063 -253 2500 -241 
Q 2463 47 2425 241 
Q 2894 209 3175 203 
Q 3556 203 3563 603 
L 3563 2278 
Q 2731 1172 1531 303 
Q 1388 491 1194 678 
Q 2541 1609 3416 2803 
L 1406 2803 
L 1406 3253 
z
M 2388 4478 
L 2388 4947 
L 6013 4947 
L 6013 116 
Q 6013 -791 5175 -791 
Q 4756 -791 4169 -778 
Q 4144 -591 4069 -272 
Q 4588 -309 5056 -309 
Q 5525 -309 5525 141 
L 5525 4478 
L 2388 4478 
z
M 419 4134 
L 906 4134 
L 906 -791 
L 419 -791 
L 419 4134 
z
M 744 5028 
L 1100 5341 
Q 1625 4853 2050 4391 
L 1644 4041 
Q 1206 4559 744 5028 
z
" transform="scale(0.015625)"/>
      </defs>
      <use xlink:href="#MicrosoftYaHei-5173"/>
      <use xlink:href="#MicrosoftYaHei-95ed" transform="translate(100 0)"/>
      <use xlink:href="#MicrosoftYaHei-20" transform="translate(200 0)"/>
      <use xlink:href="#MicrosoftYaHei-53" transform="translate(229.589844 0)"/>
      <use xlink:href="#MicrosoftYaHei-74" transform="translate(283.804688 0)"/>
      <use xlink:href="#MicrosoftYaHei-61" transform="translate(321.060547 0)"/>
      <use xlink:href="#MicrosoftYaHei-74" transform="translate(376.333984 0)"/>
      <use xlink:href="#MicrosoftYaHei-20" transform="translate(413.589844 0)"/>
      <use xlink:href="#MicrosoftYaHei-43" transform="translate(443.179688 0)"/>
      <use xlink:href="#MicrosoftYaHei-61" transform="translate(510.074219 0)"/>
      <use xlink:href="#MicrosoftYaHei-63" transform="translate(565.347656 0)"/>
      <use xlink:href="#MicrosoftYaHei-68" transform="translate(615.494141 0)"/>
      <use xlink:href="#MicrosoftYaHei-65" transform="translate(677.066406 0)"/>
     </g>
    </g>
    <g id="line2d_25">
     <path d="M 426.01875 55.853438 
L 436.01875 55.853438 
L 446.01875 55.853438 
" style="fill: none; stroke: #2e9d5b; stroke-width: 1.5; stroke-linecap: square"/>
     <g>
      <use xlink:href="#m2e377146f8" x="436.01875" y="55.853438" style="fill: #2e9d5b; stroke: #2e9d5b"/>
     </g>
    </g>
    <g id="text_28">
     <!-- 启用 Stat Cache -->
     <g transform="translate(454.01875 59.353438) scale(0.1 -0.1)">
      <defs>
       <path id="MicrosoftYaHei-7528" d="M 3088 -734 
L 3088 1253 
L 1269 1253 
Q 1163 -47 513 -903 
Q 350 -697 144 -472 
Q 550 103 694 803 
Q 831 1478 831 2716 
L 831 4947 
L 5925 4947 
L 5925 -22 
Q 5925 -766 5219 -766 
Q 4788 -766 4250 -747 
Q 4219 -541 4156 -228 
Q 4700 -266 5038 -266 
Q 5425 -266 5425 103 
L 5425 1253 
L 3588 1253 
L 3588 -734 
L 3088 -734 
z
M 3588 1703 
L 5425 1703 
L 5425 2872 
L 3588 2872 
L 3588 1703 
z
M 5425 4484 
L 3588 4484 
L 3588 3322 
L 5425 3322 
L 5425 4484 
z
M 1303 1703 
L 3088 1703 
L 3088 2872 
L 1331 2872 
Q 1350 2266 1303 1703 
z
M 1331 4484 
L 1331 3322 
L 3088 3322 
L 3088 4484 
L 1331 4484 
z
" transform="scale(0.015625)"/>
      </defs>
      <use xlink:href="#MicrosoftYaHei-542f"/>
      <use xlink:href="#MicrosoftYaHei-7528" transform="translate(100 0)"/>
      <use xlink:href="#MicrosoftYaHei-20" transform="translate(200 0)"/>
      <use xlink:href="#MicrosoftYaHei-53" transform="translate(229.589844 0)"/>
      <use xlink:href="#MicrosoftYaHei-74" transform="translate(283.804688 0)"/>
      <use xlink:href="#MicrosoftYaHei-61" transform="translate(321.060547 0)"/>
      <use xlink:href="#MicrosoftYaHei-74" transform="translate(376.333984 0)"/>
      <use xlink:href="#MicrosoftYaHei-20" transform="translate(413.589844 0)"/>
      <use xlink:href="#MicrosoftYaHei-43" transform="translate(443.179688 0)"/>
      <use xlink:href="#MicrosoftYaHei-61" transform="translate(510.074219 0)"/>
      <use xlink:href="#MicrosoftYaHei-63" transform="translate(565.347656 0)"/>
      <use xlink:href="#MicrosoftYaHei-68" transform="translate(615.494141 0)"/>
      <use xlink:href="#MicrosoftYaHei-65" transform="translate(677.066406 0)"/>
     </g>
    </g>
   </g>
  </g>
 </g>
 <defs>
  <clipPath id="p9dbb098a21">
   <rect x="47.45" y="26.88" width="488.95" height="230.68"/>
  </clipPath>
 </defs>
</svg>
