<?xml version="1.0" encoding="UTF-8" standalone="no"?>
<!-- Created with Inkscape (http://www.inkscape.org/) -->

<svg
   width="125.3584mm"
   height="84.13118mm"
   viewBox="0 0 125.3584 84.13118"
   version="1.1"
   id="svg1"
   inkscape:version="1.4.3 (0d15f75, 2025-12-25)"
   sodipodi:docname="hal-circle.svg"
   xmlns:inkscape="http://www.inkscape.org/namespaces/inkscape"
   xmlns:sodipodi="http://sodipodi.sourceforge.net/DTD/sodipodi-0.dtd"
   xmlns="http://www.w3.org/2000/svg"
   xmlns:svg="http://www.w3.org/2000/svg">
  <sodipodi:namedview
     id="namedview1"
     pagecolor="#ffffff"
     bordercolor="#000000"
     borderopacity="0.25"
     inkscape:showpageshadow="2"
     inkscape:pageopacity="0.0"
     inkscape:pagecheckerboard="0"
     inkscape:deskcolor="#d1d1d1"
     inkscape:document-units="mm"
     inkscape:zoom="1.9880533"
     inkscape:cx="121.97862"
     inkscape:cy="118.70909"
     inkscape:window-width="3200"
     inkscape:window-height="1876"
     inkscape:window-x="-12"
     inkscape:window-y="-12"
     inkscape:window-maximized="1"
     inkscape:current-layer="layer1" />
  <defs
     id="defs1">
    <path
       id="BhTpqD1LKDu-3nZODAcBDa"
       d="M -205.11914,-23.007812 V 59.634766 H -158.5 V -23.007812 Z M 30.599609,0 c -2.43,0 -4.679687,0.840625 -6.429687,2.390625 -8.03,0.31 -12.709453,7.1189844 -13.689453,13.458984 -0.22,1.36 -0.5402346,4.739922 0.759765,8.419922 -1.1,1.44 -1.7699215,3.151172 -1.9199215,4.951172 -0.05,0.46 -0.071016,1.138359 -0.041016,1.818359 v 9.441407 c 0,5.25 4.2807811,9.519531 9.5507811,9.519531 2.94,0 5.740781,-1.379922 7.550781,-3.669922 0.25,-0.01 0.51836,-0.02102 0.81836,-0.04102 5.89,-0.38 9.350937,-3.149921 11.210937,-5.419921 3.43,-4.12 3.520625,-8.879063 3.390625,-10.789063 -0.03,-1.23 -0.341562,-4.110312 -2.351562,-7.070312 0.33,-0.98 0.5,-2.000547 0.5,-3.060547 0,-5.47 0.101328,-9.449453 0.111328,-10.1894534 0.07,-2.54 -0.871094,-4.9605468 -2.621094,-6.8105468 C 35.669453,1.1092187 33.280703,0.06 30.720703,0 Z m -0.08984,8.2597656 h 0.0293 c 0.7,0.02 1.250469,0.6010156 1.230469,1.2910156 0,0.04 -0.109375,4.3984378 -0.109375,10.3984378 0,0.66 -0.529453,1.22 -1.189453,1.25 -0.67,0.02 -1.250312,-0.459141 -1.320312,-1.119141 -0.38,-3.7 -0.969532,-6.769922 -4.269532,-6.919922 h -0.140625 c -2.87,0 -3.540312,4.179375 -3.570312,4.359375 -0.01,0.05 -0.259531,1.520547 0.230469,3.060547 0.61,1.92 2.050156,3.048985 4.410156,3.458984 7.35,1.25 7.708984,5.520391 7.708984,6.400391 0.05,0.56 0.170235,3.149688 -1.509765,5.179688 -1.2,1.45 -2.99961,2.269921 -5.34961,2.419921 -2.78,0.18 -4.990312,-0.408281 -6.570312,-1.738281 v 4.179688 c 0,0.7 -0.559766,1.259765 -1.259766,1.259765 -0.69,0 -1.259766,-0.559765 -1.259766,-1.259765 v -9.650391 c -0.02,-0.51 -2.34e-4,-0.850625 0.0098,-0.890625 0.06,-0.67 0.630547,-1.178672 1.310547,-1.138672 0.67,0.03 1.199219,0.58 1.199219,1.25 v 0.71875 c 0.05,0.82 0.299375,2.291094 1.359375,3.371094 1.06,1.08 2.760781,1.548437 5.050781,1.398437 1.62,-0.109999 2.820312,-0.619531 3.570312,-1.519531 1.160001,-1.39 0.939454,-3.34914 0.939454,-3.36914 -0.01,-0.09 -0.01977,-0.179766 -0.0098,-0.259766 0,-0.16 -0.02938,-2.930859 -5.609375,-3.880859 -2.4,-0.41 -4.220625,-1.470625 -5.390625,-3.140625 -1.93,-2.74 -1.340313,-6.11 -1.320312,-6.25 0.339999,-2.3 2.100312,-6.65875 6.320312,-6.46875 1.91,0.09 3.249219,0.798828 4.199219,1.798828 0.02,-1.84 0.05078,-2.9387502 0.05078,-2.9687502 0.02,-0.68 0.579766,-1.2207032 1.259766,-1.2207032 z"
       fill="#ffffff" />
    <path
       id="BhTpqD1LKDu-3nZODAcBDa-8"
       d="M -205.11914,-23.007812 V 59.634766 H -158.5 V -23.007812 Z M 30.599609,0 c -2.43,0 -4.679687,0.840625 -6.429687,2.390625 -8.03,0.31 -12.709453,7.1189844 -13.689453,13.458984 -0.22,1.36 -0.5402346,4.739922 0.759765,8.419922 -1.1,1.44 -1.7699215,3.151172 -1.9199215,4.951172 -0.05,0.46 -0.071016,1.138359 -0.041016,1.818359 v 9.441407 c 0,5.25 4.2807811,9.519531 9.5507811,9.519531 2.94,0 5.740781,-1.379922 7.550781,-3.669922 0.25,-0.01 0.51836,-0.02102 0.81836,-0.04102 5.89,-0.38 9.350937,-3.149921 11.210937,-5.419921 3.43,-4.12 3.520625,-8.879063 3.390625,-10.789063 -0.03,-1.23 -0.341562,-4.110312 -2.351562,-7.070312 0.33,-0.98 0.5,-2.000547 0.5,-3.060547 0,-5.47 0.101328,-9.449453 0.111328,-10.1894534 0.07,-2.54 -0.871094,-4.9605468 -2.621094,-6.8105468 C 35.669453,1.1092187 33.280703,0.06 30.720703,0 Z m -0.08984,8.2597656 h 0.0293 c 0.7,0.02 1.250469,0.6010156 1.230469,1.2910156 0,0.04 -0.109375,4.3984378 -0.109375,10.3984378 0,0.66 -0.529453,1.22 -1.189453,1.25 -0.67,0.02 -1.250312,-0.459141 -1.320312,-1.119141 -0.38,-3.7 -0.969532,-6.769922 -4.269532,-6.919922 h -0.140625 c -2.87,0 -3.540312,4.179375 -3.570312,4.359375 -0.01,0.05 -0.259531,1.520547 0.230469,3.060547 0.61,1.92 2.050156,3.048985 4.410156,3.458984 7.35,1.25 7.708984,5.520391 7.708984,6.400391 0.05,0.56 0.170235,3.149688 -1.509765,5.179688 -1.2,1.45 -2.99961,2.269921 -5.34961,2.419921 -2.78,0.18 -4.990312,-0.408281 -6.570312,-1.738281 v 4.179688 c 0,0.7 -0.559766,1.259765 -1.259766,1.259765 -0.69,0 -1.259766,-0.559765 -1.259766,-1.259765 v -9.650391 c -0.02,-0.51 -2.34e-4,-0.850625 0.0098,-0.890625 0.06,-0.67 0.630547,-1.178672 1.310547,-1.138672 0.67,0.03 1.199219,0.58 1.199219,1.25 v 0.71875 c 0.05,0.82 0.299375,2.291094 1.359375,3.371094 1.06,1.08 2.760781,1.548437 5.050781,1.398437 1.62,-0.109999 2.820312,-0.619531 3.570312,-1.519531 1.160001,-1.39 0.939454,-3.34914 0.939454,-3.36914 -0.01,-0.09 -0.01977,-0.179766 -0.0098,-0.259766 0,-0.16 -0.02938,-2.930859 -5.609375,-3.880859 -2.4,-0.41 -4.220625,-1.470625 -5.390625,-3.140625 -1.93,-2.74 -1.340313,-6.11 -1.320312,-6.25 0.339999,-2.3 2.100312,-6.65875 6.320312,-6.46875 1.91,0.09 3.249219,0.798828 4.199219,1.798828 0.02,-1.84 0.05078,-2.9387502 0.05078,-2.9687502 0.02,-0.68 0.579766,-1.2207032 1.259766,-1.2207032 z"
       fill="#ffffff" />
    <path
       id="BhTpqD1LKDu-3nZODAcBDa-2"
       d="M -205.11914,-23.007812 V 59.634766 H -158.5 V -23.007812 Z M 30.599609,0 c -2.43,0 -4.679687,0.840625 -6.429687,2.390625 -8.03,0.31 -12.709453,7.1189844 -13.689453,13.458984 -0.22,1.36 -0.5402346,4.739922 0.759765,8.419922 -1.1,1.44 -1.7699215,3.151172 -1.9199215,4.951172 -0.05,0.46 -0.071016,1.138359 -0.041016,1.818359 v 9.441407 c 0,5.25 4.2807811,9.519531 9.5507811,9.519531 2.94,0 5.740781,-1.379922 7.550781,-3.669922 0.25,-0.01 0.51836,-0.02102 0.81836,-0.04102 5.89,-0.38 9.350937,-3.149921 11.210937,-5.419921 3.43,-4.12 3.520625,-8.879063 3.390625,-10.789063 -0.03,-1.23 -0.341562,-4.110312 -2.351562,-7.070312 0.33,-0.98 0.5,-2.000547 0.5,-3.060547 0,-5.47 0.101328,-9.449453 0.111328,-10.1894534 0.07,-2.54 -0.871094,-4.9605468 -2.621094,-6.8105468 C 35.669453,1.1092187 33.280703,0.06 30.720703,0 Z m -0.08984,8.2597656 h 0.0293 c 0.7,0.02 1.250469,0.6010156 1.230469,1.2910156 0,0.04 -0.109375,4.3984378 -0.109375,10.3984378 0,0.66 -0.529453,1.22 -1.189453,1.25 -0.67,0.02 -1.250312,-0.459141 -1.320312,-1.119141 -0.38,-3.7 -0.969532,-6.769922 -4.269532,-6.919922 h -0.140625 c -2.87,0 -3.540312,4.179375 -3.570312,4.359375 -0.01,0.05 -0.259531,1.520547 0.230469,3.060547 0.61,1.92 2.050156,3.048985 4.410156,3.458984 7.35,1.25 7.708984,5.520391 7.708984,6.400391 0.05,0.56 0.170235,3.149688 -1.509765,5.179688 -1.2,1.45 -2.99961,2.269921 -5.34961,2.419921 -2.78,0.18 -4.990312,-0.408281 -6.570312,-1.738281 v 4.179688 c 0,0.7 -0.559766,1.259765 -1.259766,1.259765 -0.69,0 -1.259766,-0.559765 -1.259766,-1.259765 v -9.650391 c -0.02,-0.51 -2.34e-4,-0.850625 0.0098,-0.890625 0.06,-0.67 0.630547,-1.178672 1.310547,-1.138672 0.67,0.03 1.199219,0.58 1.199219,1.25 v 0.71875 c 0.05,0.82 0.299375,2.291094 1.359375,3.371094 1.06,1.08 2.760781,1.548437 5.050781,1.398437 1.62,-0.109999 2.820312,-0.619531 3.570312,-1.519531 1.160001,-1.39 0.939454,-3.34914 0.939454,-3.36914 -0.01,-0.09 -0.01977,-0.179766 -0.0098,-0.259766 0,-0.16 -0.02938,-2.930859 -5.609375,-3.880859 -2.4,-0.41 -4.220625,-1.470625 -5.390625,-3.140625 -1.93,-2.74 -1.340313,-6.11 -1.320312,-6.25 0.339999,-2.3 2.100312,-6.65875 6.320312,-6.46875 1.91,0.09 3.249219,0.798828 4.199219,1.798828 0.02,-1.84 0.05078,-2.9387502 0.05078,-2.9687502 0.02,-0.68 0.579766,-1.2207032 1.259766,-1.2207032 z"
       fill="#ffffff" />
    <path
       id="BhTpqD1LKDu-3nZODAcBDa-9"
       d="M -205.11914,-23.007812 V 59.634766 H -158.5 V -23.007812 Z M 30.599609,0 c -2.43,0 -4.679687,0.840625 -6.429687,2.390625 -8.03,0.31 -12.709453,7.1189844 -13.689453,13.458984 -0.22,1.36 -0.5402346,4.739922 0.759765,8.419922 -1.1,1.44 -1.7699215,3.151172 -1.9199215,4.951172 -0.05,0.46 -0.071016,1.138359 -0.041016,1.818359 v 9.441407 c 0,5.25 4.2807811,9.519531 9.5507811,9.519531 2.94,0 5.740781,-1.379922 7.550781,-3.669922 0.25,-0.01 0.51836,-0.02102 0.81836,-0.04102 5.89,-0.38 9.350937,-3.149921 11.210937,-5.419921 3.43,-4.12 3.520625,-8.879063 3.390625,-10.789063 -0.03,-1.23 -0.341562,-4.110312 -2.351562,-7.070312 0.33,-0.98 0.5,-2.000547 0.5,-3.060547 0,-5.47 0.101328,-9.449453 0.111328,-10.1894534 0.07,-2.54 -0.871094,-4.9605468 -2.621094,-6.8105468 C 35.669453,1.1092187 33.280703,0.06 30.720703,0 Z m -0.08984,8.2597656 h 0.0293 c 0.7,0.02 1.250469,0.6010156 1.230469,1.2910156 0,0.04 -0.109375,4.3984378 -0.109375,10.3984378 0,0.66 -0.529453,1.22 -1.189453,1.25 -0.67,0.02 -1.250312,-0.459141 -1.320312,-1.119141 -0.38,-3.7 -0.969532,-6.769922 -4.269532,-6.919922 h -0.140625 c -2.87,0 -3.540312,4.179375 -3.570312,4.359375 -0.01,0.05 -0.259531,1.520547 0.230469,3.060547 0.61,1.92 2.050156,3.048985 4.410156,3.458984 7.35,1.25 7.708984,5.520391 7.708984,6.400391 0.05,0.56 0.170235,3.149688 -1.509765,5.179688 -1.2,1.45 -2.99961,2.269921 -5.34961,2.419921 -2.78,0.18 -4.990312,-0.408281 -6.570312,-1.738281 v 4.179688 c 0,0.7 -0.559766,1.259765 -1.259766,1.259765 -0.69,0 -1.259766,-0.559765 -1.259766,-1.259765 v -9.650391 c -0.02,-0.51 -2.34e-4,-0.850625 0.0098,-0.890625 0.06,-0.67 0.630547,-1.178672 1.310547,-1.138672 0.67,0.03 1.199219,0.58 1.199219,1.25 v 0.71875 c 0.05,0.82 0.299375,2.291094 1.359375,3.371094 1.06,1.08 2.760781,1.548437 5.050781,1.398437 1.62,-0.109999 2.820312,-0.619531 3.570312,-1.519531 1.160001,-1.39 0.939454,-3.34914 0.939454,-3.36914 -0.01,-0.09 -0.01977,-0.179766 -0.0098,-0.259766 0,-0.16 -0.02938,-2.930859 -5.609375,-3.880859 -2.4,-0.41 -4.220625,-1.470625 -5.390625,-3.140625 -1.93,-2.74 -1.340313,-6.11 -1.320312,-6.25 0.339999,-2.3 2.100312,-6.65875 6.320312,-6.46875 1.91,0.09 3.249219,0.798828 4.199219,1.798828 0.02,-1.84 0.05078,-2.9387502 0.05078,-2.9687502 0.02,-0.68 0.579766,-1.2207032 1.259766,-1.2207032 z"
       fill="#ffffff" />
    <path
       id="BhTpqD1LKDu-3nZODAcBDa-98"
       d="M -205.11914,-23.007812 V 59.634766 H -158.5 V -23.007812 Z M 30.599609,0 c -2.43,0 -4.679687,0.840625 -6.429687,2.390625 -8.03,0.31 -12.709453,7.1189844 -13.689453,13.458984 -0.22,1.36 -0.5402346,4.739922 0.759765,8.419922 -1.1,1.44 -1.7699215,3.151172 -1.9199215,4.951172 -0.05,0.46 -0.071016,1.138359 -0.041016,1.818359 v 9.441407 c 0,5.25 4.2807811,9.519531 9.5507811,9.519531 2.94,0 5.740781,-1.379922 7.550781,-3.669922 0.25,-0.01 0.51836,-0.02102 0.81836,-0.04102 5.89,-0.38 9.350937,-3.149921 11.210937,-5.419921 3.43,-4.12 3.520625,-8.879063 3.390625,-10.789063 -0.03,-1.23 -0.341562,-4.110312 -2.351562,-7.070312 0.33,-0.98 0.5,-2.000547 0.5,-3.060547 0,-5.47 0.101328,-9.449453 0.111328,-10.1894534 0.07,-2.54 -0.871094,-4.9605468 -2.621094,-6.8105468 C 35.669453,1.1092187 33.280703,0.06 30.720703,0 Z m -0.08984,8.2597656 h 0.0293 c 0.7,0.02 1.250469,0.6010156 1.230469,1.2910156 0,0.04 -0.109375,4.3984378 -0.109375,10.3984378 0,0.66 -0.529453,1.22 -1.189453,1.25 -0.67,0.02 -1.250312,-0.459141 -1.320312,-1.119141 -0.38,-3.7 -0.969532,-6.769922 -4.269532,-6.919922 h -0.140625 c -2.87,0 -3.540312,4.179375 -3.570312,4.359375 -0.01,0.05 -0.259531,1.520547 0.230469,3.060547 0.61,1.92 2.050156,3.048985 4.410156,3.458984 7.35,1.25 7.708984,5.520391 7.708984,6.400391 0.05,0.56 0.170235,3.149688 -1.509765,5.179688 -1.2,1.45 -2.99961,2.269921 -5.34961,2.419921 -2.78,0.18 -4.990312,-0.408281 -6.570312,-1.738281 v 4.179688 c 0,0.7 -0.559766,1.259765 -1.259766,1.259765 -0.69,0 -1.259766,-0.559765 -1.259766,-1.259765 v -9.650391 c -0.02,-0.51 -2.34e-4,-0.850625 0.0098,-0.890625 0.06,-0.67 0.630547,-1.178672 1.310547,-1.138672 0.67,0.03 1.199219,0.58 1.199219,1.25 v 0.71875 c 0.05,0.82 0.299375,2.291094 1.359375,3.371094 1.06,1.08 2.760781,1.548437 5.050781,1.398437 1.62,-0.109999 2.820312,-0.619531 3.570312,-1.519531 1.160001,-1.39 0.939454,-3.34914 0.939454,-3.36914 -0.01,-0.09 -0.01977,-0.179766 -0.0098,-0.259766 0,-0.16 -0.02938,-2.930859 -5.609375,-3.880859 -2.4,-0.41 -4.220625,-1.470625 -5.390625,-3.140625 -1.93,-2.74 -1.340313,-6.11 -1.320312,-6.25 0.339999,-2.3 2.100312,-6.65875 6.320312,-6.46875 1.91,0.09 3.249219,0.798828 4.199219,1.798828 0.02,-1.84 0.05078,-2.9387502 0.05078,-2.9687502 0.02,-0.68 0.579766,-1.2207032 1.259766,-1.2207032 z"
       fill="#ffffff" />
    <path
       id="BhTpqD1LKDu-3nZODAcBDa-0"
       d="M -205.11914,-23.007812 V 59.634766 H -158.5 V -23.007812 Z M 30.599609,0 c -2.43,0 -4.679687,0.840625 -6.429687,2.390625 -8.03,0.31 -12.709453,7.1189844 -13.689453,13.458984 -0.22,1.36 -0.5402346,4.739922 0.759765,8.419922 -1.1,1.44 -1.7699215,3.151172 -1.9199215,4.951172 -0.05,0.46 -0.071016,1.138359 -0.041016,1.818359 v 9.441407 c 0,5.25 4.2807811,9.519531 9.5507811,9.519531 2.94,0 5.740781,-1.379922 7.550781,-3.669922 0.25,-0.01 0.51836,-0.02102 0.81836,-0.04102 5.89,-0.38 9.350937,-3.149921 11.210937,-5.419921 3.43,-4.12 3.520625,-8.879063 3.390625,-10.789063 -0.03,-1.23 -0.341562,-4.110312 -2.351562,-7.070312 0.33,-0.98 0.5,-2.000547 0.5,-3.060547 0,-5.47 0.101328,-9.449453 0.111328,-10.1894534 0.07,-2.54 -0.871094,-4.9605468 -2.621094,-6.8105468 C 35.669453,1.1092187 33.280703,0.06 30.720703,0 Z m -0.08984,8.2597656 h 0.0293 c 0.7,0.02 1.250469,0.6010156 1.230469,1.2910156 0,0.04 -0.109375,4.3984378 -0.109375,10.3984378 0,0.66 -0.529453,1.22 -1.189453,1.25 -0.67,0.02 -1.250312,-0.459141 -1.320312,-1.119141 -0.38,-3.7 -0.969532,-6.769922 -4.269532,-6.919922 h -0.140625 c -2.87,0 -3.540312,4.179375 -3.570312,4.359375 -0.01,0.05 -0.259531,1.520547 0.230469,3.060547 0.61,1.92 2.050156,3.048985 4.410156,3.458984 7.35,1.25 7.708984,5.520391 7.708984,6.400391 0.05,0.56 0.170235,3.149688 -1.509765,5.179688 -1.2,1.45 -2.99961,2.269921 -5.34961,2.419921 -2.78,0.18 -4.990312,-0.408281 -6.570312,-1.738281 v 4.179688 c 0,0.7 -0.559766,1.259765 -1.259766,1.259765 -0.69,0 -1.259766,-0.559765 -1.259766,-1.259765 v -9.650391 c -0.02,-0.51 -2.34e-4,-0.850625 0.0098,-0.890625 0.06,-0.67 0.630547,-1.178672 1.310547,-1.138672 0.67,0.03 1.199219,0.58 1.199219,1.25 v 0.71875 c 0.05,0.82 0.299375,2.291094 1.359375,3.371094 1.06,1.08 2.760781,1.548437 5.050781,1.398437 1.62,-0.109999 2.820312,-0.619531 3.570312,-1.519531 1.160001,-1.39 0.939454,-3.34914 0.939454,-3.36914 -0.01,-0.09 -0.01977,-0.179766 -0.0098,-0.259766 0,-0.16 -0.02938,-2.930859 -5.609375,-3.880859 -2.4,-0.41 -4.220625,-1.470625 -5.390625,-3.140625 -1.93,-2.74 -1.340313,-6.11 -1.320312,-6.25 0.339999,-2.3 2.100312,-6.65875 6.320312,-6.46875 1.91,0.09 3.249219,0.798828 4.199219,1.798828 0.02,-1.84 0.05078,-2.9387502 0.05078,-2.9687502 0.02,-0.68 0.579766,-1.2207032 1.259766,-1.2207032 z"
       fill="#ffffff" />
    <path
       id="BhTpqD1LKDu-3nZODAcBDa-6"
       d="M -205.11914,-23.007812 V 59.634766 H -158.5 V -23.007812 Z M 30.599609,0 c -2.43,0 -4.679687,0.840625 -6.429687,2.390625 -8.03,0.31 -12.709453,7.1189844 -13.689453,13.458984 -0.22,1.36 -0.5402346,4.739922 0.759765,8.419922 -1.1,1.44 -1.7699215,3.151172 -1.9199215,4.951172 -0.05,0.46 -0.071016,1.138359 -0.041016,1.818359 v 9.441407 c 0,5.25 4.2807811,9.519531 9.5507811,9.519531 2.94,0 5.740781,-1.379922 7.550781,-3.669922 0.25,-0.01 0.51836,-0.02102 0.81836,-0.04102 5.89,-0.38 9.350937,-3.149921 11.210937,-5.419921 3.43,-4.12 3.520625,-8.879063 3.390625,-10.789063 -0.03,-1.23 -0.341562,-4.110312 -2.351562,-7.070312 0.33,-0.98 0.5,-2.000547 0.5,-3.060547 0,-5.47 0.101328,-9.449453 0.111328,-10.1894534 0.07,-2.54 -0.871094,-4.9605468 -2.621094,-6.8105468 C 35.669453,1.1092187 33.280703,0.06 30.720703,0 Z m -0.08984,8.2597656 h 0.0293 c 0.7,0.02 1.250469,0.6010156 1.230469,1.2910156 0,0.04 -0.109375,4.3984378 -0.109375,10.3984378 0,0.66 -0.529453,1.22 -1.189453,1.25 -0.67,0.02 -1.250312,-0.459141 -1.320312,-1.119141 -0.38,-3.7 -0.969532,-6.769922 -4.269532,-6.919922 h -0.140625 c -2.87,0 -3.540312,4.179375 -3.570312,4.359375 -0.01,0.05 -0.259531,1.520547 0.230469,3.060547 0.61,1.92 2.050156,3.048985 4.410156,3.458984 7.35,1.25 7.708984,5.520391 7.708984,6.400391 0.05,0.56 0.170235,3.149688 -1.509765,5.179688 -1.2,1.45 -2.99961,2.269921 -5.34961,2.419921 -2.78,0.18 -4.990312,-0.408281 -6.570312,-1.738281 v 4.179688 c 0,0.7 -0.559766,1.259765 -1.259766,1.259765 -0.69,0 -1.259766,-0.559765 -1.259766,-1.259765 v -9.650391 c -0.02,-0.51 -2.34e-4,-0.850625 0.0098,-0.890625 0.06,-0.67 0.630547,-1.178672 1.310547,-1.138672 0.67,0.03 1.199219,0.58 1.199219,1.25 v 0.71875 c 0.05,0.82 0.299375,2.291094 1.359375,3.371094 1.06,1.08 2.760781,1.548437 5.050781,1.398437 1.62,-0.109999 2.820312,-0.619531 3.570312,-1.519531 1.160001,-1.39 0.939454,-3.34914 0.939454,-3.36914 -0.01,-0.09 -0.01977,-0.179766 -0.0098,-0.259766 0,-0.16 -0.02938,-2.930859 -5.609375,-3.880859 -2.4,-0.41 -4.220625,-1.470625 -5.390625,-3.140625 -1.93,-2.74 -1.340313,-6.11 -1.320312,-6.25 0.339999,-2.3 2.100312,-6.65875 6.320312,-6.46875 1.91,0.09 3.249219,0.798828 4.199219,1.798828 0.02,-1.84 0.05078,-2.9387502 0.05078,-2.9687502 0.02,-0.68 0.579766,-1.2207032 1.259766,-1.2207032 z"
       fill="#ffffff" />
    <path
       id="BhTpqD1LKDu-3nZODAcBDa-4"
       d="M -205.11914,-23.007812 V 59.634766 H -158.5 V -23.007812 Z M 30.599609,0 c -2.43,0 -4.679687,0.840625 -6.429687,2.390625 -8.03,0.31 -12.709453,7.1189844 -13.689453,13.458984 -0.22,1.36 -0.5402346,4.739922 0.759765,8.419922 -1.1,1.44 -1.7699215,3.151172 -1.9199215,4.951172 -0.05,0.46 -0.071016,1.138359 -0.041016,1.818359 v 9.441407 c 0,5.25 4.2807811,9.519531 9.5507811,9.519531 2.94,0 5.740781,-1.379922 7.550781,-3.669922 0.25,-0.01 0.51836,-0.02102 0.81836,-0.04102 5.89,-0.38 9.350937,-3.149921 11.210937,-5.419921 3.43,-4.12 3.520625,-8.879063 3.390625,-10.789063 -0.03,-1.23 -0.341562,-4.110312 -2.351562,-7.070312 0.33,-0.98 0.5,-2.000547 0.5,-3.060547 0,-5.47 0.101328,-9.449453 0.111328,-10.1894534 0.07,-2.54 -0.871094,-4.9605468 -2.621094,-6.8105468 C 35.669453,1.1092187 33.280703,0.06 30.720703,0 Z m -0.08984,8.2597656 h 0.0293 c 0.7,0.02 1.250469,0.6010156 1.230469,1.2910156 0,0.04 -0.109375,4.3984378 -0.109375,10.3984378 0,0.66 -0.529453,1.22 -1.189453,1.25 -0.67,0.02 -1.250312,-0.459141 -1.320312,-1.119141 -0.38,-3.7 -0.969532,-6.769922 -4.269532,-6.919922 h -0.140625 c -2.87,0 -3.540312,4.179375 -3.570312,4.359375 -0.01,0.05 -0.259531,1.520547 0.230469,3.060547 0.61,1.92 2.050156,3.048985 4.410156,3.458984 7.35,1.25 7.708984,5.520391 7.708984,6.400391 0.05,0.56 0.170235,3.149688 -1.509765,5.179688 -1.2,1.45 -2.99961,2.269921 -5.34961,2.419921 -2.78,0.18 -4.990312,-0.408281 -6.570312,-1.738281 v 4.179688 c 0,0.7 -0.559766,1.259765 -1.259766,1.259765 -0.69,0 -1.259766,-0.559765 -1.259766,-1.259765 v -9.650391 c -0.02,-0.51 -2.34e-4,-0.850625 0.0098,-0.890625 0.06,-0.67 0.630547,-1.178672 1.310547,-1.138672 0.67,0.03 1.199219,0.58 1.199219,1.25 v 0.71875 c 0.05,0.82 0.299375,2.291094 1.359375,3.371094 1.06,1.08 2.760781,1.548437 5.050781,1.398437 1.62,-0.109999 2.820312,-0.619531 3.570312,-1.519531 1.160001,-1.39 0.939454,-3.34914 0.939454,-3.36914 -0.01,-0.09 -0.01977,-0.179766 -0.0098,-0.259766 0,-0.16 -0.02938,-2.930859 -5.609375,-3.880859 -2.4,-0.41 -4.220625,-1.470625 -5.390625,-3.140625 -1.93,-2.74 -1.340313,-6.11 -1.320312,-6.25 0.339999,-2.3 2.100312,-6.65875 6.320312,-6.46875 1.91,0.09 3.249219,0.798828 4.199219,1.798828 0.02,-1.84 0.05078,-2.9387502 0.05078,-2.9687502 0.02,-0.68 0.579766,-1.2207032 1.259766,-1.2207032 z"
       fill="#ffffff" />
    <path
       id="BhTpqD1LKDu-3nZODAcBDa-5"
       d="M -205.11914,-23.007812 V 59.634766 H -158.5 V -23.007812 Z M 30.599609,0 c -2.43,0 -4.679687,0.840625 -6.429687,2.390625 -8.03,0.31 -12.709453,7.1189844 -13.689453,13.458984 -0.22,1.36 -0.5402346,4.739922 0.759765,8.419922 -1.1,1.44 -1.7699215,3.151172 -1.9199215,4.951172 -0.05,0.46 -0.071016,1.138359 -0.041016,1.818359 v 9.441407 c 0,5.25 4.2807811,9.519531 9.5507811,9.519531 2.94,0 5.740781,-1.379922 7.550781,-3.669922 0.25,-0.01 0.51836,-0.02102 0.81836,-0.04102 5.89,-0.38 9.350937,-3.149921 11.210937,-5.419921 3.43,-4.12 3.520625,-8.879063 3.390625,-10.789063 -0.03,-1.23 -0.341562,-4.110312 -2.351562,-7.070312 0.33,-0.98 0.5,-2.000547 0.5,-3.060547 0,-5.47 0.101328,-9.449453 0.111328,-10.1894534 0.07,-2.54 -0.871094,-4.9605468 -2.621094,-6.8105468 C 35.669453,1.1092187 33.280703,0.06 30.720703,0 Z m -0.08984,8.2597656 h 0.0293 c 0.7,0.02 1.250469,0.6010156 1.230469,1.2910156 0,0.04 -0.109375,4.3984378 -0.109375,10.3984378 0,0.66 -0.529453,1.22 -1.189453,1.25 -0.67,0.02 -1.250312,-0.459141 -1.320312,-1.119141 -0.38,-3.7 -0.969532,-6.769922 -4.269532,-6.919922 h -0.140625 c -2.87,0 -3.540312,4.179375 -3.570312,4.359375 -0.01,0.05 -0.259531,1.520547 0.230469,3.060547 0.61,1.92 2.050156,3.048985 4.410156,3.458984 7.35,1.25 7.708984,5.520391 7.708984,6.400391 0.05,0.56 0.170235,3.149688 -1.509765,5.179688 -1.2,1.45 -2.99961,2.269921 -5.34961,2.419921 -2.78,0.18 -4.990312,-0.408281 -6.570312,-1.738281 v 4.179688 c 0,0.7 -0.559766,1.259765 -1.259766,1.259765 -0.69,0 -1.259766,-0.559765 -1.259766,-1.259765 v -9.650391 c -0.02,-0.51 -2.34e-4,-0.850625 0.0098,-0.890625 0.06,-0.67 0.630547,-1.178672 1.310547,-1.138672 0.67,0.03 1.199219,0.58 1.199219,1.25 v 0.71875 c 0.05,0.82 0.299375,2.291094 1.359375,3.371094 1.06,1.08 2.760781,1.548437 5.050781,1.398437 1.62,-0.109999 2.820312,-0.619531 3.570312,-1.519531 1.160001,-1.39 0.939454,-3.34914 0.939454,-3.36914 -0.01,-0.09 -0.01977,-0.179766 -0.0098,-0.259766 0,-0.16 -0.02938,-2.930859 -5.609375,-3.880859 -2.4,-0.41 -4.220625,-1.470625 -5.390625,-3.140625 -1.93,-2.74 -1.340313,-6.11 -1.320312,-6.25 0.339999,-2.3 2.100312,-6.65875 6.320312,-6.46875 1.91,0.09 3.249219,0.798828 4.199219,1.798828 0.02,-1.84 0.05078,-2.9387502 0.05078,-2.9687502 0.02,-0.68 0.579766,-1.2207032 1.259766,-1.2207032 z"
       fill="#ffffff" />
    <path
       id="BhTpqD1LKDu-3nZODAcBDa-00"
       d="M -205.11914,-23.007812 V 59.634766 H -158.5 V -23.007812 Z M 30.599609,0 c -2.43,0 -4.679687,0.840625 -6.429687,2.390625 -8.03,0.31 -12.709453,7.1189844 -13.689453,13.458984 -0.22,1.36 -0.5402346,4.739922 0.759765,8.419922 -1.1,1.44 -1.7699215,3.151172 -1.9199215,4.951172 -0.05,0.46 -0.071016,1.138359 -0.041016,1.818359 v 9.441407 c 0,5.25 4.2807811,9.519531 9.5507811,9.519531 2.94,0 5.740781,-1.379922 7.550781,-3.669922 0.25,-0.01 0.51836,-0.02102 0.81836,-0.04102 5.89,-0.38 9.350937,-3.149921 11.210937,-5.419921 3.43,-4.12 3.520625,-8.879063 3.390625,-10.789063 -0.03,-1.23 -0.341562,-4.110312 -2.351562,-7.070312 0.33,-0.98 0.5,-2.000547 0.5,-3.060547 0,-5.47 0.101328,-9.449453 0.111328,-10.1894534 0.07,-2.54 -0.871094,-4.9605468 -2.621094,-6.8105468 C 35.669453,1.1092187 33.280703,0.06 30.720703,0 Z m -0.08984,8.2597656 h 0.0293 c 0.7,0.02 1.250469,0.6010156 1.230469,1.2910156 0,0.04 -0.109375,4.3984378 -0.109375,10.3984378 0,0.66 -0.529453,1.22 -1.189453,1.25 -0.67,0.02 -1.250312,-0.459141 -1.320312,-1.119141 -0.38,-3.7 -0.969532,-6.769922 -4.269532,-6.919922 h -0.140625 c -2.87,0 -3.540312,4.179375 -3.570312,4.359375 -0.01,0.05 -0.259531,1.520547 0.230469,3.060547 0.61,1.92 2.050156,3.048985 4.410156,3.458984 7.35,1.25 7.708984,5.520391 7.708984,6.400391 0.05,0.56 0.170235,3.149688 -1.509765,5.179688 -1.2,1.45 -2.99961,2.269921 -5.34961,2.419921 -2.78,0.18 -4.990312,-0.408281 -6.570312,-1.738281 v 4.179688 c 0,0.7 -0.559766,1.259765 -1.259766,1.259765 -0.69,0 -1.259766,-0.559765 -1.259766,-1.259765 v -9.650391 c -0.02,-0.51 -2.34e-4,-0.850625 0.0098,-0.890625 0.06,-0.67 0.630547,-1.178672 1.310547,-1.138672 0.67,0.03 1.199219,0.58 1.199219,1.25 v 0.71875 c 0.05,0.82 0.299375,2.291094 1.359375,3.371094 1.06,1.08 2.760781,1.548437 5.050781,1.398437 1.62,-0.109999 2.820312,-0.619531 3.570312,-1.519531 1.160001,-1.39 0.939454,-3.34914 0.939454,-3.36914 -0.01,-0.09 -0.01977,-0.179766 -0.0098,-0.259766 0,-0.16 -0.02938,-2.930859 -5.609375,-3.880859 -2.4,-0.41 -4.220625,-1.470625 -5.390625,-3.140625 -1.93,-2.74 -1.340313,-6.11 -1.320312,-6.25 0.339999,-2.3 2.100312,-6.65875 6.320312,-6.46875 1.91,0.09 3.249219,0.798828 4.199219,1.798828 0.02,-1.84 0.05078,-2.9387502 0.05078,-2.9687502 0.02,-0.68 0.579766,-1.2207032 1.259766,-1.2207032 z"
       fill="#ffffff" />
    <path
       id="BhTpqD1LKDu-3nZODAcBDa-3"
       d="M -205.11914,-23.007812 V 59.634766 H -158.5 V -23.007812 Z M 30.599609,0 c -2.43,0 -4.679687,0.840625 -6.429687,2.390625 -8.03,0.31 -12.709453,7.1189844 -13.689453,13.458984 -0.22,1.36 -0.5402346,4.739922 0.759765,8.419922 -1.1,1.44 -1.7699215,3.151172 -1.9199215,4.951172 -0.05,0.46 -0.071016,1.138359 -0.041016,1.818359 v 9.441407 c 0,5.25 4.2807811,9.519531 9.5507811,9.519531 2.94,0 5.740781,-1.379922 7.550781,-3.669922 0.25,-0.01 0.51836,-0.02102 0.81836,-0.04102 5.89,-0.38 9.350937,-3.149921 11.210937,-5.419921 3.43,-4.12 3.520625,-8.879063 3.390625,-10.789063 -0.03,-1.23 -0.341562,-4.110312 -2.351562,-7.070312 0.33,-0.98 0.5,-2.000547 0.5,-3.060547 0,-5.47 0.101328,-9.449453 0.111328,-10.1894534 0.07,-2.54 -0.871094,-4.9605468 -2.621094,-6.8105468 C 35.669453,1.1092187 33.280703,0.06 30.720703,0 Z m -0.08984,8.2597656 h 0.0293 c 0.7,0.02 1.250469,0.6010156 1.230469,1.2910156 0,0.04 -0.109375,4.3984378 -0.109375,10.3984378 0,0.66 -0.529453,1.22 -1.189453,1.25 -0.67,0.02 -1.250312,-0.459141 -1.320312,-1.119141 -0.38,-3.7 -0.969532,-6.769922 -4.269532,-6.919922 h -0.140625 c -2.87,0 -3.540312,4.179375 -3.570312,4.359375 -0.01,0.05 -0.259531,1.520547 0.230469,3.060547 0.61,1.92 2.050156,3.048985 4.410156,3.458984 7.35,1.25 7.708984,5.520391 7.708984,6.400391 0.05,0.56 0.170235,3.149688 -1.509765,5.179688 -1.2,1.45 -2.99961,2.269921 -5.34961,2.419921 -2.78,0.18 -4.990312,-0.408281 -6.570312,-1.738281 v 4.179688 c 0,0.7 -0.559766,1.259765 -1.259766,1.259765 -0.69,0 -1.259766,-0.559765 -1.259766,-1.259765 v -9.650391 c -0.02,-0.51 -2.34e-4,-0.850625 0.0098,-0.890625 0.06,-0.67 0.630547,-1.178672 1.310547,-1.138672 0.67,0.03 1.199219,0.58 1.199219,1.25 v 0.71875 c 0.05,0.82 0.299375,2.291094 1.359375,3.371094 1.06,1.08 2.760781,1.548437 5.050781,1.398437 1.62,-0.109999 2.820312,-0.619531 3.570312,-1.519531 1.160001,-1.39 0.939454,-3.34914 0.939454,-3.36914 -0.01,-0.09 -0.01977,-0.179766 -0.0098,-0.259766 0,-0.16 -0.02938,-2.930859 -5.609375,-3.880859 -2.4,-0.41 -4.220625,-1.470625 -5.390625,-3.140625 -1.93,-2.74 -1.340313,-6.11 -1.320312,-6.25 0.339999,-2.3 2.100312,-6.65875 6.320312,-6.46875 1.91,0.09 3.249219,0.798828 4.199219,1.798828 0.02,-1.84 0.05078,-2.9387502 0.05078,-2.9687502 0.02,-0.68 0.579766,-1.2207032 1.259766,-1.2207032 z"
       fill="#ffffff" />
    <path
       id="BhTpqD1LKDu-3nZODAcBDa-34"
       d="M -205.11914,-23.007812 V 59.634766 H -158.5 V -23.007812 Z M 30.599609,0 c -2.43,0 -4.679687,0.840625 -6.429687,2.390625 -8.03,0.31 -12.709453,7.1189844 -13.689453,13.458984 -0.22,1.36 -0.5402346,4.739922 0.759765,8.419922 -1.1,1.44 -1.7699215,3.151172 -1.9199215,4.951172 -0.05,0.46 -0.071016,1.138359 -0.041016,1.818359 v 9.441407 c 0,5.25 4.2807811,9.519531 9.5507811,9.519531 2.94,0 5.740781,-1.379922 7.550781,-3.669922 0.25,-0.01 0.51836,-0.02102 0.81836,-0.04102 5.89,-0.38 9.350937,-3.149921 11.210937,-5.419921 3.43,-4.12 3.520625,-8.879063 3.390625,-10.789063 -0.03,-1.23 -0.341562,-4.110312 -2.351562,-7.070312 0.33,-0.98 0.5,-2.000547 0.5,-3.060547 0,-5.47 0.101328,-9.449453 0.111328,-10.1894534 0.07,-2.54 -0.871094,-4.9605468 -2.621094,-6.8105468 C 35.669453,1.1092187 33.280703,0.06 30.720703,0 Z m -0.08984,8.2597656 h 0.0293 c 0.7,0.02 1.250469,0.6010156 1.230469,1.2910156 0,0.04 -0.109375,4.3984378 -0.109375,10.3984378 0,0.66 -0.529453,1.22 -1.189453,1.25 -0.67,0.02 -1.250312,-0.459141 -1.320312,-1.119141 -0.38,-3.7 -0.969532,-6.769922 -4.269532,-6.919922 h -0.140625 c -2.87,0 -3.540312,4.179375 -3.570312,4.359375 -0.01,0.05 -0.259531,1.520547 0.230469,3.060547 0.61,1.92 2.050156,3.048985 4.410156,3.458984 7.35,1.25 7.708984,5.520391 7.708984,6.400391 0.05,0.56 0.170235,3.149688 -1.509765,5.179688 -1.2,1.45 -2.99961,2.269921 -5.34961,2.419921 -2.78,0.18 -4.990312,-0.408281 -6.570312,-1.738281 v 4.179688 c 0,0.7 -0.559766,1.259765 -1.259766,1.259765 -0.69,0 -1.259766,-0.559765 -1.259766,-1.259765 v -9.650391 c -0.02,-0.51 -2.34e-4,-0.850625 0.0098,-0.890625 0.06,-0.67 0.630547,-1.178672 1.310547,-1.138672 0.67,0.03 1.199219,0.58 1.199219,1.25 v 0.71875 c 0.05,0.82 0.299375,2.291094 1.359375,3.371094 1.06,1.08 2.760781,1.548437 5.050781,1.398437 1.62,-0.109999 2.820312,-0.619531 3.570312,-1.519531 1.160001,-1.39 0.939454,-3.34914 0.939454,-3.36914 -0.01,-0.09 -0.01977,-0.179766 -0.0098,-0.259766 0,-0.16 -0.02938,-2.930859 -5.609375,-3.880859 -2.4,-0.41 -4.220625,-1.470625 -5.390625,-3.140625 -1.93,-2.74 -1.340313,-6.11 -1.320312,-6.25 0.339999,-2.3 2.100312,-6.65875 6.320312,-6.46875 1.91,0.09 3.249219,0.798828 4.199219,1.798828 0.02,-1.84 0.05078,-2.9387502 0.05078,-2.9687502 0.02,-0.68 0.579766,-1.2207032 1.259766,-1.2207032 z"
       fill="#ffffff" />
    <path
       id="BhTpqD1LKDu-3nZODAcBDa-06"
       d="M -205.11914,-23.007812 V 59.634766 H -158.5 V -23.007812 Z M 30.599609,0 c -2.43,0 -4.679687,0.840625 -6.429687,2.390625 -8.03,0.31 -12.709453,7.1189844 -13.689453,13.458984 -0.22,1.36 -0.5402346,4.739922 0.759765,8.419922 -1.1,1.44 -1.7699215,3.151172 -1.9199215,4.951172 -0.05,0.46 -0.071016,1.138359 -0.041016,1.818359 v 9.441407 c 0,5.25 4.2807811,9.519531 9.5507811,9.519531 2.94,0 5.740781,-1.379922 7.550781,-3.669922 0.25,-0.01 0.51836,-0.02102 0.81836,-0.04102 5.89,-0.38 9.350937,-3.149921 11.210937,-5.419921 3.43,-4.12 3.520625,-8.879063 3.390625,-10.789063 -0.03,-1.23 -0.341562,-4.110312 -2.351562,-7.070312 0.33,-0.98 0.5,-2.000547 0.5,-3.060547 0,-5.47 0.101328,-9.449453 0.111328,-10.1894534 0.07,-2.54 -0.871094,-4.9605468 -2.621094,-6.8105468 C 35.669453,1.1092187 33.280703,0.06 30.720703,0 Z m -0.08984,8.2597656 h 0.0293 c 0.7,0.02 1.250469,0.6010156 1.230469,1.2910156 0,0.04 -0.109375,4.3984378 -0.109375,10.3984378 0,0.66 -0.529453,1.22 -1.189453,1.25 -0.67,0.02 -1.250312,-0.459141 -1.320312,-1.119141 -0.38,-3.7 -0.969532,-6.769922 -4.269532,-6.919922 h -0.140625 c -2.87,0 -3.540312,4.179375 -3.570312,4.359375 -0.01,0.05 -0.259531,1.520547 0.230469,3.060547 0.61,1.92 2.050156,3.048985 4.410156,3.458984 7.35,1.25 7.708984,5.520391 7.708984,6.400391 0.05,0.56 0.170235,3.149688 -1.509765,5.179688 -1.2,1.45 -2.99961,2.269921 -5.34961,2.419921 -2.78,0.18 -4.990312,-0.408281 -6.570312,-1.738281 v 4.179688 c 0,0.7 -0.559766,1.259765 -1.259766,1.259765 -0.69,0 -1.259766,-0.559765 -1.259766,-1.259765 v -9.650391 c -0.02,-0.51 -2.34e-4,-0.850625 0.0098,-0.890625 0.06,-0.67 0.630547,-1.178672 1.310547,-1.138672 0.67,0.03 1.199219,0.58 1.199219,1.25 v 0.71875 c 0.05,0.82 0.299375,2.291094 1.359375,3.371094 1.06,1.08 2.760781,1.548437 5.050781,1.398437 1.62,-0.109999 2.820312,-0.619531 3.570312,-1.519531 1.160001,-1.39 0.939454,-3.34914 0.939454,-3.36914 -0.01,-0.09 -0.01977,-0.179766 -0.0098,-0.259766 0,-0.16 -0.02938,-2.930859 -5.609375,-3.880859 -2.4,-0.41 -4.220625,-1.470625 -5.390625,-3.140625 -1.93,-2.74 -1.340313,-6.11 -1.320312,-6.25 0.339999,-2.3 2.100312,-6.65875 6.320312,-6.46875 1.91,0.09 3.249219,0.798828 4.199219,1.798828 0.02,-1.84 0.05078,-2.9387502 0.05078,-2.9687502 0.02,-0.68 0.579766,-1.2207032 1.259766,-1.2207032 z"
       fill="#ffffff" />
    <path
       id="BhTpqD1LKDu-3nZODAcBDa-84"
       d="M -205.11914,-23.007812 V 59.634766 H -158.5 V -23.007812 Z M 30.599609,0 c -2.43,0 -4.679687,0.840625 -6.429687,2.390625 -8.03,0.31 -12.709453,7.1189844 -13.689453,13.458984 -0.22,1.36 -0.5402346,4.739922 0.759765,8.419922 -1.1,1.44 -1.7699215,3.151172 -1.9199215,4.951172 -0.05,0.46 -0.071016,1.138359 -0.041016,1.818359 v 9.441407 c 0,5.25 4.2807811,9.519531 9.5507811,9.519531 2.94,0 5.740781,-1.379922 7.550781,-3.669922 0.25,-0.01 0.51836,-0.02102 0.81836,-0.04102 5.89,-0.38 9.350937,-3.149921 11.210937,-5.419921 3.43,-4.12 3.520625,-8.879063 3.390625,-10.789063 -0.03,-1.23 -0.341562,-4.110312 -2.351562,-7.070312 0.33,-0.98 0.5,-2.000547 0.5,-3.060547 0,-5.47 0.101328,-9.449453 0.111328,-10.1894534 0.07,-2.54 -0.871094,-4.9605468 -2.621094,-6.8105468 C 35.669453,1.1092187 33.280703,0.06 30.720703,0 Z m -0.08984,8.2597656 h 0.0293 c 0.7,0.02 1.250469,0.6010156 1.230469,1.2910156 0,0.04 -0.109375,4.3984378 -0.109375,10.3984378 0,0.66 -0.529453,1.22 -1.189453,1.25 -0.67,0.02 -1.250312,-0.459141 -1.320312,-1.119141 -0.38,-3.7 -0.969532,-6.769922 -4.269532,-6.919922 h -0.140625 c -2.87,0 -3.540312,4.179375 -3.570312,4.359375 -0.01,0.05 -0.259531,1.520547 0.230469,3.060547 0.61,1.92 2.050156,3.048985 4.410156,3.458984 7.35,1.25 7.708984,5.520391 7.708984,6.400391 0.05,0.56 0.170235,3.149688 -1.509765,5.179688 -1.2,1.45 -2.99961,2.269921 -5.34961,2.419921 -2.78,0.18 -4.990312,-0.408281 -6.570312,-1.738281 v 4.179688 c 0,0.7 -0.559766,1.259765 -1.259766,1.259765 -0.69,0 -1.259766,-0.559765 -1.259766,-1.259765 v -9.650391 c -0.02,-0.51 -2.34e-4,-0.850625 0.0098,-0.890625 0.06,-0.67 0.630547,-1.178672 1.310547,-1.138672 0.67,0.03 1.199219,0.58 1.199219,1.25 v 0.71875 c 0.05,0.82 0.299375,2.291094 1.359375,3.371094 1.06,1.08 2.760781,1.548437 5.050781,1.398437 1.62,-0.109999 2.820312,-0.619531 3.570312,-1.519531 1.160001,-1.39 0.939454,-3.34914 0.939454,-3.36914 -0.01,-0.09 -0.01977,-0.179766 -0.0098,-0.259766 0,-0.16 -0.02938,-2.930859 -5.609375,-3.880859 -2.4,-0.41 -4.220625,-1.470625 -5.390625,-3.140625 -1.93,-2.74 -1.340313,-6.11 -1.320312,-6.25 0.339999,-2.3 2.100312,-6.65875 6.320312,-6.46875 1.91,0.09 3.249219,0.798828 4.199219,1.798828 0.02,-1.84 0.05078,-2.9387502 0.05078,-2.9687502 0.02,-0.68 0.579766,-1.2207032 1.259766,-1.2207032 z"
       fill="#ffffff" />
    <path
       id="BhTpqD1LKDu-3nZODAcBDa-37"
       d="M -205.11914,-23.007812 V 59.634766 H -158.5 V -23.007812 Z M 30.599609,0 c -2.43,0 -4.679687,0.840625 -6.429687,2.390625 -8.03,0.31 -12.709453,7.1189844 -13.689453,13.458984 -0.22,1.36 -0.5402346,4.739922 0.759765,8.419922 -1.1,1.44 -1.7699215,3.151172 -1.9199215,4.951172 -0.05,0.46 -0.071016,1.138359 -0.041016,1.818359 v 9.441407 c 0,5.25 4.2807811,9.519531 9.5507811,9.519531 2.94,0 5.740781,-1.379922 7.550781,-3.669922 0.25,-0.01 0.51836,-0.02102 0.81836,-0.04102 5.89,-0.38 9.350937,-3.149921 11.210937,-5.419921 3.43,-4.12 3.520625,-8.879063 3.390625,-10.789063 -0.03,-1.23 -0.341562,-4.110312 -2.351562,-7.070312 0.33,-0.98 0.5,-2.000547 0.5,-3.060547 0,-5.47 0.101328,-9.449453 0.111328,-10.1894534 0.07,-2.54 -0.871094,-4.9605468 -2.621094,-6.8105468 C 35.669453,1.1092187 33.280703,0.06 30.720703,0 Z m -0.08984,8.2597656 h 0.0293 c 0.7,0.02 1.250469,0.6010156 1.230469,1.2910156 0,0.04 -0.109375,4.3984378 -0.109375,10.3984378 0,0.66 -0.529453,1.22 -1.189453,1.25 -0.67,0.02 -1.250312,-0.459141 -1.320312,-1.119141 -0.38,-3.7 -0.969532,-6.769922 -4.269532,-6.919922 h -0.140625 c -2.87,0 -3.540312,4.179375 -3.570312,4.359375 -0.01,0.05 -0.259531,1.520547 0.230469,3.060547 0.61,1.92 2.050156,3.048985 4.410156,3.458984 7.35,1.25 7.708984,5.520391 7.708984,6.400391 0.05,0.56 0.170235,3.149688 -1.509765,5.179688 -1.2,1.45 -2.99961,2.269921 -5.34961,2.419921 -2.78,0.18 -4.990312,-0.408281 -6.570312,-1.738281 v 4.179688 c 0,0.7 -0.559766,1.259765 -1.259766,1.259765 -0.69,0 -1.259766,-0.559765 -1.259766,-1.259765 v -9.650391 c -0.02,-0.51 -2.34e-4,-0.850625 0.0098,-0.890625 0.06,-0.67 0.630547,-1.178672 1.310547,-1.138672 0.67,0.03 1.199219,0.58 1.199219,1.25 v 0.71875 c 0.05,0.82 0.299375,2.291094 1.359375,3.371094 1.06,1.08 2.760781,1.548437 5.050781,1.398437 1.62,-0.109999 2.820312,-0.619531 3.570312,-1.519531 1.160001,-1.39 0.939454,-3.34914 0.939454,-3.36914 -0.01,-0.09 -0.01977,-0.179766 -0.0098,-0.259766 0,-0.16 -0.02938,-2.930859 -5.609375,-3.880859 -2.4,-0.41 -4.220625,-1.470625 -5.390625,-3.140625 -1.93,-2.74 -1.340313,-6.11 -1.320312,-6.25 0.339999,-2.3 2.100312,-6.65875 6.320312,-6.46875 1.91,0.09 3.249219,0.798828 4.199219,1.798828 0.02,-1.84 0.05078,-2.9387502 0.05078,-2.9687502 0.02,-0.68 0.579766,-1.2207032 1.259766,-1.2207032 z"
       fill="#ffffff" />
    <path
       id="BhTpqD1LKDu-3nZODAcBDa-29"
       d="M -205.11914,-23.007812 V 59.634766 H -158.5 V -23.007812 Z M 30.599609,0 c -2.43,0 -4.679687,0.840625 -6.429687,2.390625 -8.03,0.31 -12.709453,7.1189844 -13.689453,13.458984 -0.22,1.36 -0.5402346,4.739922 0.759765,8.419922 -1.1,1.44 -1.7699215,3.151172 -1.9199215,4.951172 -0.05,0.46 -0.071016,1.138359 -0.041016,1.818359 v 9.441407 c 0,5.25 4.2807811,9.519531 9.5507811,9.519531 2.94,0 5.740781,-1.379922 7.550781,-3.669922 0.25,-0.01 0.51836,-0.02102 0.81836,-0.04102 5.89,-0.38 9.350937,-3.149921 11.210937,-5.419921 3.43,-4.12 3.520625,-8.879063 3.390625,-10.789063 -0.03,-1.23 -0.341562,-4.110312 -2.351562,-7.070312 0.33,-0.98 0.5,-2.000547 0.5,-3.060547 0,-5.47 0.101328,-9.449453 0.111328,-10.1894534 0.07,-2.54 -0.871094,-4.9605468 -2.621094,-6.8105468 C 35.669453,1.1092187 33.280703,0.06 30.720703,0 Z m -0.08984,8.2597656 h 0.0293 c 0.7,0.02 1.250469,0.6010156 1.230469,1.2910156 0,0.04 -0.109375,4.3984378 -0.109375,10.3984378 0,0.66 -0.529453,1.22 -1.189453,1.25 -0.67,0.02 -1.250312,-0.459141 -1.320312,-1.119141 -0.38,-3.7 -0.969532,-6.769922 -4.269532,-6.919922 h -0.140625 c -2.87,0 -3.540312,4.179375 -3.570312,4.359375 -0.01,0.05 -0.259531,1.520547 0.230469,3.060547 0.61,1.92 2.050156,3.048985 4.410156,3.458984 7.35,1.25 7.708984,5.520391 7.708984,6.400391 0.05,0.56 0.170235,3.149688 -1.509765,5.179688 -1.2,1.45 -2.99961,2.269921 -5.34961,2.419921 -2.78,0.18 -4.990312,-0.408281 -6.570312,-1.738281 v 4.179688 c 0,0.7 -0.559766,1.259765 -1.259766,1.259765 -0.69,0 -1.259766,-0.559765 -1.259766,-1.259765 v -9.650391 c -0.02,-0.51 -2.34e-4,-0.850625 0.0098,-0.890625 0.06,-0.67 0.630547,-1.178672 1.310547,-1.138672 0.67,0.03 1.199219,0.58 1.199219,1.25 v 0.71875 c 0.05,0.82 0.299375,2.291094 1.359375,3.371094 1.06,1.08 2.760781,1.548437 5.050781,1.398437 1.62,-0.109999 2.820312,-0.619531 3.570312,-1.519531 1.160001,-1.39 0.939454,-3.34914 0.939454,-3.36914 -0.01,-0.09 -0.01977,-0.179766 -0.0098,-0.259766 0,-0.16 -0.02938,-2.930859 -5.609375,-3.880859 -2.4,-0.41 -4.220625,-1.470625 -5.390625,-3.140625 -1.93,-2.74 -1.340313,-6.11 -1.320312,-6.25 0.339999,-2.3 2.100312,-6.65875 6.320312,-6.46875 1.91,0.09 3.249219,0.798828 4.199219,1.798828 0.02,-1.84 0.05078,-2.9387502 0.05078,-2.9687502 0.02,-0.68 0.579766,-1.2207032 1.259766,-1.2207032 z"
       fill="#ffffff" />
    <path
       id="BhTpqD1LKDu-3nZODAcBDa-59"
       d="M -205.11914,-23.007812 V 59.634766 H -158.5 V -23.007812 Z M 30.599609,0 c -2.43,0 -4.679687,0.840625 -6.429687,2.390625 -8.03,0.31 -12.709453,7.1189844 -13.689453,13.458984 -0.22,1.36 -0.5402346,4.739922 0.759765,8.419922 -1.1,1.44 -1.7699215,3.151172 -1.9199215,4.951172 -0.05,0.46 -0.071016,1.138359 -0.041016,1.818359 v 9.441407 c 0,5.25 4.2807811,9.519531 9.5507811,9.519531 2.94,0 5.740781,-1.379922 7.550781,-3.669922 0.25,-0.01 0.51836,-0.02102 0.81836,-0.04102 5.89,-0.38 9.350937,-3.149921 11.210937,-5.419921 3.43,-4.12 3.520625,-8.879063 3.390625,-10.789063 -0.03,-1.23 -0.341562,-4.110312 -2.351562,-7.070312 0.33,-0.98 0.5,-2.000547 0.5,-3.060547 0,-5.47 0.101328,-9.449453 0.111328,-10.1894534 0.07,-2.54 -0.871094,-4.9605468 -2.621094,-6.8105468 C 35.669453,1.1092187 33.280703,0.06 30.720703,0 Z m -0.08984,8.2597656 h 0.0293 c 0.7,0.02 1.250469,0.6010156 1.230469,1.2910156 0,0.04 -0.109375,4.3984378 -0.109375,10.3984378 0,0.66 -0.529453,1.22 -1.189453,1.25 -0.67,0.02 -1.250312,-0.459141 -1.320312,-1.119141 -0.38,-3.7 -0.969532,-6.769922 -4.269532,-6.919922 h -0.140625 c -2.87,0 -3.540312,4.179375 -3.570312,4.359375 -0.01,0.05 -0.259531,1.520547 0.230469,3.060547 0.61,1.92 2.050156,3.048985 4.410156,3.458984 7.35,1.25 7.708984,5.520391 7.708984,6.400391 0.05,0.56 0.170235,3.149688 -1.509765,5.179688 -1.2,1.45 -2.99961,2.269921 -5.34961,2.419921 -2.78,0.18 -4.990312,-0.408281 -6.570312,-1.738281 v 4.179688 c 0,0.7 -0.559766,1.259765 -1.259766,1.259765 -0.69,0 -1.259766,-0.559765 -1.259766,-1.259765 v -9.650391 c -0.02,-0.51 -2.34e-4,-0.850625 0.0098,-0.890625 0.06,-0.67 0.630547,-1.178672 1.310547,-1.138672 0.67,0.03 1.199219,0.58 1.199219,1.25 v 0.71875 c 0.05,0.82 0.299375,2.291094 1.359375,3.371094 1.06,1.08 2.760781,1.548437 5.050781,1.398437 1.62,-0.109999 2.820312,-0.619531 3.570312,-1.519531 1.160001,-1.39 0.939454,-3.34914 0.939454,-3.36914 -0.01,-0.09 -0.01977,-0.179766 -0.0098,-0.259766 0,-0.16 -0.02938,-2.930859 -5.609375,-3.880859 -2.4,-0.41 -4.220625,-1.470625 -5.390625,-3.140625 -1.93,-2.74 -1.340313,-6.11 -1.320312,-6.25 0.339999,-2.3 2.100312,-6.65875 6.320312,-6.46875 1.91,0.09 3.249219,0.798828 4.199219,1.798828 0.02,-1.84 0.05078,-2.9387502 0.05078,-2.9687502 0.02,-0.68 0.579766,-1.2207032 1.259766,-1.2207032 z"
       fill="#ffffff" />
    <path
       id="BhTpqD1LKDu-3nZODAcBDa-07"
       d="M -205.11914,-23.007812 V 59.634766 H -158.5 V -23.007812 Z M 30.599609,0 c -2.43,0 -4.679687,0.840625 -6.429687,2.390625 -8.03,0.31 -12.709453,7.1189844 -13.689453,13.458984 -0.22,1.36 -0.5402346,4.739922 0.759765,8.419922 -1.1,1.44 -1.7699215,3.151172 -1.9199215,4.951172 -0.05,0.46 -0.071016,1.138359 -0.041016,1.818359 v 9.441407 c 0,5.25 4.2807811,9.519531 9.5507811,9.519531 2.94,0 5.740781,-1.379922 7.550781,-3.669922 0.25,-0.01 0.51836,-0.02102 0.81836,-0.04102 5.89,-0.38 9.350937,-3.149921 11.210937,-5.419921 3.43,-4.12 3.520625,-8.879063 3.390625,-10.789063 -0.03,-1.23 -0.341562,-4.110312 -2.351562,-7.070312 0.33,-0.98 0.5,-2.000547 0.5,-3.060547 0,-5.47 0.101328,-9.449453 0.111328,-10.1894534 0.07,-2.54 -0.871094,-4.9605468 -2.621094,-6.8105468 C 35.669453,1.1092187 33.280703,0.06 30.720703,0 Z m -0.08984,8.2597656 h 0.0293 c 0.7,0.02 1.250469,0.6010156 1.230469,1.2910156 0,0.04 -0.109375,4.3984378 -0.109375,10.3984378 0,0.66 -0.529453,1.22 -1.189453,1.25 -0.67,0.02 -1.250312,-0.459141 -1.320312,-1.119141 -0.38,-3.7 -0.969532,-6.769922 -4.269532,-6.919922 h -0.140625 c -2.87,0 -3.540312,4.179375 -3.570312,4.359375 -0.01,0.05 -0.259531,1.520547 0.230469,3.060547 0.61,1.92 2.050156,3.048985 4.410156,3.458984 7.35,1.25 7.708984,5.520391 7.708984,6.400391 0.05,0.56 0.170235,3.149688 -1.509765,5.179688 -1.2,1.45 -2.99961,2.269921 -5.34961,2.419921 -2.78,0.18 -4.990312,-0.408281 -6.570312,-1.738281 v 4.179688 c 0,0.7 -0.559766,1.259765 -1.259766,1.259765 -0.69,0 -1.259766,-0.559765 -1.259766,-1.259765 v -9.650391 c -0.02,-0.51 -2.34e-4,-0.850625 0.0098,-0.890625 0.06,-0.67 0.630547,-1.178672 1.310547,-1.138672 0.67,0.03 1.199219,0.58 1.199219,1.25 v 0.71875 c 0.05,0.82 0.299375,2.291094 1.359375,3.371094 1.06,1.08 2.760781,1.548437 5.050781,1.398437 1.62,-0.109999 2.820312,-0.619531 3.570312,-1.519531 1.160001,-1.39 0.939454,-3.34914 0.939454,-3.36914 -0.01,-0.09 -0.01977,-0.179766 -0.0098,-0.259766 0,-0.16 -0.02938,-2.930859 -5.609375,-3.880859 -2.4,-0.41 -4.220625,-1.470625 -5.390625,-3.140625 -1.93,-2.74 -1.340313,-6.11 -1.320312,-6.25 0.339999,-2.3 2.100312,-6.65875 6.320312,-6.46875 1.91,0.09 3.249219,0.798828 4.199219,1.798828 0.02,-1.84 0.05078,-2.9387502 0.05078,-2.9687502 0.02,-0.68 0.579766,-1.2207032 1.259766,-1.2207032 z"
       fill="#ffffff" />
    <path
       id="BhTpqD1LKDu-3nZODAcBDa-61"
       d="M -205.11914,-23.007812 V 59.634766 H -158.5 V -23.007812 Z M 30.599609,0 c -2.43,0 -4.679687,0.840625 -6.429687,2.390625 -8.03,0.31 -12.709453,7.1189844 -13.689453,13.458984 -0.22,1.36 -0.5402346,4.739922 0.759765,8.419922 -1.1,1.44 -1.7699215,3.151172 -1.9199215,4.951172 -0.05,0.46 -0.071016,1.138359 -0.041016,1.818359 v 9.441407 c 0,5.25 4.2807811,9.519531 9.5507811,9.519531 2.94,0 5.740781,-1.379922 7.550781,-3.669922 0.25,-0.01 0.51836,-0.02102 0.81836,-0.04102 5.89,-0.38 9.350937,-3.149921 11.210937,-5.419921 3.43,-4.12 3.520625,-8.879063 3.390625,-10.789063 -0.03,-1.23 -0.341562,-4.110312 -2.351562,-7.070312 0.33,-0.98 0.5,-2.000547 0.5,-3.060547 0,-5.47 0.101328,-9.449453 0.111328,-10.1894534 0.07,-2.54 -0.871094,-4.9605468 -2.621094,-6.8105468 C 35.669453,1.1092187 33.280703,0.06 30.720703,0 Z m -0.08984,8.2597656 h 0.0293 c 0.7,0.02 1.250469,0.6010156 1.230469,1.2910156 0,0.04 -0.109375,4.3984378 -0.109375,10.3984378 0,0.66 -0.529453,1.22 -1.189453,1.25 -0.67,0.02 -1.250312,-0.459141 -1.320312,-1.119141 -0.38,-3.7 -0.969532,-6.769922 -4.269532,-6.919922 h -0.140625 c -2.87,0 -3.540312,4.179375 -3.570312,4.359375 -0.01,0.05 -0.259531,1.520547 0.230469,3.060547 0.61,1.92 2.050156,3.048985 4.410156,3.458984 7.35,1.25 7.708984,5.520391 7.708984,6.400391 0.05,0.56 0.170235,3.149688 -1.509765,5.179688 -1.2,1.45 -2.99961,2.269921 -5.34961,2.419921 -2.78,0.18 -4.990312,-0.408281 -6.570312,-1.738281 v 4.179688 c 0,0.7 -0.559766,1.259765 -1.259766,1.259765 -0.69,0 -1.259766,-0.559765 -1.259766,-1.259765 v -9.650391 c -0.02,-0.51 -2.34e-4,-0.850625 0.0098,-0.890625 0.06,-0.67 0.630547,-1.178672 1.310547,-1.138672 0.67,0.03 1.199219,0.58 1.199219,1.25 v 0.71875 c 0.05,0.82 0.299375,2.291094 1.359375,3.371094 1.06,1.08 2.760781,1.548437 5.050781,1.398437 1.62,-0.109999 2.820312,-0.619531 3.570312,-1.519531 1.160001,-1.39 0.939454,-3.34914 0.939454,-3.36914 -0.01,-0.09 -0.01977,-0.179766 -0.0098,-0.259766 0,-0.16 -0.02938,-2.930859 -5.609375,-3.880859 -2.4,-0.41 -4.220625,-1.470625 -5.390625,-3.140625 -1.93,-2.74 -1.340313,-6.11 -1.320312,-6.25 0.339999,-2.3 2.100312,-6.65875 6.320312,-6.46875 1.91,0.09 3.249219,0.798828 4.199219,1.798828 0.02,-1.84 0.05078,-2.9387502 0.05078,-2.9687502 0.02,-0.68 0.579766,-1.2207032 1.259766,-1.2207032 z"
       fill="#ffffff" />
    <path
       id="BhTpqD1LKDu-3nZODAcBDa-20"
       d="M -205.11914,-23.007812 V 59.634766 H -158.5 V -23.007812 Z M 30.599609,0 c -2.43,0 -4.679687,0.840625 -6.429687,2.390625 -8.03,0.31 -12.709453,7.1189844 -13.689453,13.458984 -0.22,1.36 -0.5402346,4.739922 0.759765,8.419922 -1.1,1.44 -1.7699215,3.151172 -1.9199215,4.951172 -0.05,0.46 -0.071016,1.138359 -0.041016,1.818359 v 9.441407 c 0,5.25 4.2807811,9.519531 9.5507811,9.519531 2.94,0 5.740781,-1.379922 7.550781,-3.669922 0.25,-0.01 0.51836,-0.02102 0.81836,-0.04102 5.89,-0.38 9.350937,-3.149921 11.210937,-5.419921 3.43,-4.12 3.520625,-8.879063 3.390625,-10.789063 -0.03,-1.23 -0.341562,-4.110312 -2.351562,-7.070312 0.33,-0.98 0.5,-2.000547 0.5,-3.060547 0,-5.47 0.101328,-9.449453 0.111328,-10.1894534 0.07,-2.54 -0.871094,-4.9605468 -2.621094,-6.8105468 C 35.669453,1.1092187 33.280703,0.06 30.720703,0 Z m -0.08984,8.2597656 h 0.0293 c 0.7,0.02 1.250469,0.6010156 1.230469,1.2910156 0,0.04 -0.109375,4.3984378 -0.109375,10.3984378 0,0.66 -0.529453,1.22 -1.189453,1.25 -0.67,0.02 -1.250312,-0.459141 -1.320312,-1.119141 -0.38,-3.7 -0.969532,-6.769922 -4.269532,-6.919922 h -0.140625 c -2.87,0 -3.540312,4.179375 -3.570312,4.359375 -0.01,0.05 -0.259531,1.520547 0.230469,3.060547 0.61,1.92 2.050156,3.048985 4.410156,3.458984 7.35,1.25 7.708984,5.520391 7.708984,6.400391 0.05,0.56 0.170235,3.149688 -1.509765,5.179688 -1.2,1.45 -2.99961,2.269921 -5.34961,2.419921 -2.78,0.18 -4.990312,-0.408281 -6.570312,-1.738281 v 4.179688 c 0,0.7 -0.559766,1.259765 -1.259766,1.259765 -0.69,0 -1.259766,-0.559765 -1.259766,-1.259765 v -9.650391 c -0.02,-0.51 -2.34e-4,-0.850625 0.0098,-0.890625 0.06,-0.67 0.630547,-1.178672 1.310547,-1.138672 0.67,0.03 1.199219,0.58 1.199219,1.25 v 0.71875 c 0.05,0.82 0.299375,2.291094 1.359375,3.371094 1.06,1.08 2.760781,1.548437 5.050781,1.398437 1.62,-0.109999 2.820312,-0.619531 3.570312,-1.519531 1.160001,-1.39 0.939454,-3.34914 0.939454,-3.36914 -0.01,-0.09 -0.01977,-0.179766 -0.0098,-0.259766 0,-0.16 -0.02938,-2.930859 -5.609375,-3.880859 -2.4,-0.41 -4.220625,-1.470625 -5.390625,-3.140625 -1.93,-2.74 -1.340313,-6.11 -1.320312,-6.25 0.339999,-2.3 2.100312,-6.65875 6.320312,-6.46875 1.91,0.09 3.249219,0.798828 4.199219,1.798828 0.02,-1.84 0.05078,-2.9387502 0.05078,-2.9687502 0.02,-0.68 0.579766,-1.2207032 1.259766,-1.2207032 z"
       fill="#ffffff" />
    <path
       id="BhTpqD1LKDu-3nZODAcBDa-372"
       d="M -205.11914,-23.007812 V 59.634766 H -158.5 V -23.007812 Z M 30.599609,0 c -2.43,0 -4.679687,0.840625 -6.429687,2.390625 -8.03,0.31 -12.709453,7.1189844 -13.689453,13.458984 -0.22,1.36 -0.5402346,4.739922 0.759765,8.419922 -1.1,1.44 -1.7699215,3.151172 -1.9199215,4.951172 -0.05,0.46 -0.071016,1.138359 -0.041016,1.818359 v 9.441407 c 0,5.25 4.2807811,9.519531 9.5507811,9.519531 2.94,0 5.740781,-1.379922 7.550781,-3.669922 0.25,-0.01 0.51836,-0.02102 0.81836,-0.04102 5.89,-0.38 9.350937,-3.149921 11.210937,-5.419921 3.43,-4.12 3.520625,-8.879063 3.390625,-10.789063 -0.03,-1.23 -0.341562,-4.110312 -2.351562,-7.070312 0.33,-0.98 0.5,-2.000547 0.5,-3.060547 0,-5.47 0.101328,-9.449453 0.111328,-10.1894534 0.07,-2.54 -0.871094,-4.9605468 -2.621094,-6.8105468 C 35.669453,1.1092187 33.280703,0.06 30.720703,0 Z m -0.08984,8.2597656 h 0.0293 c 0.7,0.02 1.250469,0.6010156 1.230469,1.2910156 0,0.04 -0.109375,4.3984378 -0.109375,10.3984378 0,0.66 -0.529453,1.22 -1.189453,1.25 -0.67,0.02 -1.250312,-0.459141 -1.320312,-1.119141 -0.38,-3.7 -0.969532,-6.769922 -4.269532,-6.919922 h -0.140625 c -2.87,0 -3.540312,4.179375 -3.570312,4.359375 -0.01,0.05 -0.259531,1.520547 0.230469,3.060547 0.61,1.92 2.050156,3.048985 4.410156,3.458984 7.35,1.25 7.708984,5.520391 7.708984,6.400391 0.05,0.56 0.170235,3.149688 -1.509765,5.179688 -1.2,1.45 -2.99961,2.269921 -5.34961,2.419921 -2.78,0.18 -4.990312,-0.408281 -6.570312,-1.738281 v 4.179688 c 0,0.7 -0.559766,1.259765 -1.259766,1.259765 -0.69,0 -1.259766,-0.559765 -1.259766,-1.259765 v -9.650391 c -0.02,-0.51 -2.34e-4,-0.850625 0.0098,-0.890625 0.06,-0.67 0.630547,-1.178672 1.310547,-1.138672 0.67,0.03 1.199219,0.58 1.199219,1.25 v 0.71875 c 0.05,0.82 0.299375,2.291094 1.359375,3.371094 1.06,1.08 2.760781,1.548437 5.050781,1.398437 1.62,-0.109999 2.820312,-0.619531 3.570312,-1.519531 1.160001,-1.39 0.939454,-3.34914 0.939454,-3.36914 -0.01,-0.09 -0.01977,-0.179766 -0.0098,-0.259766 0,-0.16 -0.02938,-2.930859 -5.609375,-3.880859 -2.4,-0.41 -4.220625,-1.470625 -5.390625,-3.140625 -1.93,-2.74 -1.340313,-6.11 -1.320312,-6.25 0.339999,-2.3 2.100312,-6.65875 6.320312,-6.46875 1.91,0.09 3.249219,0.798828 4.199219,1.798828 0.02,-1.84 0.05078,-2.9387502 0.05078,-2.9687502 0.02,-0.68 0.579766,-1.2207032 1.259766,-1.2207032 z"
       fill="#ffffff" />
    <path
       id="BhTpqD1LKDu-3nZODAcBDa-1"
       d="M -205.11914,-23.007812 V 59.634766 H -158.5 V -23.007812 Z M 30.599609,0 c -2.43,0 -4.679687,0.840625 -6.429687,2.390625 -8.03,0.31 -12.709453,7.1189844 -13.689453,13.458984 -0.22,1.36 -0.5402346,4.739922 0.759765,8.419922 -1.1,1.44 -1.7699215,3.151172 -1.9199215,4.951172 -0.05,0.46 -0.071016,1.138359 -0.041016,1.818359 v 9.441407 c 0,5.25 4.2807811,9.519531 9.5507811,9.519531 2.94,0 5.740781,-1.379922 7.550781,-3.669922 0.25,-0.01 0.51836,-0.02102 0.81836,-0.04102 5.89,-0.38 9.350937,-3.149921 11.210937,-5.419921 3.43,-4.12 3.520625,-8.879063 3.390625,-10.789063 -0.03,-1.23 -0.341562,-4.110312 -2.351562,-7.070312 0.33,-0.98 0.5,-2.000547 0.5,-3.060547 0,-5.47 0.101328,-9.449453 0.111328,-10.1894534 0.07,-2.54 -0.871094,-4.9605468 -2.621094,-6.8105468 C 35.669453,1.1092187 33.280703,0.06 30.720703,0 Z m -0.08984,8.2597656 h 0.0293 c 0.7,0.02 1.250469,0.6010156 1.230469,1.2910156 0,0.04 -0.109375,4.3984378 -0.109375,10.3984378 0,0.66 -0.529453,1.22 -1.189453,1.25 -0.67,0.02 -1.250312,-0.459141 -1.320312,-1.119141 -0.38,-3.7 -0.969532,-6.769922 -4.269532,-6.919922 h -0.140625 c -2.87,0 -3.540312,4.179375 -3.570312,4.359375 -0.01,0.05 -0.259531,1.520547 0.230469,3.060547 0.61,1.92 2.050156,3.048985 4.410156,3.458984 7.35,1.25 7.708984,5.520391 7.708984,6.400391 0.05,0.56 0.170235,3.149688 -1.509765,5.179688 -1.2,1.45 -2.99961,2.269921 -5.34961,2.419921 -2.78,0.18 -4.990312,-0.408281 -6.570312,-1.738281 v 4.179688 c 0,0.7 -0.559766,1.259765 -1.259766,1.259765 -0.69,0 -1.259766,-0.559765 -1.259766,-1.259765 v -9.650391 c -0.02,-0.51 -2.34e-4,-0.850625 0.0098,-0.890625 0.06,-0.67 0.630547,-1.178672 1.310547,-1.138672 0.67,0.03 1.199219,0.58 1.199219,1.25 v 0.71875 c 0.05,0.82 0.299375,2.291094 1.359375,3.371094 1.06,1.08 2.760781,1.548437 5.050781,1.398437 1.62,-0.109999 2.820312,-0.619531 3.570312,-1.519531 1.160001,-1.39 0.939454,-3.34914 0.939454,-3.36914 -0.01,-0.09 -0.01977,-0.179766 -0.0098,-0.259766 0,-0.16 -0.02938,-2.930859 -5.609375,-3.880859 -2.4,-0.41 -4.220625,-1.470625 -5.390625,-3.140625 -1.93,-2.74 -1.340313,-6.11 -1.320312,-6.25 0.339999,-2.3 2.100312,-6.65875 6.320312,-6.46875 1.91,0.09 3.249219,0.798828 4.199219,1.798828 0.02,-1.84 0.05078,-2.9387502 0.05078,-2.9687502 0.02,-0.68 0.579766,-1.2207032 1.259766,-1.2207032 z"
       fill="#ffffff" />
    <path
       id="BhTpqD1LKDu-3nZODAcBDa-7"
       d="M -205.11914,-23.007812 V 59.634766 H -158.5 V -23.007812 Z M 30.599609,0 c -2.43,0 -4.679687,0.840625 -6.429687,2.390625 -8.03,0.31 -12.709453,7.1189844 -13.689453,13.458984 -0.22,1.36 -0.5402346,4.739922 0.759765,8.419922 -1.1,1.44 -1.7699215,3.151172 -1.9199215,4.951172 -0.05,0.46 -0.071016,1.138359 -0.041016,1.818359 v 9.441407 c 0,5.25 4.2807811,9.519531 9.5507811,9.519531 2.94,0 5.740781,-1.379922 7.550781,-3.669922 0.25,-0.01 0.51836,-0.02102 0.81836,-0.04102 5.89,-0.38 9.350937,-3.149921 11.210937,-5.419921 3.43,-4.12 3.520625,-8.879063 3.390625,-10.789063 -0.03,-1.23 -0.341562,-4.110312 -2.351562,-7.070312 0.33,-0.98 0.5,-2.000547 0.5,-3.060547 0,-5.47 0.101328,-9.449453 0.111328,-10.1894534 0.07,-2.54 -0.871094,-4.9605468 -2.621094,-6.8105468 C 35.669453,1.1092187 33.280703,0.06 30.720703,0 Z m -0.08984,8.2597656 h 0.0293 c 0.7,0.02 1.250469,0.6010156 1.230469,1.2910156 0,0.04 -0.109375,4.3984378 -0.109375,10.3984378 0,0.66 -0.529453,1.22 -1.189453,1.25 -0.67,0.02 -1.250312,-0.459141 -1.320312,-1.119141 -0.38,-3.7 -0.969532,-6.769922 -4.269532,-6.919922 h -0.140625 c -2.87,0 -3.540312,4.179375 -3.570312,4.359375 -0.01,0.05 -0.259531,1.520547 0.230469,3.060547 0.61,1.92 2.050156,3.048985 4.410156,3.458984 7.35,1.25 7.708984,5.520391 7.708984,6.400391 0.05,0.56 0.170235,3.149688 -1.509765,5.179688 -1.2,1.45 -2.99961,2.269921 -5.34961,2.419921 -2.78,0.18 -4.990312,-0.408281 -6.570312,-1.738281 v 4.179688 c 0,0.7 -0.559766,1.259765 -1.259766,1.259765 -0.69,0 -1.259766,-0.559765 -1.259766,-1.259765 v -9.650391 c -0.02,-0.51 -2.34e-4,-0.850625 0.0098,-0.890625 0.06,-0.67 0.630547,-1.178672 1.310547,-1.138672 0.67,0.03 1.199219,0.58 1.199219,1.25 v 0.71875 c 0.05,0.82 0.299375,2.291094 1.359375,3.371094 1.06,1.08 2.760781,1.548437 5.050781,1.398437 1.62,-0.109999 2.820312,-0.619531 3.570312,-1.519531 1.160001,-1.39 0.939454,-3.34914 0.939454,-3.36914 -0.01,-0.09 -0.01977,-0.179766 -0.0098,-0.259766 0,-0.16 -0.02938,-2.930859 -5.609375,-3.880859 -2.4,-0.41 -4.220625,-1.470625 -5.390625,-3.140625 -1.93,-2.74 -1.340313,-6.11 -1.320312,-6.25 0.339999,-2.3 2.100312,-6.65875 6.320312,-6.46875 1.91,0.09 3.249219,0.798828 4.199219,1.798828 0.02,-1.84 0.05078,-2.9387502 0.05078,-2.9687502 0.02,-0.68 0.579766,-1.2207032 1.259766,-1.2207032 z"
       fill="#ffffff" />
    <path
       id="BhTpqD1LKDu-3nZODAcBDa-12"
       d="M -205.11914,-23.007812 V 59.634766 H -158.5 V -23.007812 Z M 30.599609,0 c -2.43,0 -4.679687,0.840625 -6.429687,2.390625 -8.03,0.31 -12.709453,7.1189844 -13.689453,13.458984 -0.22,1.36 -0.5402346,4.739922 0.759765,8.419922 -1.1,1.44 -1.7699215,3.151172 -1.9199215,4.951172 -0.05,0.46 -0.071016,1.138359 -0.041016,1.818359 v 9.441407 c 0,5.25 4.2807811,9.519531 9.5507811,9.519531 2.94,0 5.740781,-1.379922 7.550781,-3.669922 0.25,-0.01 0.51836,-0.02102 0.81836,-0.04102 5.89,-0.38 9.350937,-3.149921 11.210937,-5.419921 3.43,-4.12 3.520625,-8.879063 3.390625,-10.789063 -0.03,-1.23 -0.341562,-4.110312 -2.351562,-7.070312 0.33,-0.98 0.5,-2.000547 0.5,-3.060547 0,-5.47 0.101328,-9.449453 0.111328,-10.1894534 0.07,-2.54 -0.871094,-4.9605468 -2.621094,-6.8105468 C 35.669453,1.1092187 33.280703,0.06 30.720703,0 Z m -0.08984,8.2597656 h 0.0293 c 0.7,0.02 1.250469,0.6010156 1.230469,1.2910156 0,0.04 -0.109375,4.3984378 -0.109375,10.3984378 0,0.66 -0.529453,1.22 -1.189453,1.25 -0.67,0.02 -1.250312,-0.459141 -1.320312,-1.119141 -0.38,-3.7 -0.969532,-6.769922 -4.269532,-6.919922 h -0.140625 c -2.87,0 -3.540312,4.179375 -3.570312,4.359375 -0.01,0.05 -0.259531,1.520547 0.230469,3.060547 0.61,1.92 2.050156,3.048985 4.410156,3.458984 7.35,1.25 7.708984,5.520391 7.708984,6.400391 0.05,0.56 0.170235,3.149688 -1.509765,5.179688 -1.2,1.45 -2.99961,2.269921 -5.34961,2.419921 -2.78,0.18 -4.990312,-0.408281 -6.570312,-1.738281 v 4.179688 c 0,0.7 -0.559766,1.259765 -1.259766,1.259765 -0.69,0 -1.259766,-0.559765 -1.259766,-1.259765 v -9.650391 c -0.02,-0.51 -2.34e-4,-0.850625 0.0098,-0.890625 0.06,-0.67 0.630547,-1.178672 1.310547,-1.138672 0.67,0.03 1.199219,0.58 1.199219,1.25 v 0.71875 c 0.05,0.82 0.299375,2.291094 1.359375,3.371094 1.06,1.08 2.760781,1.548437 5.050781,1.398437 1.62,-0.109999 2.820312,-0.619531 3.570312,-1.519531 1.160001,-1.39 0.939454,-3.34914 0.939454,-3.36914 -0.01,-0.09 -0.01977,-0.179766 -0.0098,-0.259766 0,-0.16 -0.02938,-2.930859 -5.609375,-3.880859 -2.4,-0.41 -4.220625,-1.470625 -5.390625,-3.140625 -1.93,-2.74 -1.340313,-6.11 -1.320312,-6.25 0.339999,-2.3 2.100312,-6.65875 6.320312,-6.46875 1.91,0.09 3.249219,0.798828 4.199219,1.798828 0.02,-1.84 0.05078,-2.9387502 0.05078,-2.9687502 0.02,-0.68 0.579766,-1.2207032 1.259766,-1.2207032 z"
       fill="#ffffff" />
    <path
       id="BhTpqD1LKDu-3nZODAcBDa-14"
       d="M -205.11914,-23.007812 V 59.634766 H -158.5 V -23.007812 Z M 30.599609,0 c -2.43,0 -4.679687,0.840625 -6.429687,2.390625 -8.03,0.31 -12.709453,7.1189844 -13.689453,13.458984 -0.22,1.36 -0.5402346,4.739922 0.759765,8.419922 -1.1,1.44 -1.7699215,3.151172 -1.9199215,4.951172 -0.05,0.46 -0.071016,1.138359 -0.041016,1.818359 v 9.441407 c 0,5.25 4.2807811,9.519531 9.5507811,9.519531 2.94,0 5.740781,-1.379922 7.550781,-3.669922 0.25,-0.01 0.51836,-0.02102 0.81836,-0.04102 5.89,-0.38 9.350937,-3.149921 11.210937,-5.419921 3.43,-4.12 3.520625,-8.879063 3.390625,-10.789063 -0.03,-1.23 -0.341562,-4.110312 -2.351562,-7.070312 0.33,-0.98 0.5,-2.000547 0.5,-3.060547 0,-5.47 0.101328,-9.449453 0.111328,-10.1894534 0.07,-2.54 -0.871094,-4.9605468 -2.621094,-6.8105468 C 35.669453,1.1092187 33.280703,0.06 30.720703,0 Z m -0.08984,8.2597656 h 0.0293 c 0.7,0.02 1.250469,0.6010156 1.230469,1.2910156 0,0.04 -0.109375,4.3984378 -0.109375,10.3984378 0,0.66 -0.529453,1.22 -1.189453,1.25 -0.67,0.02 -1.250312,-0.459141 -1.320312,-1.119141 -0.38,-3.7 -0.969532,-6.769922 -4.269532,-6.919922 h -0.140625 c -2.87,0 -3.540312,4.179375 -3.570312,4.359375 -0.01,0.05 -0.259531,1.520547 0.230469,3.060547 0.61,1.92 2.050156,3.048985 4.410156,3.458984 7.35,1.25 7.708984,5.520391 7.708984,6.400391 0.05,0.56 0.170235,3.149688 -1.509765,5.179688 -1.2,1.45 -2.99961,2.269921 -5.34961,2.419921 -2.78,0.18 -4.990312,-0.408281 -6.570312,-1.738281 v 4.179688 c 0,0.7 -0.559766,1.259765 -1.259766,1.259765 -0.69,0 -1.259766,-0.559765 -1.259766,-1.259765 v -9.650391 c -0.02,-0.51 -2.34e-4,-0.850625 0.0098,-0.890625 0.06,-0.67 0.630547,-1.178672 1.310547,-1.138672 0.67,0.03 1.199219,0.58 1.199219,1.25 v 0.71875 c 0.05,0.82 0.299375,2.291094 1.359375,3.371094 1.06,1.08 2.760781,1.548437 5.050781,1.398437 1.62,-0.109999 2.820312,-0.619531 3.570312,-1.519531 1.160001,-1.39 0.939454,-3.34914 0.939454,-3.36914 -0.01,-0.09 -0.01977,-0.179766 -0.0098,-0.259766 0,-0.16 -0.02938,-2.930859 -5.609375,-3.880859 -2.4,-0.41 -4.220625,-1.470625 -5.390625,-3.140625 -1.93,-2.74 -1.340313,-6.11 -1.320312,-6.25 0.339999,-2.3 2.100312,-6.65875 6.320312,-6.46875 1.91,0.09 3.249219,0.798828 4.199219,1.798828 0.02,-1.84 0.05078,-2.9387502 0.05078,-2.9687502 0.02,-0.68 0.579766,-1.2207032 1.259766,-1.2207032 z"
       fill="#ffffff" />
    <path
       id="BhTpqD1LKDu-3nZODAcBDa-71"
       d="M -205.11914,-23.007812 V 59.634766 H -158.5 V -23.007812 Z M 30.599609,0 c -2.43,0 -4.679687,0.840625 -6.429687,2.390625 -8.03,0.31 -12.709453,7.1189844 -13.689453,13.458984 -0.22,1.36 -0.5402346,4.739922 0.759765,8.419922 -1.1,1.44 -1.7699215,3.151172 -1.9199215,4.951172 -0.05,0.46 -0.071016,1.138359 -0.041016,1.818359 v 9.441407 c 0,5.25 4.2807811,9.519531 9.5507811,9.519531 2.94,0 5.740781,-1.379922 7.550781,-3.669922 0.25,-0.01 0.51836,-0.02102 0.81836,-0.04102 5.89,-0.38 9.350937,-3.149921 11.210937,-5.419921 3.43,-4.12 3.520625,-8.879063 3.390625,-10.789063 -0.03,-1.23 -0.341562,-4.110312 -2.351562,-7.070312 0.33,-0.98 0.5,-2.000547 0.5,-3.060547 0,-5.47 0.101328,-9.449453 0.111328,-10.1894534 0.07,-2.54 -0.871094,-4.9605468 -2.621094,-6.8105468 C 35.669453,1.1092187 33.280703,0.06 30.720703,0 Z m -0.08984,8.2597656 h 0.0293 c 0.7,0.02 1.250469,0.6010156 1.230469,1.2910156 0,0.04 -0.109375,4.3984378 -0.109375,10.3984378 0,0.66 -0.529453,1.22 -1.189453,1.25 -0.67,0.02 -1.250312,-0.459141 -1.320312,-1.119141 -0.38,-3.7 -0.969532,-6.769922 -4.269532,-6.919922 h -0.140625 c -2.87,0 -3.540312,4.179375 -3.570312,4.359375 -0.01,0.05 -0.259531,1.520547 0.230469,3.060547 0.61,1.92 2.050156,3.048985 4.410156,3.458984 7.35,1.25 7.708984,5.520391 7.708984,6.400391 0.05,0.56 0.170235,3.149688 -1.509765,5.179688 -1.2,1.45 -2.99961,2.269921 -5.34961,2.419921 -2.78,0.18 -4.990312,-0.408281 -6.570312,-1.738281 v 4.179688 c 0,0.7 -0.559766,1.259765 -1.259766,1.259765 -0.69,0 -1.259766,-0.559765 -1.259766,-1.259765 v -9.650391 c -0.02,-0.51 -2.34e-4,-0.850625 0.0098,-0.890625 0.06,-0.67 0.630547,-1.178672 1.310547,-1.138672 0.67,0.03 1.199219,0.58 1.199219,1.25 v 0.71875 c 0.05,0.82 0.299375,2.291094 1.359375,3.371094 1.06,1.08 2.760781,1.548437 5.050781,1.398437 1.62,-0.109999 2.820312,-0.619531 3.570312,-1.519531 1.160001,-1.39 0.939454,-3.34914 0.939454,-3.36914 -0.01,-0.09 -0.01977,-0.179766 -0.0098,-0.259766 0,-0.16 -0.02938,-2.930859 -5.609375,-3.880859 -2.4,-0.41 -4.220625,-1.470625 -5.390625,-3.140625 -1.93,-2.74 -1.340313,-6.11 -1.320312,-6.25 0.339999,-2.3 2.100312,-6.65875 6.320312,-6.46875 1.91,0.09 3.249219,0.798828 4.199219,1.798828 0.02,-1.84 0.05078,-2.9387502 0.05078,-2.9687502 0.02,-0.68 0.579766,-1.2207032 1.259766,-1.2207032 z"
       fill="#ffffff" />
    <path
       id="BhTpqD1LKDu-3nZODAcBDa-77"
       d="M -205.11914,-23.007812 V 59.634766 H -158.5 V -23.007812 Z M 30.599609,0 c -2.43,0 -4.679687,0.840625 -6.429687,2.390625 -8.03,0.31 -12.709453,7.1189844 -13.689453,13.458984 -0.22,1.36 -0.5402346,4.739922 0.759765,8.419922 -1.1,1.44 -1.7699215,3.151172 -1.9199215,4.951172 -0.05,0.46 -0.071016,1.138359 -0.041016,1.818359 v 9.441407 c 0,5.25 4.2807811,9.519531 9.5507811,9.519531 2.94,0 5.740781,-1.379922 7.550781,-3.669922 0.25,-0.01 0.51836,-0.02102 0.81836,-0.04102 5.89,-0.38 9.350937,-3.149921 11.210937,-5.419921 3.43,-4.12 3.520625,-8.879063 3.390625,-10.789063 -0.03,-1.23 -0.341562,-4.110312 -2.351562,-7.070312 0.33,-0.98 0.5,-2.000547 0.5,-3.060547 0,-5.47 0.101328,-9.449453 0.111328,-10.1894534 0.07,-2.54 -0.871094,-4.9605468 -2.621094,-6.8105468 C 35.669453,1.1092187 33.280703,0.06 30.720703,0 Z m -0.08984,8.2597656 h 0.0293 c 0.7,0.02 1.250469,0.6010156 1.230469,1.2910156 0,0.04 -0.109375,4.3984378 -0.109375,10.3984378 0,0.66 -0.529453,1.22 -1.189453,1.25 -0.67,0.02 -1.250312,-0.459141 -1.320312,-1.119141 -0.38,-3.7 -0.969532,-6.769922 -4.269532,-6.919922 h -0.140625 c -2.87,0 -3.540312,4.179375 -3.570312,4.359375 -0.01,0.05 -0.259531,1.520547 0.230469,3.060547 0.61,1.92 2.050156,3.048985 4.410156,3.458984 7.35,1.25 7.708984,5.520391 7.708984,6.400391 0.05,0.56 0.170235,3.149688 -1.509765,5.179688 -1.2,1.45 -2.99961,2.269921 -5.34961,2.419921 -2.78,0.18 -4.990312,-0.408281 -6.570312,-1.738281 v 4.179688 c 0,0.7 -0.559766,1.259765 -1.259766,1.259765 -0.69,0 -1.259766,-0.559765 -1.259766,-1.259765 v -9.650391 c -0.02,-0.51 -2.34e-4,-0.850625 0.0098,-0.890625 0.06,-0.67 0.630547,-1.178672 1.310547,-1.138672 0.67,0.03 1.199219,0.58 1.199219,1.25 v 0.71875 c 0.05,0.82 0.299375,2.291094 1.359375,3.371094 1.06,1.08 2.760781,1.548437 5.050781,1.398437 1.62,-0.109999 2.820312,-0.619531 3.570312,-1.519531 1.160001,-1.39 0.939454,-3.34914 0.939454,-3.36914 -0.01,-0.09 -0.01977,-0.179766 -0.0098,-0.259766 0,-0.16 -0.02938,-2.930859 -5.609375,-3.880859 -2.4,-0.41 -4.220625,-1.470625 -5.390625,-3.140625 -1.93,-2.74 -1.340313,-6.11 -1.320312,-6.25 0.339999,-2.3 2.100312,-6.65875 6.320312,-6.46875 1.91,0.09 3.249219,0.798828 4.199219,1.798828 0.02,-1.84 0.05078,-2.9387502 0.05078,-2.9687502 0.02,-0.68 0.579766,-1.2207032 1.259766,-1.2207032 z"
       fill="#ffffff" />
    <path
       id="BhTpqD1LKDu-3nZODAcBDa-599"
       d="M -205.11914,-23.007812 V 59.634766 H -158.5 V -23.007812 Z M 30.599609,0 c -2.43,0 -4.679687,0.840625 -6.429687,2.390625 -8.03,0.31 -12.709453,7.1189844 -13.689453,13.458984 -0.22,1.36 -0.5402346,4.739922 0.759765,8.419922 -1.1,1.44 -1.7699215,3.151172 -1.9199215,4.951172 -0.05,0.46 -0.071016,1.138359 -0.041016,1.818359 v 9.441407 c 0,5.25 4.2807811,9.519531 9.5507811,9.519531 2.94,0 5.740781,-1.379922 7.550781,-3.669922 0.25,-0.01 0.51836,-0.02102 0.81836,-0.04102 5.89,-0.38 9.350937,-3.149921 11.210937,-5.419921 3.43,-4.12 3.520625,-8.879063 3.390625,-10.789063 -0.03,-1.23 -0.341562,-4.110312 -2.351562,-7.070312 0.33,-0.98 0.5,-2.000547 0.5,-3.060547 0,-5.47 0.101328,-9.449453 0.111328,-10.1894534 0.07,-2.54 -0.871094,-4.9605468 -2.621094,-6.8105468 C 35.669453,1.1092187 33.280703,0.06 30.720703,0 Z m -0.08984,8.2597656 h 0.0293 c 0.7,0.02 1.250469,0.6010156 1.230469,1.2910156 0,0.04 -0.109375,4.3984378 -0.109375,10.3984378 0,0.66 -0.529453,1.22 -1.189453,1.25 -0.67,0.02 -1.250312,-0.459141 -1.320312,-1.119141 -0.38,-3.7 -0.969532,-6.769922 -4.269532,-6.919922 h -0.140625 c -2.87,0 -3.540312,4.179375 -3.570312,4.359375 -0.01,0.05 -0.259531,1.520547 0.230469,3.060547 0.61,1.92 2.050156,3.048985 4.410156,3.458984 7.35,1.25 7.708984,5.520391 7.708984,6.400391 0.05,0.56 0.170235,3.149688 -1.509765,5.179688 -1.2,1.45 -2.99961,2.269921 -5.34961,2.419921 -2.78,0.18 -4.990312,-0.408281 -6.570312,-1.738281 v 4.179688 c 0,0.7 -0.559766,1.259765 -1.259766,1.259765 -0.69,0 -1.259766,-0.559765 -1.259766,-1.259765 v -9.650391 c -0.02,-0.51 -2.34e-4,-0.850625 0.0098,-0.890625 0.06,-0.67 0.630547,-1.178672 1.310547,-1.138672 0.67,0.03 1.199219,0.58 1.199219,1.25 v 0.71875 c 0.05,0.82 0.299375,2.291094 1.359375,3.371094 1.06,1.08 2.760781,1.548437 5.050781,1.398437 1.62,-0.109999 2.820312,-0.619531 3.570312,-1.519531 1.160001,-1.39 0.939454,-3.34914 0.939454,-3.36914 -0.01,-0.09 -0.01977,-0.179766 -0.0098,-0.259766 0,-0.16 -0.02938,-2.930859 -5.609375,-3.880859 -2.4,-0.41 -4.220625,-1.470625 -5.390625,-3.140625 -1.93,-2.74 -1.340313,-6.11 -1.320312,-6.25 0.339999,-2.3 2.100312,-6.65875 6.320312,-6.46875 1.91,0.09 3.249219,0.798828 4.199219,1.798828 0.02,-1.84 0.05078,-2.9387502 0.05078,-2.9687502 0.02,-0.68 0.579766,-1.2207032 1.259766,-1.2207032 z"
       fill="#ffffff" />
    <path
       id="BhTpqD1LKDu-3nZODAcBDa-82"
       d="M -205.11914,-23.007812 V 59.634766 H -158.5 V -23.007812 Z M 30.599609,0 c -2.43,0 -4.679687,0.840625 -6.429687,2.390625 -8.03,0.31 -12.709453,7.1189844 -13.689453,13.458984 -0.22,1.36 -0.5402346,4.739922 0.759765,8.419922 -1.1,1.44 -1.7699215,3.151172 -1.9199215,4.951172 -0.05,0.46 -0.071016,1.138359 -0.041016,1.818359 v 9.441407 c 0,5.25 4.2807811,9.519531 9.5507811,9.519531 2.94,0 5.740781,-1.379922 7.550781,-3.669922 0.25,-0.01 0.51836,-0.02102 0.81836,-0.04102 5.89,-0.38 9.350937,-3.149921 11.210937,-5.419921 3.43,-4.12 3.520625,-8.879063 3.390625,-10.789063 -0.03,-1.23 -0.341562,-4.110312 -2.351562,-7.070312 0.33,-0.98 0.5,-2.000547 0.5,-3.060547 0,-5.47 0.101328,-9.449453 0.111328,-10.1894534 0.07,-2.54 -0.871094,-4.9605468 -2.621094,-6.8105468 C 35.669453,1.1092187 33.280703,0.06 30.720703,0 Z m -0.08984,8.2597656 h 0.0293 c 0.7,0.02 1.250469,0.6010156 1.230469,1.2910156 0,0.04 -0.109375,4.3984378 -0.109375,10.3984378 0,0.66 -0.529453,1.22 -1.189453,1.25 -0.67,0.02 -1.250312,-0.459141 -1.320312,-1.119141 -0.38,-3.7 -0.969532,-6.769922 -4.269532,-6.919922 h -0.140625 c -2.87,0 -3.540312,4.179375 -3.570312,4.359375 -0.01,0.05 -0.259531,1.520547 0.230469,3.060547 0.61,1.92 2.050156,3.048985 4.410156,3.458984 7.35,1.25 7.708984,5.520391 7.708984,6.400391 0.05,0.56 0.170235,3.149688 -1.509765,5.179688 -1.2,1.45 -2.99961,2.269921 -5.34961,2.419921 -2.78,0.18 -4.990312,-0.408281 -6.570312,-1.738281 v 4.179688 c 0,0.7 -0.559766,1.259765 -1.259766,1.259765 -0.69,0 -1.259766,-0.559765 -1.259766,-1.259765 v -9.650391 c -0.02,-0.51 -2.34e-4,-0.850625 0.0098,-0.890625 0.06,-0.67 0.630547,-1.178672 1.310547,-1.138672 0.67,0.03 1.199219,0.58 1.199219,1.25 v 0.71875 c 0.05,0.82 0.299375,2.291094 1.359375,3.371094 1.06,1.08 2.760781,1.548437 5.050781,1.398437 1.62,-0.109999 2.820312,-0.619531 3.570312,-1.519531 1.160001,-1.39 0.939454,-3.34914 0.939454,-3.36914 -0.01,-0.09 -0.01977,-0.179766 -0.0098,-0.259766 0,-0.16 -0.02938,-2.930859 -5.609375,-3.880859 -2.4,-0.41 -4.220625,-1.470625 -5.390625,-3.140625 -1.93,-2.74 -1.340313,-6.11 -1.320312,-6.25 0.339999,-2.3 2.100312,-6.65875 6.320312,-6.46875 1.91,0.09 3.249219,0.798828 4.199219,1.798828 0.02,-1.84 0.05078,-2.9387502 0.05078,-2.9687502 0.02,-0.68 0.579766,-1.2207032 1.259766,-1.2207032 z"
       fill="#ffffff" />
    <path
       id="BhTpqD1LKDu-3nZODAcBDa-03"
       d="M -205.11914,-23.007812 V 59.634766 H -158.5 V -23.007812 Z M 30.599609,0 c -2.43,0 -4.679687,0.840625 -6.429687,2.390625 -8.03,0.31 -12.709453,7.1189844 -13.689453,13.458984 -0.22,1.36 -0.5402346,4.739922 0.759765,8.419922 -1.1,1.44 -1.7699215,3.151172 -1.9199215,4.951172 -0.05,0.46 -0.071016,1.138359 -0.041016,1.818359 v 9.441407 c 0,5.25 4.2807811,9.519531 9.5507811,9.519531 2.94,0 5.740781,-1.379922 7.550781,-3.669922 0.25,-0.01 0.51836,-0.02102 0.81836,-0.04102 5.89,-0.38 9.350937,-3.149921 11.210937,-5.419921 3.43,-4.12 3.520625,-8.879063 3.390625,-10.789063 -0.03,-1.23 -0.341562,-4.110312 -2.351562,-7.070312 0.33,-0.98 0.5,-2.000547 0.5,-3.060547 0,-5.47 0.101328,-9.449453 0.111328,-10.1894534 0.07,-2.54 -0.871094,-4.9605468 -2.621094,-6.8105468 C 35.669453,1.1092187 33.280703,0.06 30.720703,0 Z m -0.08984,8.2597656 h 0.0293 c 0.7,0.02 1.250469,0.6010156 1.230469,1.2910156 0,0.04 -0.109375,4.3984378 -0.109375,10.3984378 0,0.66 -0.529453,1.22 -1.189453,1.25 -0.67,0.02 -1.250312,-0.459141 -1.320312,-1.119141 -0.38,-3.7 -0.969532,-6.769922 -4.269532,-6.919922 h -0.140625 c -2.87,0 -3.540312,4.179375 -3.570312,4.359375 -0.01,0.05 -0.259531,1.520547 0.230469,3.060547 0.61,1.92 2.050156,3.048985 4.410156,3.458984 7.35,1.25 7.708984,5.520391 7.708984,6.400391 0.05,0.56 0.170235,3.149688 -1.509765,5.179688 -1.2,1.45 -2.99961,2.269921 -5.34961,2.419921 -2.78,0.18 -4.990312,-0.408281 -6.570312,-1.738281 v 4.179688 c 0,0.7 -0.559766,1.259765 -1.259766,1.259765 -0.69,0 -1.259766,-0.559765 -1.259766,-1.259765 v -9.650391 c -0.02,-0.51 -2.34e-4,-0.850625 0.0098,-0.890625 0.06,-0.67 0.630547,-1.178672 1.310547,-1.138672 0.67,0.03 1.199219,0.58 1.199219,1.25 v 0.71875 c 0.05,0.82 0.299375,2.291094 1.359375,3.371094 1.06,1.08 2.760781,1.548437 5.050781,1.398437 1.62,-0.109999 2.820312,-0.619531 3.570312,-1.519531 1.160001,-1.39 0.939454,-3.34914 0.939454,-3.36914 -0.01,-0.09 -0.01977,-0.179766 -0.0098,-0.259766 0,-0.16 -0.02938,-2.930859 -5.609375,-3.880859 -2.4,-0.41 -4.220625,-1.470625 -5.390625,-3.140625 -1.93,-2.74 -1.340313,-6.11 -1.320312,-6.25 0.339999,-2.3 2.100312,-6.65875 6.320312,-6.46875 1.91,0.09 3.249219,0.798828 4.199219,1.798828 0.02,-1.84 0.05078,-2.9387502 0.05078,-2.9687502 0.02,-0.68 0.579766,-1.2207032 1.259766,-1.2207032 z"
       fill="#ffffff" />
    <path
       id="BhTpqD1LKDu-3nZODAcBDa-125"
       d="M -205.11914,-23.007812 V 59.634766 H -158.5 V -23.007812 Z M 30.599609,0 c -2.43,0 -4.679687,0.840625 -6.429687,2.390625 -8.03,0.31 -12.709453,7.1189844 -13.689453,13.458984 -0.22,1.36 -0.5402346,4.739922 0.759765,8.419922 -1.1,1.44 -1.7699215,3.151172 -1.9199215,4.951172 -0.05,0.46 -0.071016,1.138359 -0.041016,1.818359 v 9.441407 c 0,5.25 4.2807811,9.519531 9.5507811,9.519531 2.94,0 5.740781,-1.379922 7.550781,-3.669922 0.25,-0.01 0.51836,-0.02102 0.81836,-0.04102 5.89,-0.38 9.350937,-3.149921 11.210937,-5.419921 3.43,-4.12 3.520625,-8.879063 3.390625,-10.789063 -0.03,-1.23 -0.341562,-4.110312 -2.351562,-7.070312 0.33,-0.98 0.5,-2.000547 0.5,-3.060547 0,-5.47 0.101328,-9.449453 0.111328,-10.1894534 0.07,-2.54 -0.871094,-4.9605468 -2.621094,-6.8105468 C 35.669453,1.1092187 33.280703,0.06 30.720703,0 Z m -0.08984,8.2597656 h 0.0293 c 0.7,0.02 1.250469,0.6010156 1.230469,1.2910156 0,0.04 -0.109375,4.3984378 -0.109375,10.3984378 0,0.66 -0.529453,1.22 -1.189453,1.25 -0.67,0.02 -1.250312,-0.459141 -1.320312,-1.119141 -0.38,-3.7 -0.969532,-6.769922 -4.269532,-6.919922 h -0.140625 c -2.87,0 -3.540312,4.179375 -3.570312,4.359375 -0.01,0.05 -0.259531,1.520547 0.230469,3.060547 0.61,1.92 2.050156,3.048985 4.410156,3.458984 7.35,1.25 7.708984,5.520391 7.708984,6.400391 0.05,0.56 0.170235,3.149688 -1.509765,5.179688 -1.2,1.45 -2.99961,2.269921 -5.34961,2.419921 -2.78,0.18 -4.990312,-0.408281 -6.570312,-1.738281 v 4.179688 c 0,0.7 -0.559766,1.259765 -1.259766,1.259765 -0.69,0 -1.259766,-0.559765 -1.259766,-1.259765 v -9.650391 c -0.02,-0.51 -2.34e-4,-0.850625 0.0098,-0.890625 0.06,-0.67 0.630547,-1.178672 1.310547,-1.138672 0.67,0.03 1.199219,0.58 1.199219,1.25 v 0.71875 c 0.05,0.82 0.299375,2.291094 1.359375,3.371094 1.06,1.08 2.760781,1.548437 5.050781,1.398437 1.62,-0.109999 2.820312,-0.619531 3.570312,-1.519531 1.160001,-1.39 0.939454,-3.34914 0.939454,-3.36914 -0.01,-0.09 -0.01977,-0.179766 -0.0098,-0.259766 0,-0.16 -0.02938,-2.930859 -5.609375,-3.880859 -2.4,-0.41 -4.220625,-1.470625 -5.390625,-3.140625 -1.93,-2.74 -1.340313,-6.11 -1.320312,-6.25 0.339999,-2.3 2.100312,-6.65875 6.320312,-6.46875 1.91,0.09 3.249219,0.798828 4.199219,1.798828 0.02,-1.84 0.05078,-2.9387502 0.05078,-2.9687502 0.02,-0.68 0.579766,-1.2207032 1.259766,-1.2207032 z"
       fill="#ffffff" />
    <path
       id="BhTpqD1LKDu-3nZODAcBDa-47"
       d="M -205.11914,-23.007812 V 59.634766 H -158.5 V -23.007812 Z M 30.599609,0 c -2.43,0 -4.679687,0.840625 -6.429687,2.390625 -8.03,0.31 -12.709453,7.1189844 -13.689453,13.458984 -0.22,1.36 -0.5402346,4.739922 0.759765,8.419922 -1.1,1.44 -1.7699215,3.151172 -1.9199215,4.951172 -0.05,0.46 -0.071016,1.138359 -0.041016,1.818359 v 9.441407 c 0,5.25 4.2807811,9.519531 9.5507811,9.519531 2.94,0 5.740781,-1.379922 7.550781,-3.669922 0.25,-0.01 0.51836,-0.02102 0.81836,-0.04102 5.89,-0.38 9.350937,-3.149921 11.210937,-5.419921 3.43,-4.12 3.520625,-8.879063 3.390625,-10.789063 -0.03,-1.23 -0.341562,-4.110312 -2.351562,-7.070312 0.33,-0.98 0.5,-2.000547 0.5,-3.060547 0,-5.47 0.101328,-9.449453 0.111328,-10.1894534 0.07,-2.54 -0.871094,-4.9605468 -2.621094,-6.8105468 C 35.669453,1.1092187 33.280703,0.06 30.720703,0 Z m -0.08984,8.2597656 h 0.0293 c 0.7,0.02 1.250469,0.6010156 1.230469,1.2910156 0,0.04 -0.109375,4.3984378 -0.109375,10.3984378 0,0.66 -0.529453,1.22 -1.189453,1.25 -0.67,0.02 -1.250312,-0.459141 -1.320312,-1.119141 -0.38,-3.7 -0.969532,-6.769922 -4.269532,-6.919922 h -0.140625 c -2.87,0 -3.540312,4.179375 -3.570312,4.359375 -0.01,0.05 -0.259531,1.520547 0.230469,3.060547 0.61,1.92 2.050156,3.048985 4.410156,3.458984 7.35,1.25 7.708984,5.520391 7.708984,6.400391 0.05,0.56 0.170235,3.149688 -1.509765,5.179688 -1.2,1.45 -2.99961,2.269921 -5.34961,2.419921 -2.78,0.18 -4.990312,-0.408281 -6.570312,-1.738281 v 4.179688 c 0,0.7 -0.559766,1.259765 -1.259766,1.259765 -0.69,0 -1.259766,-0.559765 -1.259766,-1.259765 v -9.650391 c -0.02,-0.51 -2.34e-4,-0.850625 0.0098,-0.890625 0.06,-0.67 0.630547,-1.178672 1.310547,-1.138672 0.67,0.03 1.199219,0.58 1.199219,1.25 v 0.71875 c 0.05,0.82 0.299375,2.291094 1.359375,3.371094 1.06,1.08 2.760781,1.548437 5.050781,1.398437 1.62,-0.109999 2.820312,-0.619531 3.570312,-1.519531 1.160001,-1.39 0.939454,-3.34914 0.939454,-3.36914 -0.01,-0.09 -0.01977,-0.179766 -0.0098,-0.259766 0,-0.16 -0.02938,-2.930859 -5.609375,-3.880859 -2.4,-0.41 -4.220625,-1.470625 -5.390625,-3.140625 -1.93,-2.74 -1.340313,-6.11 -1.320312,-6.25 0.339999,-2.3 2.100312,-6.65875 6.320312,-6.46875 1.91,0.09 3.249219,0.798828 4.199219,1.798828 0.02,-1.84 0.05078,-2.9387502 0.05078,-2.9687502 0.02,-0.68 0.579766,-1.2207032 1.259766,-1.2207032 z"
       fill="#ffffff" />
    <path
       id="BhTpqD1LKDu-3nZODAcBDa-51"
       d="M -205.11914,-23.007812 V 59.634766 H -158.5 V -23.007812 Z M 30.599609,0 c -2.43,0 -4.679687,0.840625 -6.429687,2.390625 -8.03,0.31 -12.709453,7.1189844 -13.689453,13.458984 -0.22,1.36 -0.5402346,4.739922 0.759765,8.419922 -1.1,1.44 -1.7699215,3.151172 -1.9199215,4.951172 -0.05,0.46 -0.071016,1.138359 -0.041016,1.818359 v 9.441407 c 0,5.25 4.2807811,9.519531 9.5507811,9.519531 2.94,0 5.740781,-1.379922 7.550781,-3.669922 0.25,-0.01 0.51836,-0.02102 0.81836,-0.04102 5.89,-0.38 9.350937,-3.149921 11.210937,-5.419921 3.43,-4.12 3.520625,-8.879063 3.390625,-10.789063 -0.03,-1.23 -0.341562,-4.110312 -2.351562,-7.070312 0.33,-0.98 0.5,-2.000547 0.5,-3.060547 0,-5.47 0.101328,-9.449453 0.111328,-10.1894534 0.07,-2.54 -0.871094,-4.9605468 -2.621094,-6.8105468 C 35.669453,1.1092187 33.280703,0.06 30.720703,0 Z m -0.08984,8.2597656 h 0.0293 c 0.7,0.02 1.250469,0.6010156 1.230469,1.2910156 0,0.04 -0.109375,4.3984378 -0.109375,10.3984378 0,0.66 -0.529453,1.22 -1.189453,1.25 -0.67,0.02 -1.250312,-0.459141 -1.320312,-1.119141 -0.38,-3.7 -0.969532,-6.769922 -4.269532,-6.919922 h -0.140625 c -2.87,0 -3.540312,4.179375 -3.570312,4.359375 -0.01,0.05 -0.259531,1.520547 0.230469,3.060547 0.61,1.92 2.050156,3.048985 4.410156,3.458984 7.35,1.25 7.708984,5.520391 7.708984,6.400391 0.05,0.56 0.170235,3.149688 -1.509765,5.179688 -1.2,1.45 -2.99961,2.269921 -5.34961,2.419921 -2.78,0.18 -4.990312,-0.408281 -6.570312,-1.738281 v 4.179688 c 0,0.7 -0.559766,1.259765 -1.259766,1.259765 -0.69,0 -1.259766,-0.559765 -1.259766,-1.259765 v -9.650391 c -0.02,-0.51 -2.34e-4,-0.850625 0.0098,-0.890625 0.06,-0.67 0.630547,-1.178672 1.310547,-1.138672 0.67,0.03 1.199219,0.58 1.199219,1.25 v 0.71875 c 0.05,0.82 0.299375,2.291094 1.359375,3.371094 1.06,1.08 2.760781,1.548437 5.050781,1.398437 1.62,-0.109999 2.820312,-0.619531 3.570312,-1.519531 1.160001,-1.39 0.939454,-3.34914 0.939454,-3.36914 -0.01,-0.09 -0.01977,-0.179766 -0.0098,-0.259766 0,-0.16 -0.02938,-2.930859 -5.609375,-3.880859 -2.4,-0.41 -4.220625,-1.470625 -5.390625,-3.140625 -1.93,-2.74 -1.340313,-6.11 -1.320312,-6.25 0.339999,-2.3 2.100312,-6.65875 6.320312,-6.46875 1.91,0.09 3.249219,0.798828 4.199219,1.798828 0.02,-1.84 0.05078,-2.9387502 0.05078,-2.9687502 0.02,-0.68 0.579766,-1.2207032 1.259766,-1.2207032 z"
       fill="#ffffff" />
    <path
       id="BhTpqD1LKDu-3nZODAcBDa-16"
       d="M -205.11914,-23.007812 V 59.634766 H -158.5 V -23.007812 Z M 30.599609,0 c -2.43,0 -4.679687,0.840625 -6.429687,2.390625 -8.03,0.31 -12.709453,7.1189844 -13.689453,13.458984 -0.22,1.36 -0.5402346,4.739922 0.759765,8.419922 -1.1,1.44 -1.7699215,3.151172 -1.9199215,4.951172 -0.05,0.46 -0.071016,1.138359 -0.041016,1.818359 v 9.441407 c 0,5.25 4.2807811,9.519531 9.5507811,9.519531 2.94,0 5.740781,-1.379922 7.550781,-3.669922 0.25,-0.01 0.51836,-0.02102 0.81836,-0.04102 5.89,-0.38 9.350937,-3.149921 11.210937,-5.419921 3.43,-4.12 3.520625,-8.879063 3.390625,-10.789063 -0.03,-1.23 -0.341562,-4.110312 -2.351562,-7.070312 0.33,-0.98 0.5,-2.000547 0.5,-3.060547 0,-5.47 0.101328,-9.449453 0.111328,-10.1894534 0.07,-2.54 -0.871094,-4.9605468 -2.621094,-6.8105468 C 35.669453,1.1092187 33.280703,0.06 30.720703,0 Z m -0.08984,8.2597656 h 0.0293 c 0.7,0.02 1.250469,0.6010156 1.230469,1.2910156 0,0.04 -0.109375,4.3984378 -0.109375,10.3984378 0,0.66 -0.529453,1.22 -1.189453,1.25 -0.67,0.02 -1.250312,-0.459141 -1.320312,-1.119141 -0.38,-3.7 -0.969532,-6.769922 -4.269532,-6.919922 h -0.140625 c -2.87,0 -3.540312,4.179375 -3.570312,4.359375 -0.01,0.05 -0.259531,1.520547 0.230469,3.060547 0.61,1.92 2.050156,3.048985 4.410156,3.458984 7.35,1.25 7.708984,5.520391 7.708984,6.400391 0.05,0.56 0.170235,3.149688 -1.509765,5.179688 -1.2,1.45 -2.99961,2.269921 -5.34961,2.419921 -2.78,0.18 -4.990312,-0.408281 -6.570312,-1.738281 v 4.179688 c 0,0.7 -0.559766,1.259765 -1.259766,1.259765 -0.69,0 -1.259766,-0.559765 -1.259766,-1.259765 v -9.650391 c -0.02,-0.51 -2.34e-4,-0.850625 0.0098,-0.890625 0.06,-0.67 0.630547,-1.178672 1.310547,-1.138672 0.67,0.03 1.199219,0.58 1.199219,1.25 v 0.71875 c 0.05,0.82 0.299375,2.291094 1.359375,3.371094 1.06,1.08 2.760781,1.548437 5.050781,1.398437 1.62,-0.109999 2.820312,-0.619531 3.570312,-1.519531 1.160001,-1.39 0.939454,-3.34914 0.939454,-3.36914 -0.01,-0.09 -0.01977,-0.179766 -0.0098,-0.259766 0,-0.16 -0.02938,-2.930859 -5.609375,-3.880859 -2.4,-0.41 -4.220625,-1.470625 -5.390625,-3.140625 -1.93,-2.74 -1.340313,-6.11 -1.320312,-6.25 0.339999,-2.3 2.100312,-6.65875 6.320312,-6.46875 1.91,0.09 3.249219,0.798828 4.199219,1.798828 0.02,-1.84 0.05078,-2.9387502 0.05078,-2.9687502 0.02,-0.68 0.579766,-1.2207032 1.259766,-1.2207032 z"
       fill="#ffffff" />
    <path
       id="BhTpqD1LKDu-3nZODAcBDa-618"
       d="M -205.11914,-23.007812 V 59.634766 H -158.5 V -23.007812 Z M 30.599609,0 c -2.43,0 -4.679687,0.840625 -6.429687,2.390625 -8.03,0.31 -12.709453,7.1189844 -13.689453,13.458984 -0.22,1.36 -0.5402346,4.739922 0.759765,8.419922 -1.1,1.44 -1.7699215,3.151172 -1.9199215,4.951172 -0.05,0.46 -0.071016,1.138359 -0.041016,1.818359 v 9.441407 c 0,5.25 4.2807811,9.519531 9.5507811,9.519531 2.94,0 5.740781,-1.379922 7.550781,-3.669922 0.25,-0.01 0.51836,-0.02102 0.81836,-0.04102 5.89,-0.38 9.350937,-3.149921 11.210937,-5.419921 3.43,-4.12 3.520625,-8.879063 3.390625,-10.789063 -0.03,-1.23 -0.341562,-4.110312 -2.351562,-7.070312 0.33,-0.98 0.5,-2.000547 0.5,-3.060547 0,-5.47 0.101328,-9.449453 0.111328,-10.1894534 0.07,-2.54 -0.871094,-4.9605468 -2.621094,-6.8105468 C 35.669453,1.1092187 33.280703,0.06 30.720703,0 Z m -0.08984,8.2597656 h 0.0293 c 0.7,0.02 1.250469,0.6010156 1.230469,1.2910156 0,0.04 -0.109375,4.3984378 -0.109375,10.3984378 0,0.66 -0.529453,1.22 -1.189453,1.25 -0.67,0.02 -1.250312,-0.459141 -1.320312,-1.119141 -0.38,-3.7 -0.969532,-6.769922 -4.269532,-6.919922 h -0.140625 c -2.87,0 -3.540312,4.179375 -3.570312,4.359375 -0.01,0.05 -0.259531,1.520547 0.230469,3.060547 0.61,1.92 2.050156,3.048985 4.410156,3.458984 7.35,1.25 7.708984,5.520391 7.708984,6.400391 0.05,0.56 0.170235,3.149688 -1.509765,5.179688 -1.2,1.45 -2.99961,2.269921 -5.34961,2.419921 -2.78,0.18 -4.990312,-0.408281 -6.570312,-1.738281 v 4.179688 c 0,0.7 -0.559766,1.259765 -1.259766,1.259765 -0.69,0 -1.259766,-0.559765 -1.259766,-1.259765 v -9.650391 c -0.02,-0.51 -2.34e-4,-0.850625 0.0098,-0.890625 0.06,-0.67 0.630547,-1.178672 1.310547,-1.138672 0.67,0.03 1.199219,0.58 1.199219,1.25 v 0.71875 c 0.05,0.82 0.299375,2.291094 1.359375,3.371094 1.06,1.08 2.760781,1.548437 5.050781,1.398437 1.62,-0.109999 2.820312,-0.619531 3.570312,-1.519531 1.160001,-1.39 0.939454,-3.34914 0.939454,-3.36914 -0.01,-0.09 -0.01977,-0.179766 -0.0098,-0.259766 0,-0.16 -0.02938,-2.930859 -5.609375,-3.880859 -2.4,-0.41 -4.220625,-1.470625 -5.390625,-3.140625 -1.93,-2.74 -1.340313,-6.11 -1.320312,-6.25 0.339999,-2.3 2.100312,-6.65875 6.320312,-6.46875 1.91,0.09 3.249219,0.798828 4.199219,1.798828 0.02,-1.84 0.05078,-2.9387502 0.05078,-2.9687502 0.02,-0.68 0.579766,-1.2207032 1.259766,-1.2207032 z"
       fill="#ffffff" />
    <path
       id="BhTpqD1LKDu-3nZODAcBDa-41"
       d="M -205.11914,-23.007812 V 59.634766 H -158.5 V -23.007812 Z M 30.599609,0 c -2.43,0 -4.679687,0.840625 -6.429687,2.390625 -8.03,0.31 -12.709453,7.1189844 -13.689453,13.458984 -0.22,1.36 -0.5402346,4.739922 0.759765,8.419922 -1.1,1.44 -1.7699215,3.151172 -1.9199215,4.951172 -0.05,0.46 -0.071016,1.138359 -0.041016,1.818359 v 9.441407 c 0,5.25 4.2807811,9.519531 9.5507811,9.519531 2.94,0 5.740781,-1.379922 7.550781,-3.669922 0.25,-0.01 0.51836,-0.02102 0.81836,-0.04102 5.89,-0.38 9.350937,-3.149921 11.210937,-5.419921 3.43,-4.12 3.520625,-8.879063 3.390625,-10.789063 -0.03,-1.23 -0.341562,-4.110312 -2.351562,-7.070312 0.33,-0.98 0.5,-2.000547 0.5,-3.060547 0,-5.47 0.101328,-9.449453 0.111328,-10.1894534 0.07,-2.54 -0.871094,-4.9605468 -2.621094,-6.8105468 C 35.669453,1.1092187 33.280703,0.06 30.720703,0 Z m -0.08984,8.2597656 h 0.0293 c 0.7,0.02 1.250469,0.6010156 1.230469,1.2910156 0,0.04 -0.109375,4.3984378 -0.109375,10.3984378 0,0.66 -0.529453,1.22 -1.189453,1.25 -0.67,0.02 -1.250312,-0.459141 -1.320312,-1.119141 -0.38,-3.7 -0.969532,-6.769922 -4.269532,-6.919922 h -0.140625 c -2.87,0 -3.540312,4.179375 -3.570312,4.359375 -0.01,0.05 -0.259531,1.520547 0.230469,3.060547 0.61,1.92 2.050156,3.048985 4.410156,3.458984 7.35,1.25 7.708984,5.520391 7.708984,6.400391 0.05,0.56 0.170235,3.149688 -1.509765,5.179688 -1.2,1.45 -2.99961,2.269921 -5.34961,2.419921 -2.78,0.18 -4.990312,-0.408281 -6.570312,-1.738281 v 4.179688 c 0,0.7 -0.559766,1.259765 -1.259766,1.259765 -0.69,0 -1.259766,-0.559765 -1.259766,-1.259765 v -9.650391 c -0.02,-0.51 -2.34e-4,-0.850625 0.0098,-0.890625 0.06,-0.67 0.630547,-1.178672 1.310547,-1.138672 0.67,0.03 1.199219,0.58 1.199219,1.25 v 0.71875 c 0.05,0.82 0.299375,2.291094 1.359375,3.371094 1.06,1.08 2.760781,1.548437 5.050781,1.398437 1.62,-0.109999 2.820312,-0.619531 3.570312,-1.519531 1.160001,-1.39 0.939454,-3.34914 0.939454,-3.36914 -0.01,-0.09 -0.01977,-0.179766 -0.0098,-0.259766 0,-0.16 -0.02938,-2.930859 -5.609375,-3.880859 -2.4,-0.41 -4.220625,-1.470625 -5.390625,-3.140625 -1.93,-2.74 -1.340313,-6.11 -1.320312,-6.25 0.339999,-2.3 2.100312,-6.65875 6.320312,-6.46875 1.91,0.09 3.249219,0.798828 4.199219,1.798828 0.02,-1.84 0.05078,-2.9387502 0.05078,-2.9687502 0.02,-0.68 0.579766,-1.2207032 1.259766,-1.2207032 z"
       fill="#ffffff" />
    <path
       id="BhTpqD1LKDu-3nZODAcBDa-988"
       d="M -205.11914,-23.007812 V 59.634766 H -158.5 V -23.007812 Z M 30.599609,0 c -2.43,0 -4.679687,0.840625 -6.429687,2.390625 -8.03,0.31 -12.709453,7.1189844 -13.689453,13.458984 -0.22,1.36 -0.5402346,4.739922 0.759765,8.419922 -1.1,1.44 -1.7699215,3.151172 -1.9199215,4.951172 -0.05,0.46 -0.071016,1.138359 -0.041016,1.818359 v 9.441407 c 0,5.25 4.2807811,9.519531 9.5507811,9.519531 2.94,0 5.740781,-1.379922 7.550781,-3.669922 0.25,-0.01 0.51836,-0.02102 0.81836,-0.04102 5.89,-0.38 9.350937,-3.149921 11.210937,-5.419921 3.43,-4.12 3.520625,-8.879063 3.390625,-10.789063 -0.03,-1.23 -0.341562,-4.110312 -2.351562,-7.070312 0.33,-0.98 0.5,-2.000547 0.5,-3.060547 0,-5.47 0.101328,-9.449453 0.111328,-10.1894534 0.07,-2.54 -0.871094,-4.9605468 -2.621094,-6.8105468 C 35.669453,1.1092187 33.280703,0.06 30.720703,0 Z m -0.08984,8.2597656 h 0.0293 c 0.7,0.02 1.250469,0.6010156 1.230469,1.2910156 0,0.04 -0.109375,4.3984378 -0.109375,10.3984378 0,0.66 -0.529453,1.22 -1.189453,1.25 -0.67,0.02 -1.250312,-0.459141 -1.320312,-1.119141 -0.38,-3.7 -0.969532,-6.769922 -4.269532,-6.919922 h -0.140625 c -2.87,0 -3.540312,4.179375 -3.570312,4.359375 -0.01,0.05 -0.259531,1.520547 0.230469,3.060547 0.61,1.92 2.050156,3.048985 4.410156,3.458984 7.35,1.25 7.708984,5.520391 7.708984,6.400391 0.05,0.56 0.170235,3.149688 -1.509765,5.179688 -1.2,1.45 -2.99961,2.269921 -5.34961,2.419921 -2.78,0.18 -4.990312,-0.408281 -6.570312,-1.738281 v 4.179688 c 0,0.7 -0.559766,1.259765 -1.259766,1.259765 -0.69,0 -1.259766,-0.559765 -1.259766,-1.259765 v -9.650391 c -0.02,-0.51 -2.34e-4,-0.850625 0.0098,-0.890625 0.06,-0.67 0.630547,-1.178672 1.310547,-1.138672 0.67,0.03 1.199219,0.58 1.199219,1.25 v 0.71875 c 0.05,0.82 0.299375,2.291094 1.359375,3.371094 1.06,1.08 2.760781,1.548437 5.050781,1.398437 1.62,-0.109999 2.820312,-0.619531 3.570312,-1.519531 1.160001,-1.39 0.939454,-3.34914 0.939454,-3.36914 -0.01,-0.09 -0.01977,-0.179766 -0.0098,-0.259766 0,-0.16 -0.02938,-2.930859 -5.609375,-3.880859 -2.4,-0.41 -4.220625,-1.470625 -5.390625,-3.140625 -1.93,-2.74 -1.340313,-6.11 -1.320312,-6.25 0.339999,-2.3 2.100312,-6.65875 6.320312,-6.46875 1.91,0.09 3.249219,0.798828 4.199219,1.798828 0.02,-1.84 0.05078,-2.9387502 0.05078,-2.9687502 0.02,-0.68 0.579766,-1.2207032 1.259766,-1.2207032 z"
       fill="#ffffff" />
    <path
       id="BhTpqD1LKDu-3nZODAcBDa-778"
       d="M -205.11914,-23.007812 V 59.634766 H -158.5 V -23.007812 Z M 30.599609,0 c -2.43,0 -4.679687,0.840625 -6.429687,2.390625 -8.03,0.31 -12.709453,7.1189844 -13.689453,13.458984 -0.22,1.36 -0.5402346,4.739922 0.759765,8.419922 -1.1,1.44 -1.7699215,3.151172 -1.9199215,4.951172 -0.05,0.46 -0.071016,1.138359 -0.041016,1.818359 v 9.441407 c 0,5.25 4.2807811,9.519531 9.5507811,9.519531 2.94,0 5.740781,-1.379922 7.550781,-3.669922 0.25,-0.01 0.51836,-0.02102 0.81836,-0.04102 5.89,-0.38 9.350937,-3.149921 11.210937,-5.419921 3.43,-4.12 3.520625,-8.879063 3.390625,-10.789063 -0.03,-1.23 -0.341562,-4.110312 -2.351562,-7.070312 0.33,-0.98 0.5,-2.000547 0.5,-3.060547 0,-5.47 0.101328,-9.449453 0.111328,-10.1894534 0.07,-2.54 -0.871094,-4.9605468 -2.621094,-6.8105468 C 35.669453,1.1092187 33.280703,0.06 30.720703,0 Z m -0.08984,8.2597656 h 0.0293 c 0.7,0.02 1.250469,0.6010156 1.230469,1.2910156 0,0.04 -0.109375,4.3984378 -0.109375,10.3984378 0,0.66 -0.529453,1.22 -1.189453,1.25 -0.67,0.02 -1.250312,-0.459141 -1.320312,-1.119141 -0.38,-3.7 -0.969532,-6.769922 -4.269532,-6.919922 h -0.140625 c -2.87,0 -3.540312,4.179375 -3.570312,4.359375 -0.01,0.05 -0.259531,1.520547 0.230469,3.060547 0.61,1.92 2.050156,3.048985 4.410156,3.458984 7.35,1.25 7.708984,5.520391 7.708984,6.400391 0.05,0.56 0.170235,3.149688 -1.509765,5.179688 -1.2,1.45 -2.99961,2.269921 -5.34961,2.419921 -2.78,0.18 -4.990312,-0.408281 -6.570312,-1.738281 v 4.179688 c 0,0.7 -0.559766,1.259765 -1.259766,1.259765 -0.69,0 -1.259766,-0.559765 -1.259766,-1.259765 v -9.650391 c -0.02,-0.51 -2.34e-4,-0.850625 0.0098,-0.890625 0.06,-0.67 0.630547,-1.178672 1.310547,-1.138672 0.67,0.03 1.199219,0.58 1.199219,1.25 v 0.71875 c 0.05,0.82 0.299375,2.291094 1.359375,3.371094 1.06,1.08 2.760781,1.548437 5.050781,1.398437 1.62,-0.109999 2.820312,-0.619531 3.570312,-1.519531 1.160001,-1.39 0.939454,-3.34914 0.939454,-3.36914 -0.01,-0.09 -0.01977,-0.179766 -0.0098,-0.259766 0,-0.16 -0.02938,-2.930859 -5.609375,-3.880859 -2.4,-0.41 -4.220625,-1.470625 -5.390625,-3.140625 -1.93,-2.74 -1.340313,-6.11 -1.320312,-6.25 0.339999,-2.3 2.100312,-6.65875 6.320312,-6.46875 1.91,0.09 3.249219,0.798828 4.199219,1.798828 0.02,-1.84 0.05078,-2.9387502 0.05078,-2.9687502 0.02,-0.68 0.579766,-1.2207032 1.259766,-1.2207032 z"
       fill="#ffffff" />
  </defs>
  <g
     inkscape:label="Layer 1"
     inkscape:groupmode="layer"
     id="layer1"
     transform="translate(-6.0228081,-7.8108406)">
    <circle
       style="fill:#02a4ca;fill-opacity:0.2;fill-rule:evenodd;stroke:none;stroke-width:0.627327;stroke-opacity:1"
       id="path4"
       cx="48.088398"
       cy="49.876431"
       r="42.06559" />
    <circle
       style="fill:#02ca6f;fill-opacity:0.18;fill-rule:evenodd;stroke:none;stroke-width:0.627327;stroke-opacity:1"
       id="path4-2"
       cx="89.31562"
       cy="49.876431"
       r="42.06559" />
    <text
       xml:space="preserve"
       style="font-size:7.05556px;line-height:1;font-family:'微软雅黑';-inkscape-font-specification:'微软雅黑';letter-spacing:0px;word-spacing:1.32292px;writing-mode:lr-tb;direction:ltr;white-space:pre;fill:#02a4ca;fill-opacity:0.2;fill-rule:evenodd;stroke:none;stroke-width:0.627327;stroke-opacity:1"
       x="27.384983"
       y="35.101711"
       id="text4"><tspan
         sodipodi:role="line"
         id="tspan4"
         style="font-size:7.05556px;fill:#2c5aa0;fill-opacity:1;stroke-width:0.627327"
         x="27.384983"
         y="35.101711">arch</tspan></text>
    <text
       xml:space="preserve"
       style="font-size:7.05556px;line-height:1;font-family:'微软雅黑';-inkscape-font-specification:'微软雅黑';letter-spacing:0px;word-spacing:1.32292px;writing-mode:lr-tb;direction:ltr;white-space:pre;fill:#0f704d;fill-opacity:0.6;fill-rule:evenodd;stroke:none;stroke-width:0.627327;stroke-opacity:1"
       x="95.169731"
       y="35.101711"
       id="text4-2"><tspan
         sodipodi:role="line"
         id="tspan4-3"
         style="font-size:7.05556px;fill:#0f704d;fill-opacity:0.6;stroke-width:0.627327"
         x="95.169731"
         y="35.101711">drivers</tspan></text>
    <text
       xml:space="preserve"
       style="font-size:7.05556px;line-height:1;font-family:'微软雅黑';-inkscape-font-specification:'微软雅黑';letter-spacing:0px;word-spacing:1.32292px;writing-mode:lr-tb;direction:ltr;white-space:pre;fill:#16645e;fill-opacity:0.6;fill-rule:evenodd;stroke:none;stroke-width:0.627327;stroke-opacity:1"
       x="54.861126"
       y="35.101711"
       id="text4-2-8"><tspan
         sodipodi:role="line"
         id="tspan4-3-5"
         style="font-size:7.05556px;fill:#16645e;fill-opacity:0.6;stroke-width:0.627327"
         x="54.861126"
         y="35.101711">platform</tspan></text>
    <text
       xml:space="preserve"
       style="font-size:4.93889px;line-height:1.2;font-family:'微软雅黑';-inkscape-font-specification:'微软雅黑';letter-spacing:0px;word-spacing:1.32292px;writing-mode:lr-tb;direction:ltr;white-space:pre;inline-size:35.7315;fill:#2c5aa0;fill-opacity:1;fill-rule:evenodd;stroke:none;stroke-width:0.627327;stroke-opacity:1"
       x="27.479088"
       y="58.910645"
       id="text5"
       transform="translate(-17.224916,-11.539623)"><tspan
         x="27.479088"
         y="58.910645"
         id="tspan13">只与架构相关的</tspan><tspan
         x="27.479088"
         y="64.837316"
         id="tspan14">逻辑，例如中断</tspan><tspan
         x="27.479088"
         y="70.763982"
         id="tspan15">处理函数</tspan></text>
    <text
       xml:space="preserve"
       style="font-size:4.93889px;line-height:1.2;font-family:'微软雅黑';-inkscape-font-specification:'微软雅黑';letter-spacing:0px;word-spacing:1.32292px;writing-mode:lr-tb;direction:ltr;white-space:pre;inline-size:38.1783;fill:#16645e;fill-opacity:0.6;fill-rule:evenodd;stroke:none;stroke-width:0.627327;stroke-opacity:1"
       x="27.479088"
       y="58.910645"
       id="text5-9"
       transform="translate(22.932551,-11.52033)"><tspan
         x="27.479088"
         y="58.910645"
         id="tspan16">依赖于特定架构</tspan><tspan
         x="27.479088"
         y="64.837316"
         id="tspan17">和板卡形成一个</tspan><tspan
         x="27.479088"
         y="70.763982"
         id="tspan18">“平台”，例如</tspan><tspan
         x="27.479088"
         y="76.690648"
         id="tspan19">QEMU-LA-RTC</tspan></text>
    <text
       xml:space="preserve"
       style="font-size:4.93889px;line-height:1.2;font-family:'微软雅黑';-inkscape-font-specification:'微软雅黑';letter-spacing:0px;word-spacing:1.32292px;writing-mode:lr-tb;direction:ltr;white-space:pre;inline-size:38.1783;fill:#0f704d;fill-opacity:0.6;fill-rule:evenodd;stroke:none;stroke-width:0.627327;stroke-opacity:1"
       x="27.479088"
       y="58.910645"
       id="text5-9-4"
       transform="translate(65.546848,-11.501038)"><tspan
         x="27.479088"
         y="58.910645"
         id="tspan20">独立于架构的驱</tspan><tspan
         x="27.479088"
         y="64.837316"
         id="tspan21">动程序，适用于</tspan><tspan
         x="27.479088"
         y="70.763982"
         id="tspan22">各种设备，例如</tspan><tspan
         x="27.479088"
         y="76.690648"
         id="tspan23">串口驱动</tspan></text>
  </g>
</svg>
